<svg version="1.1" xmlns="http://www.w3.org/2000/svg" viewBox="236.9 134.3 1275.0 479.9">
<rect x="236.9" y="134.3" width="1275.0" height="479.9" fill="#202124" />
<polyline points="472.5 200.6,472.5 200.6,472.9 264.5,473.2 328.5,473.5 392.5,473.8 456.5,474.1 520.4,474.5 600.4" style="fill:none;stroke:#ffffff;stroke-width:2"/>
<polyline points="347.9 577.7,347.9 577.7,496.0 577.6,644.2 577.5,792.3 577.4,940.4 577.3,1088.5 577.2,1273.7 577.1" style="fill:none;stroke:#ffffff;stroke-width:2"/>
<polyline points="1246.3 561.7,1250.3 563.1,1252.3 565.1,1254.5 566.1,1256.9 567.5,1259.3 569.0,1261.9 570.2,1264.2 571.2,1266.4 572.1,1268.2 572.6,1269.9 573.3,1271.2 573.6,1272.3 573.9,1273.2 574.1,1273.8 574.2,1274.8 574.3,1275.0 574.6,1275.2 575.0,1275.4 575.8,1275.2 577.1,1274.6 578.5,1273.4 580.2,1272.3 582.2,1271.1 584.2,1268.7 587.0,1265.9 590.2,1261.6 594.3,1260.4 595.6,1258.6 596.8,1257.4 597.8,1256.6 598.5,1256.1 598.9" style="fill:none;stroke:#ffffff;stroke-width:2"/>
<polyline points="319.9 380.5,319.9 380.5,477.3 381.0,634.7 381.6,792.1 382.1,949.5 382.6,1106.9 383.2,1303.7 383.8" style="fill:none;stroke:#ffff00;stroke-width:2"/>
<polyline points="1325.7 385.8,1325.0 384.5,1326.3 384.5,1327.0 383.2,1326.9 382.8,1326.6 382.5,1326.0 382.3,1325.7 382.1,1325.2 382.0,1324.6 382.0,1324.0 382.2,1323.4 382.3,1323.1 382.6,1322.5 383.1,1322.0 383.6,1321.4 384.7,1321.0 385.6,1320.5 386.4,1320.2 387.1,1320.0 387.8,1319.9 388.6,1319.8 389.5,1319.8 390.3,1319.7 391.4,1319.7 392.5,1319.7 395.0,1319.7 399.7,1319.9 400.4,1320.1 401.7,1320.4 402.6,1320.9 403.2,1322.3 404.6,1322.9 404.9,1323.7 405.2,1324.1 405.4,1324.7 405.3,1325.0 404.7,1325.5 403.8,1325.8 402.8,1326.2 401.5,1326.5 400.2,1327.2 395.3,1327.3 393.8,1327.4 391.9,1327.5 390.5,1327.5 389.0,1327.6 387.6,1327.6 386.3,1327.6 382.4,1327.4 381.3,1327.2 382.0,1327.2 382.4,1327.4 383.2,1327.7 384.2,1328.2 385.0,1328.5 386.0,1328.9 387.2,1330.0 388.7,1330.8 390.0,1331.6 391.4,1332.3 392.7,1333.3 394.1,1333.9 395.4,1334.5 396.5,1335.2 397.4,1335.8 398.0,1336.5 398.4,1337.1 398.1" style="fill:none;stroke:#ffff00;stroke-width:2"/>
<polyline points="1341.7 379.8,1341.7 386.5,1342.3 389.8,1342.5 390.0,1342.9 391.3,1343.4 392.4,1344.0 393.7,1344.6 394.9,1344.9 396.2,1345.7 397.8,1346.4 398.9,1346.8 399.7,1347.4 400.2,1348.6 398.7,1349.4 397.1,1350.2 395.4,1351.0 393.6,1351.7 392.1,1352.1 390.3,1352.7 388.4,1353.9 384.9,1354.2 383.9,1354.4 382.7,1354.6 381.7,1354.7 381.1,1354.9 380.1" style="fill:none;stroke:#ffff00;stroke-width:2"/>
<polyline points="1367.6 395.2,1374.3 395.8,1376.3 394.5,1377.0 393.2,1377.1 392.8,1377.3 391.9,1377.7 390.6,1377.9 389.4,1378.0 388.1,1378.1 387.1,1377.9 385.9,1377.0 384.4,1376.0 383.3,1375.2 382.3,1373.5 381.4,1372.7 380.9,1371.9 380.5,1371.1 380.3,1370.3 380.1,1369.3 380.3,1368.5 380.9,1368.0 381.8,1367.1 383.1,1366.6 384.3,1366.0 385.6,1365.7 386.6,1365.4 387.8,1365.3 389.0,1365.2 390.5,1365.1 391.9,1365.1 393.3,1365.0 394.7,1365.6 396.1,1366.6 397.7,1368.0 399.2,1369.0 400.0,1370.2 400.6,1371.2 401.0,1372.3 401.3,1373.3 401.5,1374.4 401.6,1375.3 401.7,1376.1 401.4,1377.2 401.3,1378.0 401.0,1378.8 400.6,1379.6 400.0,1380.6 399.2,1381.4 398.5,1382.5 397.5,1383.6 396.7,1384.6 395.9,1385.4 395.1,1386.2 394.7,1386.7 394.4,1387.0 394.2,1387.2 393.8,1387.6 393.6,1387.8 393.2,1388.0 392.7,1388.1 391.8,1388.2 390.8,1388.2 390.0,1388.2 389.0,1388.3 387.8,1388.3 385.1,1388.0 383.1,1387.9 382.3,1387.8 381.4,1387.8 380.9,1388.3 380.0,1389.0 379.8,1390.0 379.6,1391.1 379.4,1392.0 379.6,1392.8 380.0,1393.6 380.4,1394.3 380.9,1394.7 381.5,1395.3 382.4,1395.6 383.1,1395.9 384.1,1396.0 385.2,1396.1 386.4,1396.2 387.7,1396.2 389.2,1396.3 392.0,1396.3 393.1,1396.6 396.9,1397.0 397.5,1397.5 398.6,1398.3 399.2,1400.1 399.6" style="fill:none;stroke:#ffff00;stroke-width:2"/>
<polyline points="1422.3 378.5,1419.0 377.8,1417.6 379.2,1417.0 380.5,1416.5 380.8,1415.9 381.7,1415.3 382.7,1414.7 383.6,1414.4 384.7,1413.8 385.8,1413.6 386.7,1413.1 387.9,1412.8 389.1,1412.7 390.0,1412.5 390.9,1412.5 392.0,1412.4 392.6,1412.4 393.3,1412.3 393.9,1412.6 394.9,1413.0 395.1,1413.5 395.4,1414.0 395.5,1414.6 395.6,1415.2 395.7,1415.9 395.4,1416.5 395.4,1417.1 395.0,1417.8 394.6,1418.5 393.8,1419.1 393.1,1419.8 392.1,1420.2 391.3,1420.7 390.5,1421.0 389.8,1421.5 389.1,1421.8 388.4,1421.9 387.1,1422.1 386.2,1422.1 385.4,1422.2 384.3,1422.2 383.7,1422.2 383.0,1422.3 382.4,1422.0 381.0,1421.8 379.5,1421.7 379.4,1421.7 380.9,1421.7 381.9,1421.6 386.1,1421.9 388.1,1422.3 389.0,1422.8 390.0,1423.6 390.6,1424.6 391.0,1426.3 391.3,1428.0 391.5" style="fill:none;stroke:#ffff00;stroke-width:2"/>
<polyline points="1441.6 376.5,1439.6 377.2,1437.6 381.2,1437.0 385.2,1437.1 385.3,1437.0 386.6,1437.0 387.5,1437.3 389.1,1437.9 389.7,1438.5 390.2,1439.5 390.5,1440.2 390.7,1441.2 390.3,1442.4 389.6,1443.3 388.7,1444.1 387.1,1445.2 385.4,1445.7 383.3,1446.4 381.1,1446.8 379.2,1447.1 377.3,1447.3 375.9,1447.1 374.7,1446.5 374.0,1446.2 373.5,1445.7 373.2,1445.2 374.1,1444.6 375.2,1444.3 376.7,1444.1 378.3,1443.9 380.4,1444.1 382.3,1445.6 386.0,1446.2 387.8,1447.5 390.3,1450.7 396.3,1452.0 399.0,1453.3 402.2,1454.3 405.4,1455.0 408.4,1455.4 411.6,1454.9 414.5,1453.9 417.4,1452.5 420.2,1450.7 422.3,1448.9 424.3,1447.0 425.7,1445.0 426.6,1442.5 427.2,1439.5 427.9,1438.7 428.0,1437.8 428.2,1437.0 428.1,1436.8 427.7,1437.2 427.0,1437.6 426.0,1439.2 424.4,1440.5 423.0,1442.2 421.6,1443.9 420.3,1445.5 418.9,1447.2 417.5,1449.1 416.2,1451.0 414.6,1452.9 412.8,1454.8 410.7,1456.5 408.7,1458.4 406.2,1460.6 402.8,1462.6 399.0,1464.1 396.1,1465.3 393.7,1466.3 391.3,1467.0 389.4,1467.4 388.0,1467.7 386.5,1467.9 385.3,1468.0 384.0,1468.1 382.2,1467.9 379.6,1467.8 378.7,1467.5 378.0,1467.0 377.2,1466.5 376.7,1465.9 376.4,1465.3 376.2,1464.7 376.1,1464.1 376.0,1463.4 375.9,1462.8 376.2,1462.4 376.6,1461.9 376.8,1461.3 377.2,1461.0 377.4,1460.5 377.8,1460.2 378.3,1460.0 379.1,1459.6 380.1,1459.4 381.2,1459.2 382.4,1459.1 383.7,1459.1 385.2,1459.0 386.6,1459.0 388.0,1459.3 390.2,1459.4 391.4,1460.0 392.7,1460.9 394.4,1462.2 395.8,1463.7 397.0,1465.7 398.0,1467.8 398.6,1470.5 399.0,1473.3 398.7,1476.0 397.8,1479.1 396.5,1481.6 394.5" style="fill:none;stroke:#ffff00;stroke-width:2"/>
<polyline points="469.2 183.9,468.5 185.9,467.2 188.6,466.5 190.6,466.1 191.3,465.5 193.1,464.6 195.1,463.9 197.1,463.2 198.8,462.5 200.1,462.1 201.2,461.8 201.9,461.6 202.6,461.5 203.0,461.4 202.5,461.3 201.8,461.3 200.5,461.5 199.3,461.9 198.1,462.4 196.8,462.9 195.3,463.2 193.8,463.7 192.4,464.3 190.8,464.9 189.3,465.5 187.6,466.1 186.3,466.5 185.0,467.0 183.9,467.3 183.0,467.8 182.4,468.0 181.7,468.2 181.1,468.6 180.7,468.8 180.2,469.2 179.9,469.7 179.7,470.3 179.8,470.8 180.4,471.5 181.2,472.1 182.2,473.0 183.9,474.1 185.3,474.9 187.0,476.0 188.8,476.9 190.6,477.7 192.5,478.5 194.5,479.2 196.2,479.7 197.7,479.9 198.9,480.1 199.7,480.4 201.0,480.7 201.2,480.9 201.7,481.0 202.5,481.1 203.5,481.4 204.1" style="fill:none;stroke:#ffffff;stroke-width:2"/>
<polyline points="500.5 147.3,501.2 149.3,502.5 150.6,503.2 151.9,503.4 152.5,504.1 153.9,505.0 155.6,506.9 160.0,509.4 165.5,510.3 167.6,511.3 170.1,512.2 171.9,513.0 173.5,513.8 174.8,514.3 175.6,515.2 176.4,515.6 175.8,516.2 175.4,516.8 174.3,517.7 173.2,518.5 171.7,519.5 169.8,520.6 167.6,522.6 164.2,523.7 162.4,524.7 160.0,525.8 158.1,526.8 156.4,527.6 155.1,528.4 154.0,529.2 153.0,529.9 152.5,530.3 151.8,530.9 151.4,531.2 150.8,531.7 150.3,532.3 149.7,533.1 148.8,533.5 148.3,534.8 147.3,536.2 146.4,536.6 146.4,537.6 145.9,538.4 145.7" style="fill:none;stroke:#ffffff;stroke-width:2"/>
<polyline points="1321.0 567.7,1321.0 569.1,1319.7 572.4,1319.0 574.4,1318.8 576.0,1318.4 578.1,1317.6 582.6,1317.2 584.6,1316.9 586.9,1316.7 589.1,1316.6 591.2,1316.5 593.0,1316.7 594.7,1317.6 596.5,1319.8 598.7,1321.6 600.4,1323.8 601.5,1325.9 602.3,1328.3 602.7,1330.7 602.5,1332.9 601.6,1335.1 600.1,1336.6 598.2" style="fill:none;stroke:#ffffff;stroke-width:2"/>
<polyline points="1315.0 579.1,1320.3 577.7,1325.7 576.4,1329.0 576.4,1329.5 576.4,1331.7 576.1" style="fill:none;stroke:#ffffff;stroke-width:2"/>
<polyline points="393.9 539.7,391.9 539.7,390.6 538.4,389.2 538.4,388.9 538.4,388.3 538.4,387.7 538.4,387.0 538.7,386.7 539.1,386.1 539.9,385.6 540.5,385.2 541.5,384.7 542.6,384.5 543.4,384.3 544.5,383.9 545.7,383.7 546.9,383.5 548.2,383.4 549.5,383.4 550.8,383.3 552.1,383.6 553.4,384.0 554.4,384.4 555.7,385.3 556.9,386.2 557.9,387.3 558.8,388.2 559.6,389.9 560.4,390.7 560.8,391.6 561.1,392.7 561.6,393.9 562.1,395.1 562.4,396.3 562.7,397.3 563.1,398.5 563.3,399.7 563.4,400.7 563.5,402.2 563.6,403.5 563.1,404.6 562.3,405.5 561.4,406.6 560.3,407.5 558.8,408.9 556.1,409.4 555.3,409.8 554.0,410.0 552.7,410.2 551.4,410.3 549.5,410.4 548.0,410.2 546.5,409.8 544.7,409.1 543.5,408.4 542.1,407.5 541.1,406.1 539.9,404.8 538.9,403.5 538.3,402.2 537.6,400.1 537.2,398.1 537.0,396.4 536.8,394.5 536.9,392.9 537.5,391.3 538.4,389.9 539.7,388.7 541.5,387.7 543.5" style="fill:none;stroke:#ffffff;stroke-width:2"/>
<polyline points="455.9 227.9,463.8 227.9,467.9 227.9,475.6 228.2,477.9 228.3,482.1 228.4,484.2 228.8,486.2 228.9,488.0 229.0,489.6 229.1,491.4 229.1,493.5 229.2" style="fill:none;stroke:#ffffff;stroke-width:2"/>
<polyline points="342.6 210.6,344.6 209.9,346.6 208.6,347.9 207.9,348.2 207.7,349.1 207.6,350.2 207.5,351.3 207.4,352.2 207.3,353.3 207.3,354.2 207.6,355.1 208.2,355.8 208.8,356.6 210.0,357.0 211.2,357.3 212.7,357.5 214.1,357.1 215.7,356.4 217.2,355.7 218.6,354.8 219.8,353.7 220.8,352.9 221.3,352.0 222.0,351.3 222.4,350.8 222.7,350.5 222.9,351.2 223.3,351.7 223.5,352.2 223.9,352.8 224.7,353.2 225.6,353.4 227.0,353.6 228.8,353.7 230.9,353.8 232.9,353.3 235.2,351.9 239.2,351.3 240.5,349.7 242.5,348.1 243.9,346.9 244.8,346.1 245.6,345.6 246.2,345.3 246.5" style="fill:none;stroke:#ffffff;stroke-width:2"/>
<polyline points="375.9 242.6,375.2 249.2,374.6 250.6,373.9 252.5,374.0 252.8,373.7 253.5,373.5 254.4,373.4 254.9" style="fill:none;stroke:#ffffff;stroke-width:2"/>
<polyline points="381.2 209.2,381.2 203.2,382.6 201.9,383.2 200.6,383.7 200.5,384.5 200.0,385.2 199.5,386.0 199.2,386.7 199.0,387.3 198.8,388.0 198.8,388.7 199.0,389.1 200.2,389.6 203.2,389.9 204.7,390.1 207.5,390.0 210.3,389.4 213.0,388.3 217.2,387.5 218.2,386.9 219.5,386.3 220.3,386.0 220.8,385.4 221.2,385.2 220.9,385.0 220.5,385.1 220.0,385.4 219.5,385.9 218.9,386.6 218.6,387.3 218.4,388.3 218.2,389.4 218.1,390.3 218.6,391.4 219.4,392.2 220.6,393.1 222.6,393.6 224.8,393.9 227.4,393.8 230.3,393.3 233.0,392.5 235.7,391.8 237.9,390.8 239.5,390.3 240.8,389.7 241.6,389.3 242.1,388.8 241.6,388.5 240.4" style="fill:none;stroke:#ffffff;stroke-width:2"/>
<polyline points="409.2 195.9,409.9 197.2,410.6 199.2,411.2 201.9,411.7 202.9,412.5 206.2,413.5 208.9,414.4 211.7,415.1 214.4,416.2 216.8,417.0 219.1,417.8 221.6,418.5 223.8,420.0 227.8,420.3 229.4,420.9 231.0,421.5 232.2,421.8 233.0,422.6 233.2,422.7 232.3,423.2 231.1,423.7 229.4,424.5 227.4,425.2 225.1,426.2 222.5,427.0 219.6,428.1 216.6,429.0 213.4,430.0 210.5,430.9 207.7,432.0 205.4,432.9 203.5,433.4 202.0,433.8 200.8,434.3 200.1,434.6 199.6,434.8 199.3" style="fill:none;stroke:#ffffff;stroke-width:2"/>
<polyline points="423.9 536.4,425.2 537.8,425.9 539.1,427.5 542.5,428.4 543.9,429.1 545.5,430.2 547.0,431.0 548.8,431.8 550.3,432.5 552.0,433.3 553.6,434.9 556.8,435.6 558.1,436.2 559.4,436.8 560.1,437.1 561.0,437.4 561.7,437.6 562.4,437.9 562.9,438.1 563.2,438.6 562.8,438.8 562.4,439.2 561.6,439.4 560.7,439.9 559.6,440.4 558.2,441.2 556.5,442.2 554.5,443.0 552.3,444.1 549.6,444.9 547.0,445.8 544.7,446.5 542.7,447.0 541.0,447.5 539.6,447.9 538.8,448.1 538.2,448.6 537.6,449.1 537.5" style="fill:none;stroke:#ffffff;stroke-width:2"/>
<polyline points="270.6 337.2,270.6 335.8,270.9 332.8,271.3 332.2,271.8 331.6,272.3 331.0,272.9 330.6,273.5 330.1,274.1 329.8,274.5 329.6,275.0 329.4,275.6 329.4,275.9 329.6,276.2 329.9,276.6 330.7,276.8 331.6,277.0 333.0,277.1 334.5,277.1 335.9,277.2 338.5,277.2 343.7,277.5 344.6,277.9 346.0,278.7 347.1,280.3 348.9,281.3 349.3,282.2 350.0,283.3 350.4,284.5 350.6,285.8 350.8,287.0 350.9,288.0 350.7,289.2 350.4,290.4 349.9,291.7 349.4,293.0 348.8,294.0 348.2,294.9 347.9,295.7 347.4,296.2 347.1,296.6 346.9" style="fill:none;stroke:#ffff00;stroke-width:2"/>
<polyline points="267.3 371.8,269.9 370.5,273.9 369.2,276.7 368.3,278.5 368.2,281.3 367.5,282.8 367.2,284.7 366.9,286.6 366.5,288.5 366.3,290.2 365.9,292.0 365.6,295.0 365.4,296.0 365.3,296.9 365.3,297.7 365.2,298.6 365.2" style="fill:none;stroke:#ffff00;stroke-width:2"/>
<polyline points="319.3 322.5,319.9 324.5,320.6 327.2,321.2 333.2,321.1 333.9,321.2 336.5,321.2 339.4,321.2 345.2,321.5 350.3,321.6 352.1,321.7 353.9,322.1 355.2,322.2 356.4,322.4 357.1,322.4 357.5" style="fill:none;stroke:#ffff00;stroke-width:2"/>
<polyline points="341.2 347.8,341.2 355.2,340.6 361.2,340.4 362.1,340.0 364.0,339.7 365.9,339.0 368.4,338.7 369.7" style="fill:none;stroke:#ffff00;stroke-width:2"/>
<polyline points="369.2 321.9,369.2 320.5,367.9 320.5,366.6 321.9,366.5 322.2,365.7 323.9,365.1 325.3,363.8 328.1,363.2 328.9,362.5 330.3,362.1 331.6,361.5 332.9,361.2 334.2,361.0 335.5,360.9 336.8,360.8 339.6,360.7 342.0,360.6 346.8,360.9 351.1,361.0 352.6,361.4 354.2,361.8 355.5,362.3 356.5,362.9 357.2,363.5 357.6,364.1 357.9,364.8 358.1,365.1 358.2,366.0 357.4,366.4 356.6,366.7 355.3,367.1 353.8,367.4 352.4,367.6 351.0,367.7 349.9,367.5 348.9,367.1 348.1,366.7 347.3,366.1 346.8,365.6 346.5,365.0 346.3,364.3 346.1,363.7 346.0,363.3 346.2,362.8 346.6,362.5 347.1,362.3 347.9,362.2 349.1" style="fill:none;stroke:#ffff00;stroke-width:2"/>
<polyline points="387.2 324.5,387.2 326.5,386.6 327.8,386.6 329.2,386.3 329.5,385.9 330.1,385.7 330.8,385.5 331.1,386.0 331.4,386.4 331.5,387.0 331.3,387.6 331.0,388.2 330.6,388.8 330.1,389.4 329.8,390.1 329.6,391.0 329.7,391.8 330.3,392.5 331.4,393.3 332.8,394.0 334.4,394.7 336.2,395.1 338.3,395.3 340.3,395.5 342.5,395.6 344.7,395.5 346.5,395.1 348.1,394.7 349.7,393.8 350.9,393.2 352.2,392.5 353.2,391.5 354.1,390.7 355.0,389.9 355.5,389.5 356.1,388.9 356.4,388.6 356.7" style="fill:none;stroke:#ffff00;stroke-width:2"/>
<polyline points="389.2 321.9,393.2 321.2,394.6 321.2,395.2 321.2,396.2 321.2,397.0 320.9,397.8 320.8,398.6 320.7,399.0 320.6,399.9 320.6,400.6 320.3" style="fill:none;stroke:#ffff00;stroke-width:2"/>
<polyline points="413.2 319.2,413.9 320.5,413.9 322.5,414.6 324.5,414.7 324.7,415.2 326.8,415.4 327.8,415.6 329.6,416.0 331.6,416.4 333.9,417.0 336.0,417.5 338.1,418.2 340.2,418.8 341.9,419.4 343.6,420.1 345.1,420.4 346.5,421.0 347.7,421.3 349.0,421.8 350.0,422.0 350.6,422.2 351.3,422.3 351.7,422.7 350.8,423.1 350.0,423.7 348.7,424.2 346.8,425.1 345.0,426.1 342.9,427.3 340.6,429.7 335.3,432.7 328.8,433.8 325.8,435.0 322.7,436.0 320.4,436.6 318.3,437.1 317.1,437.3 315.9,437.5 315.3,438.0 314.5" style="fill:none;stroke:#ffff00;stroke-width:2"/>
<polyline points="495.2 385.2,494.5 383.2,496.5 377.8,497.2 373.8,497.6 372.8,498.8 369.8,499.9 366.1,501.1 361.8,502.3 357.2,503.6 352.6,504.9 348.0,505.9 343.7,506.9 339.4,508.5 331.6,509.4 328.5,510.2 324.3,511.1 320.3,512.8 312.7,514.7 306.1,515.7 303.8,516.7 300.9,517.9 299.0,519.1 296.9,520.3 295.7,521.9 294.6,523.3 293.9,524.7 293.4,526.4 293.1,527.8 292.9,529.6 292.8,531.1 292.7,532.8 292.9,535.2 293.9,537.1 294.8,539.6 296.5,541.5 298.2,542.7 299.2,544.1 300.4,545.5 301.9,546.8 303.6,548.4 305.4,549.9 307.3,551.3 309.2,552.7 311.4,554.1 313.7,555.1 316.2,556.4 318.7,557.6 322.4,558.6 325.8,560.4 332.1,561.0 334.6,561.5 337.7,562.1 340.6,562.5 343.7,563.0 346.6,563.3 349.4,563.5 352.2,563.6 355.8,563.7 361.4,563.8 364.0,563.8 370.3,563.8 376.5,563.6 382.7,563.4 386.6,563.3 394.0,563.3 396.6,563.0 400.0,562.8 403.3,562.7 409.5,562.6 412.0,562.6 419.0,562.5 427.2,562.5 435.4,562.8 442.1,563.5 444.4,564.1 447.3,565.0 449.9,566.1 452.2,567.2 454.2,568.4 455.9,570.8 457.5,572.8 458.5,575.1 459.4,577.6 460.0,580.1 460.4,582.9 460.3,585.6 459.8,588.4 458.8,591.3 457.1,594.1 455.1,596.6 452.9,600.4 449.2,603.2 446.1,605.8 443.1,608.2 440.3,610.1 437.5,612.2 435.0,614.2 432.4,618.3 426.9,620.0 424.2,622.1 420.3,624.7 414.6,626.7 409.3,628.2 404.5,629.8 398.0,630.7 392.8,631.3 388.0,631.7 383.4,632.0 379.0,632.1 374.8,632.0 370.6,631.9 366.5,631.6 362.7,631.5 357.1,631.4 354.1,631.3 348.9,631.3 344.8,631.5 340.9,631.9 337.5,632.6 334.3,633.3 331.3,634.0 328.7,634.6 326.2,635.3 324.0,636.0 321.8,637.9 316.7,639.0 314.7,640.3 312.5,641.5 310.6,642.8 308.9,644.2 307.4,645.5 305.9,646.5 304.7,647.7 303.7,648.7 302.8,649.9 302.0,651.1 301.2,652.3 300.5,653.3 300.1,654.5 299.8,655.7 299.6,656.7 299.5,657.5 299.4,658.6 299.6,659.5 299.7,660.6 300.0,661.5 300.5,662.6 301.0,664.1 301.8,665.1 302.8,666.1 303.9,667.2 305.4,668.1 306.8,669.0 308.4,669.5 309.9,670.1 311.3,670.7 313.0,671.4 314.7,672.0 316.6,672.9 319.6,673.7 322.0,674.2 324.6,674.8 326.9,675.1 328.9,675.6 331.2,675.9 333.3,676.4 335.4,676.6 337.8,676.8 340.2,676.9 343.0,677.0 347.1,677.1 355.3,676.8 362.3,676.7 368.5,676.6 371.1,676.3 374.3,676.1 377.2,676.0 380.1,676.0 382.8,675.9 388.6,675.9 391.3,675.8 398.3,675.8 405.5,675.8 412.7,676.1 419.7,676.6 427.0,677.0 430.0,678.1 434.7,679.2 438.0,680.1 441.0,681.0 443.3,682.0 445.4,682.9 446.9,684.0 448.1,684.9 448.9,686.0 449.7,688.0 450.2,689.8 450.5,691.7 450.7,693.7 450.6,695.4 450.0,697.2 448.9,699.1 447.2,700.8 445.2,702.6 442.7,704.2 440.2,705.5 437.6,706.5 435.3,707.4 433.4,708.3 431.9,708.8 430.7,709.4 429.7,709.8 428.8,710.0 428.0,710.4 426.9,710.9 425.5,711.8 422.2,712.2 420.3,712.8 417.9,713.7 414.9,715.2 410.3,715.8 408.6,716.2 406.4,716.8 404.3,717.1 402.2,717.6 399.9,718.8 394.6,719.3 392.6,720.0 389.9,720.4 387.5,720.9 385.2,721.2 383.3,721.7 381.6,721.9 380.3,722.1 378.9,722.5 377.9,722.7 376.9,723.1 376.1,723.4 374.7,723.8 373.4,724.3 372.1,724.8 370.8,725.7 369.2,726.7 367.8,727.9 366.6,728.8 365.7,729.9 365.1,730.8 364.4,731.9 363.7,732.8 363.0,733.9 362.4,735.4 361.7,736.7 361.3,737.8 361.0,738.5 360.9,739.2 360.7,739.9 360.9,740.6 361.6,741.3 362.7,741.7 364.1,741.9 365.7,742.4 367.5,742.6 370.7,743.1 373.5,743.3 375.9,743.5 378.6,743.9 380.9,744.3 383.1,744.6 384.7,745.1 386.3,745.6 387.2,746.1 388.2,746.5 388.7,747.0 389.1,747.5 389.3,748.1 389.5,748.4 389.6,749.0 389.7,749.5 389.4,750.1 389.1,750.7 388.6,751.4 388.4,751.7 387.9,752.5 387.1,753.2 386.1,753.9 385.0,754.6 383.9,755.3 382.4,755.9 380.7,756.3 379.2,756.9 377.5,758.1 374.1,758.3 372.8,758.9 371.3,759.2 370.1,759.7 369.1,759.9 368.4,760.4 367.7,760.6 367.3,761.1 367.1,761.6 367.4,762.2 368.1,763.0 370.1,763.8 371.9,764.5 373.8,765.2 375.7,765.9 377.7,766.6 379.4,767.3 380.7,767.9 382.1,768.6 383.1,769.3 384.4,770.5 385.9,771.7 387.0,772.7 388.0,773.8 388.9,774.7 389.7,775.6 390.2,776.4 390.8,776.8 391.1,777.4 391.3,777.8 391.5,778.3 390.8,778.8 390.2,779.4 389.3,779.8 388.3,780.3 387.1,780.6 385.6,781.3 384.0,782.0 382.2,782.9 380.4,784.0 378.5,785.1 376.9,786.3 375.3,787.6 374.1,788.6 373.4,789.5 372.8,790.3 372.5,790.8 372.3,791.1 372.1,791.3 372.9,791.5 374.3,791.6 375.5,791.9 376.9,792.1 377.9,792.2 379.1,792.3 380.3,792.4 381.3,792.7 382.2,792.8 383.3,792.9 384.2,793.3 385.3,793.7 386.4,794.2 387.7,794.5 389.2,795.0 390.6,795.5 392.0,796.1 393.1,796.7 394.0,797.4 394.6,797.7 395.0,798.0 395.3,798.4 395.5,798.9 395.6,799.5 394.8,800.4 393.4,800.8 392.7,801.7 390.8,802.2 389.8,802.8 388.3,803.4 387.0,804.0 385.6,804.7 384.2,805.3 383.2,806.0 382.2,806.3 381.1,807.2 380.2,808.1 379.1,809.2 378.2,810.1 377.3,811.2 376.6,812.4 375.8,813.3 375.1,814.5 374.4,815.4 374.0,816.3 373.7,816.8 373.5,817.1 373.4,817.6 373.3,818.2 373.3,818.5 373.5,819.0 374.2,819.2 374.8,819.7 375.7,820.5 377.8,821.2 380.0,821.6 382.1,822.2 383.9,822.8 385.8,823.4 387.4,824.0 389.0,824.6 390.2,825.0 391.2,825.6 391.9,825.8 392.3,826.0 392.6,826.5 392.8,827.0 392.3,827.5 391.6,827.8 390.7,828.3 389.4,828.8 388.1,829.4 386.2,830.3 384.4,831.1 382.8,832.1 381.0,832.9 379.7,834.0 378.3,834.8 377.2,835.6 376.2,836.1 375.7,836.7 375.0,837.1 374.6,837.7 374.2,838.2 374.4,838.8 374.7,839.4 375.4,840.0 376.3,840.7 377.4,841.3 378.8,842.0 380.1,842.6 381.7,843.6 383.5,844.3 385.0,845.1 386.2,845.8 387.5,846.5 388.5,847.2 389.5,847.9 390.0,848.3 390.7,848.8 391.3,849.1 392.0,849.6 392.4,850.2 392.9,850.5 393.2,851.3 393.7,852.5 394.2,853.4 394.5,854.5 394.7,855.4 394.9,856.5 395.0,857.4 395.0,858.5 394.8,859.7 394.1,861.2 393.0,864.0 390.2,866.5 387.7,869.4 384.8,872.7 381.8,876.0 378.7,879.6 375.5,883.0 372.2,886.4 368.4,889.2 364.6,892.0 360.4,894.5 355.8,896.9 351.0,899.1 346.3,901.0 341.6,902.9 337.1,904.6 333.1,906.2 329.6,907.4 326.4,908.5 323.9,909.4 321.8,910.3 319.3,910.5 318.8,910.7 318.3,910.8 317.6,911.2 317.0,911.4 316.3,911.8 315.4,912.0 314.6,912.4 313.6,912.9 312.8,913.5 312.2,914.1 311.6,914.4 311.3,915.1 310.8,915.5 310.8,916.1 310.7,916.4 310.9,917.5 311.7,918.0 311.9,918.6 312.4,919.6 313.5,920.3 314.3,921.1 315.4,921.8 316.2,922.5 317.3,922.9 318.5,923.2 319.7,923.4 321.2,923.5 322.6,923.9 324.3,924.0 325.8,924.2 328.7,924.5 330.9,924.7 333.2,925.1 335.6,925.3 338.1,925.8 340.4,926.2 342.8,926.8 345.4,927.7 347.7,928.4 350.2,929.1 352.7,930.1 355.3,930.9 357.9,931.7 360.5,932.7 364.3,933.3 367.1,933.9 370.3,934.6 372.9,935.9 378.4,937.2 383.5,937.8 387.2,938.2 390.8,938.8 395.7,939.1 399.7,939.3 403.5,939.5 406.9,939.8 410.1,940.3 413.1,940.6 415.7,941.0 418.1,941.8 420.6,942.5 422.9,943.5 425.4,944.3 427.7,945.3 429.9,946.5 432.0,947.9 434.1,949.6 435.9,953.2 439.4,954.8 440.7,959.7 444.3,961.7 445.8,964.2 447.2,967.0 448.6,968.5 449.4,970.1 450.0,971.7 450.4,973.1 450.6,974.3 450.8,975.2 450.6,976.1 450.3,976.7 449.3,977.3 448.0,977.7 445.6,978.2 442.7,978.5 439.4,978.7 435.9,979.1 432.3,979.6 428.5,979.8 424.9,980.3 421.1,980.6 417.3,980.7 413.1,981.1 409.1,981.3 404.7,981.7 400.0,982.2 395.4,983.1 390.5,984.1 385.7,985.4 380.7,986.7 375.8,988.1 371.3,989.7 367.0,991.4 362.7,993.2 358.3,995.1 353.8,997.0 349.3,999.0 344.7,1001.2 340.0,1004.7 333.7,1007.7 328.6,1010.3 324.1,1013.0 320.3,1015.1 317.1,1016.9 314.6,1018.4 312.8,1019.5 311.3,1021.0 309.8,1021.4 309.5,1022.0 309.4,1022.6 310.2,1023.5 311.3,1024.3 313.1,1025.3 315.1,1026.5 317.0,1027.4 319.0,1028.5 321.0,1029.4 323.0,1030.2 325.0,1031.3 327.0,1032.1 329.0,1032.9 331.2,1033.7 333.6,1034.4 336.4,1035.1 339.4,1035.8 342.7,1036.2 346.3,1036.8 349.7,1037.1 353.7,1037.3 357.6,1037.4 361.8,1037.5 366.4,1037.6 371.0,1037.6 375.9,1037.4 382.1,1037.0 387.1,1036.8 391.6,1036.7 395.7,1036.6 399.5,1036.5 406.5,1036.7 412.9,1037.1 415.8,1037.9 419.2,1039.1 423.7,1040.6 427.2,1043.6 433.3,1044.8 435.6,1046.4 438.0,1048.1 440.0,1051.4 443.5,1052.7 444.4,1054.5 445.7,1056.4 446.6,1058.3 447.2,1060.0 447.6,1062.1 447.9,1064.1 448.1,1066.1 447.7,1068.1 446.7,1070.2 445.3,1072.2 443.5,1073.9 441.1,1075.2 438.4,1076.6 435.2,1077.7 432.1,1078.6 428.6,1079.5 424.9,1080.0 420.9,1080.6 416.9,1081.3 412.6,1081.6 407.9,1082.2 402.8,1082.7 397.3,1083.3 392.0,1084.0 386.4,1084.6 380.6,1085.8 373.1,1087.0 367.1,1088.2 361.7,1089.5 356.5,1091.0 351.8,1092.5 347.3,1093.9 343.2,1095.3 339.7,1098.3 333.0,1099.8 330.2,1102.0 326.9,1105.2 323.1,1107.7 320.4,1109.5 318.4,1111.2 316.8,1112.5 315.9,1113.4 315.2,1114.2 314.7,1114.7 314.5,1115.3 314.3,1115.7 314.1,1116.2 314.0,1117.0 314.5,1118.0 315.3,1118.8 316.8,1119.3 318.7,1120.0 321.4,1120.3 324.2,1120.6 327.5,1120.7 331.0,1120.8 334.7,1120.9 341.7,1121.0 346.2,1121.0 350.3,1121.0 357.9,1121.3 361.1,1121.4 365.3,1121.8 369.3,1122.0 373.6,1122.1 378.0,1122.2 382.5,1122.3 387.4,1122.3 392.4,1122.3 397.2,1122.1 402.0,1122.0 406.4,1121.9 410.7,1121.8 417.8,1122.0 420.3,1122.4 423.2,1123.2 425.8,1124.1 428.2,1126.0 432.2,1127.0 433.9,1128.2 435.8,1129.2 437.1,1130.4 438.3,1131.6 439.3,1132.8 439.9,1134.1 440.3,1135.4 440.3,1136.7 439.8,1137.8 439.3,1138.7 438.8,1139.5 437.9,1140.0 436.9,1140.9 434.6,1141.7 432.4,1142.4 429.7,1143.4 426.8,1144.2 423.8,1145.0 420.7,1145.7 417.5,1146.4 414.5,1147.1 411.9,1147.8 409.2,1148.5 406.8,1149.4 403.7,1151.0 398.8,1151.6 397.2,1152.4 395.0,1154.1 390.8,1155.0 388.8,1156.3 386.5,1157.2 384.4,1158.1 382.8,1158.9 381.6,1159.7 380.2,1160.7 378.6,1161.5 377.4,1162.3 376.1,1163.0 375.1,1163.5 374.5,1164.0 375.0,1164.4 376.4,1164.6 377.9,1165.0 379.6,1165.2 381.4,1165.7 383.2,1165.9 385.1,1166.3 387.1,1166.8 388.7,1167.7 390.3,1168.4 391.8,1169.1 393.0,1169.8 394.0,1170.5 394.8,1171.2 395.4,1171.8 395.7,1172.5 396.0,1173.2 396.2,1173.8 396.3,1174.5 396.3,1175.2 396.4,1175.8 396.1,1176.5 395.8,1177.2 395.3,1177.8 394.7,1178.5 393.9,1179.5 392.9,1180.2 391.8,1181.0 390.3,1182.0 388.9,1182.8 387.6,1183.6 385.9,1184.4 384.5,1185.4 383.1,1186.2 381.1,1186.9 379.8,1187.7 378.6,1188.1 377.6,1188.4 377.0,1188.9 376.4,1189.2 376.0,1189.6 375.4,1189.9 375.1,1190.3 374.9,1190.8 374.8,1191.4 374.7,1192.0 374.6,1192.3 375.1,1192.8 376.2,1193.1 377.3,1193.6 378.7,1193.8 380.3,1194.3 382.1,1194.8 383.7,1195.1 385.4,1195.6 387.0,1196.4 389.3,1197.1 391.1,1197.5 392.8,1198.1 394.3,1198.4 395.5,1198.9 396.3,1199.1 396.8,1199.3 397.1,1199.7 397.1,1200.5 396.3,1201.4 395.4,1202.2 394.3,1203.0 392.9,1203.7 391.5,1204.4 390.2,1205.8 387.5,1207.7 384.1,1209.1 382.3,1210.2 380.7,1211.5 379.2,1212.8 378.1,1213.8 377.3,1214.7 376.5,1215.2 376.1,1216.1 376.4,1216.4 377.0,1216.9 377.8,1217.1 378.8,1217.6 379.9,1217.8 381.1,1218.3 382.3,1218.8 383.3,1219.1 384.5,1219.8 385.7,1220.5 386.7,1221.2 387.5,1221.5 388.3,1222.1 388.8,1222.4 389.2,1222.9 389.4,1223.4 389.5,1224.0 389.6,1224.6 389.7,1225.8 389.5,1226.7 389.1,1227.5 388.9,1228.6 388.8,1229.4 388.7,1230.2 388.6,1231.0 388.6,1231.7 388.5,1232.4 388.2,1233.7 388.1,1235.2 387.7,1237.9 387.3,1240.2 386.7,1242.9 386.2,1245.6 385.8,1247.7 385.3,1249.6 385.1,1251.0 384.6,1252.4 384.3,1253.8 384.2,1255.2 383.8,1256.3 383.6,1257.5 383.4,1258.5 383.3,1259.4 383.0,1259.9 382.8,1260.3 382.7,1260.0 382.4,1259.3 381.9" style="fill:none;stroke:#00ff00;stroke-width:2"/>
<polyline points="509.9 285.9,509.2 283.9,510.5 283.2,511.9 283.2,512.2 282.9,513.4 282.8,514.5 282.7,516.3 282.7,518.1 282.6,520.2 282.6,523.9 283.1,525.8 283.4,528.9 284.1,531.9 285.0" style="fill:none;stroke:#ffff00;stroke-width:2"/>
<polyline points="573.2 293.2,577.8 294.5,579.2 295.2,580.5 295.9,580.8 296.3" style="fill:none;stroke:#ffff00;stroke-width:2"/>
<polyline points="629.8 300.5,629.8 302.0,629.1 301.3" style="fill:none;stroke:#ffff00;stroke-width:2"/>
<polyline points="671.2 292.5,677.8 293.2,679.8 293.2" style="fill:none;stroke:#ffff00;stroke-width:2"/>
<polyline points="713.8 298.5,713.8 300.0,713.1 299.3" style="fill:none;stroke:#ffff00;stroke-width:2"/>
<polyline points="757.8 298.5,765.1 298.5,767.8 298.5,773.8 298.5" style="fill:none;stroke:#ffff00;stroke-width:2"/>
<polyline points="875.8 295.9,882.4 297.9,883.8 298.5,885.8 299.2" style="fill:none;stroke:#ffff00;stroke-width:2"/>
<polyline points="919.8 297.9,926.4 299.9" style="fill:none;stroke:#ffff00;stroke-width:2"/>
<polyline points="955.8 299.2,963.1 299.2,965.1 299.9,967.7 299.9,968.4 300.1,970.5 300.3,973.0 300.3,975.7 300.4,978.9 300.4" style="fill:none;stroke:#ffff00;stroke-width:2"/>
<polyline points="1042.4 297.9,1049.1 297.9,1051.7 298.5,1054.4 299.2,1055.1 299.4" style="fill:none;stroke:#ffff00;stroke-width:2"/>
<polyline points="1115.0 300.5,1115.0 302.0,1114.3 301.3" style="fill:none;stroke:#ffff00;stroke-width:2"/>
<polyline points="1159.0 301.9,1159.0 303.4,1158.3 302.6" style="fill:none;stroke:#ffff00;stroke-width:2"/>
<polyline points="1193.0 303.2,1199.7 303.9,1201.0 303.9,1203.0 303.9,1203.2 303.9,1203.9 303.9" style="fill:none;stroke:#ffff00;stroke-width:2"/>
<polyline points="479.9 461.8,493.4 461.8" style="fill:none;stroke:#ffff00;stroke-width:2"/>
<polyline points="537.2 460.5,544.5 460.5,546.5 460.5,548.5 460.5,549.9 460.7" style="fill:none;stroke:#ffff00;stroke-width:2"/>
<polyline points="584.5 464.5,591.2 465.1,592.5 465.1,593.8 465.1" style="fill:none;stroke:#ffff00;stroke-width:2"/>
<polyline points="619.2 463.8,625.2 463.8,627.2 463.1,628.5 463.1,629.1 463.1" style="fill:none;stroke:#ffff00;stroke-width:2"/>
<polyline points="884.4 455.1,891.8 455.1,893.1 455.1,895.1 455.1,895.6 455.1,897.0 455.1,899.9 455.4" style="fill:none;stroke:#ffff00;stroke-width:2"/>
<polyline points="935.1 459.8,941.1 459.8,945.0 460.1,946.0 460.2,947.1 460.6" style="fill:none;stroke:#ffff00;stroke-width:2"/>
<polyline points="962.4 463.1,969.1 463.8,971.1 463.8" style="fill:none;stroke:#ffff00;stroke-width:2"/>
<polyline points="1016.4 461.8,1023.7 462.5,1026.4 462.5,1029.7 462.5,1030.3 462.5,1032.2 462.5" style="fill:none;stroke:#ffff00;stroke-width:2"/>
<polyline points="1146.4 459.8,1153.7 459.8,1155.7 459.8,1158.4 459.8,1158.8 459.8" style="fill:none;stroke:#ffff00;stroke-width:2"/>
<polyline points="1185.7 458.5,1191.0 458.5,1192.4 458.5,1195.0 459.1,1195.1 459.3" style="fill:none;stroke:#ffff00;stroke-width:2"/>
<polyline points="1221.7 458.5,1228.3 459.8,1229.7 460.5" style="fill:none;stroke:#ffff00;stroke-width:2"/>
<polyline points="1092.4 457.1,1099.7 456.5,1102.4 456.5,1106.6 456.2,1108.8 456.1,1111.4 456.0,1113.9 455.9,1116.2 455.9" style="fill:none;stroke:#ffff00;stroke-width:2"/>
<polyline points="811.1 455.1,833.7 455.1,843.8 455.1" style="fill:none;stroke:#ffff00;stroke-width:2"/>
<polyline points="709.8 455.1,716.5 455.1,721.0 455.4,722.6 455.5,724.8 455.9,727.4 456.1" style="fill:none;stroke:#ffff00;stroke-width:2"/>
<polyline points="773.1 455.8,781.8 455.8,785.1 455.8,788.5 455.8" style="fill:none;stroke:#ffff00;stroke-width:2"/>
<polyline points="825.1 298.5,831.2 298.8,833.0 298.9,835.0 299.3,846.4 301.2" style="fill:none;stroke:#ffff00;stroke-width:2"/>
<polyline points="1235.0 271.9,1235.0 274.5,1234.3 278.5,1234.2 279.3,1234.0 281.1,1233.6 283.1,1232.9 286.2,1232.5 288.3,1231.9 290.3,1231.6 291.7,1231.4 292.9,1231.3 294.0,1230.9 294.6,1230.7 295.3,1230.6 295.7,1230.5 295.1,1230.5 294.7,1230.7 293.9,1231.6 291.1,1232.3 289.6,1233.0 287.5,1234.0 285.5,1235.1 283.4,1236.3 281.4,1237.2 279.7,1238.4 278.4,1239.3 277.3,1240.1 276.3,1240.9 275.7,1241.4 275.3,1241.7 275.1,1242.2 275.5,1242.5 276.1,1242.6 277.6,1242.8 279.4,1242.8 281.6,1242.9 284.7,1242.7 287.2,1242.6 289.3,1242.2 291.1,1242.0 292.5,1241.9 293.4,1241.6 294.3,1241.4 294.8,1241.3 295.2,1241.2 294.5,1241.1 293.5,1241.1 292.1,1241.3 290.3,1242.0 288.5,1242.6 286.6,1243.5 284.9,1244.3 283.3,1245.7 280.7,1246.3 280.2,1247.3 279.4,1247.9 278.9,1248.5 278.5,1249.2 278.3,1249.6 278.5,1250.1 279.0,1250.7 279.9,1251.0 281.1,1251.2 282.6,1251.4 284.3,1251.5 286.1,1251.5 288.5,1251.3 292.7,1251.2 293.1,1251.2 293.8,1251.1 294.3" style="fill:none;stroke:#ffff00;stroke-width:2"/>
<polyline points="1285.7 282.5,1283.7 281.9,1280.3 283.9,1280.0 284.5,1279.1 285.5,1277.5 287.2,1274.8 290.0,1274.2 290.9,1273.3 292.0,1272.7 292.9,1272.4 293.4,1272.1 294.1,1272.0 294.4,1271.9 295.0,1272.1 295.3,1272.7 295.5,1273.3 295.6,1274.2 295.7,1275.2 295.7,1276.4 295.8,1278.4 295.5,1279.2 295.2,1280.1 294.4,1280.9 293.7,1281.6 292.8,1282.4 291.7,1282.8 290.8,1283.4 289.2,1283.7 287.8,1283.9 286.7,1284.0 285.4,1284.1 284.1,1284.2 282.8,1284.3 280.9,1284.0 281.0,1283.9 282.2,1283.8 283.3,1283.8 284.7,1283.7 286.4,1284.3 288.1,1284.8 289.7,1286.5 291.5,1288.1 292.7,1289.9 293.8,1291.7 294.5,1293.6 295.0,1295.6 294.7" style="fill:none;stroke:#ffff00;stroke-width:2"/>
<polyline points="1306.3 277.2,1308.3 282.5,1309.7 284.5,1311.0 287.2,1311.6 287.6,1312.6 289.0,1314.6 291.1,1317.6 294.3,1318.8 295.9" style="fill:none;stroke:#ffff00;stroke-width:2"/>
<polyline points="1331.7 275.2,1325.7 276.5,1324.3 278.5,1323.0 281.9,1322.4 283.0,1321.1 285.7,1319.6 289.0,1317.9 292.7,1315.3 298.5" style="fill:none;stroke:#ffff00;stroke-width:2"/>
<polyline points="1257.7 449.1,1257.0 451.8,1257.0 454.5,1256.3 457.8,1256.4 458.4,1256.1 460.5,1255.7 462.4,1255.5 464.3,1255.0 466.3,1254.8 467.4,1254.5 467.9,1254.5 466.6,1254.7 465.3,1255.1 463.8,1256.1 461.0,1257.2 458.7,1258.3 456.7,1259.3 455.0,1260.4 453.4,1261.3 452.1,1262.4 451.4,1263.0 450.8,1263.8 450.5,1264.4 450.3,1264.8 450.4,1265.7 451.8,1266.4 453.5,1266.8 455.9,1267.1 459.4,1267.3 462.1,1267.4 464.3,1267.6 467.3,1267.6 467.7,1268.2 466.2,1268.7 464.3,1269.6 462.1,1270.6 459.8,1271.7 457.7,1272.9 455.8,1273.9 454.5,1275.0 453.3,1276.2 452.6,1277.2 452.1,1278.1 451.8,1278.9 452.4,1279.6 453.7,1280.4 455.8,1280.8 458.5,1281.1 461.7,1281.3 464.9,1281.4 467.8,1281.5 470.7,1281.9 474.6,1282.3 475.3" style="fill:none;stroke:#ffff00;stroke-width:2"/>
<polyline points="1304.3 455.1,1303.7 463.1,1303.7 466.5,1303.7 472.4,1303.9 477.2,1304.3 477.5" style="fill:none;stroke:#ffff00;stroke-width:2"/>
<polyline points="1314.3 435.8,1314.3 437.3,1313.6 436.5" style="fill:none;stroke:#ffff00;stroke-width:2"/>
<polyline points="1322.3 449.8,1322.3 451.8,1322.3 462.3,1322.3 466.5,1322.6 463.3,1323.0 461.5,1323.5 459.4,1324.0 457.4,1325.2 454.8,1325.8 453.4,1326.5 451.9,1327.1 450.7,1327.8 450.0,1328.5 449.2,1329.1 448.7,1329.8 448.4,1330.7 448.2,1331.8 448.6,1333.3 449.3,1334.9 450.8,1336.6 453.0,1338.7 455.8,1340.4 458.7,1342.1 462.0,1343.3 465.6,1344.3 469.0,1345.0 472.4,1345.4 475.2,1345.7 477.5,1345.9 478.9,1346.1 479.9" style="fill:none;stroke:#ffff00;stroke-width:2"/>
</svg>