<svg version="1.1" xmlns="http://www.w3.org/2000/svg" viewBox="300.8 154.4 1049.5 624.8">
<rect x="300.8" y="154.4" width="1049.5" height="624.8" fill="#202124" />
<polyline points="369.2 498.4,369.2 498.4,521.7 498.5,674.2 498.6,826.7 498.8,979.2 498.9,1131.7 499.0,1322.3 499.1" style="fill:none;stroke:#ffffff;stroke-width:2"/>
<polyline points="487.2 764.3,487.2 764.3,488.1 679.4,488.9 594.6,489.8 509.7,490.6 424.8,491.5 340.0,492.5 233.9" style="fill:none;stroke:#ffffff;stroke-width:2"/>
<polyline points="491.2 231.9,491.2 230.6,490.5 231.9,489.2 233.9,489.1 234.1,488.6 235.1,487.8 236.1,487.1 237.2,486.4 238.7,485.8 240.1,484.8 241.7,484.0 243.2,483.5 244.6,482.9 245.8,482.3 246.7,481.9 247.6,481.4 248.4,481.1 249.5,480.7 250.6,480.4 251.5,479.9 252.3,479.7 253.1,479.3 253.9,479.0 254.3,478.9 254.6,478.8 255.1,478.7 255.6,478.4 256.2,478.2 256.8,478.1 257.7" style="fill:none;stroke:#ffffff;stroke-width:2"/>
<polyline points="491.2 234.6,495.9 235.9,496.4 236.5,498.0 238.1,499.4 239.4,500.5 240.8,501.7 242.2,502.7 243.5,503.6 244.6,504.4 245.5,504.9 246.3,505.5 247.1,506.1 247.9,506.7 248.3,507.4 249.2,508.0 249.6,508.4 250.2,508.7 250.5,509.1 250.8,509.4 251.2,509.8 251.4" style="fill:none;stroke:#ffffff;stroke-width:2"/>
<polyline points="1305.0 476.4,1304.3 475.1,1304.3 476.4,1305.0 477.8,1305.5 477.8,1306.0 478.6,1306.6 479.3,1307.5 479.9,1308.3 480.9,1309.3 481.7,1310.4 482.4,1311.6 483.4,1312.8 484.2,1314.1 485.0,1315.4 486.1,1316.4 486.9,1317.6 488.0,1318.5 488.8,1319.4 489.6,1320.5 490.4,1321.4 491.1,1322.2 491.8,1323.3 492.8,1323.8 493.1,1324.2 493.6,1324.5 493.9,1324.9 494.1,1325.2 494.5,1325.3 494.9,1325.2 495.5,1324.5 496.4,1323.4 497.7,1321.5 500.0,1319.6 502.1,1318.0 504.1,1316.4 505.9,1315.0 507.8,1313.5 509.4,1312.4 511.2,1311.2 513.1,1309.9 515.3,1308.6 517.4,1307.3 519.7,1306.0 522.1,1305.2 523.8,1304.4 524.9,1304.0 525.6,1303.6 526.1,1303.4 526.4" style="fill:none;stroke:#ffffff;stroke-width:2"/>
<polyline points="1287.0 554.4,1287.0 556.4,1286.7 561.7,1286.6 563.4,1286.5 565.5,1286.2 567.8,1285.7 570.5,1285.5 573.4,1285.3 576.4,1285.2 579.3,1285.1 582.1,1285.7 584.5,1286.4 586.9,1287.7 589.1,1289.1 590.7,1290.8 592.2,1292.9 593.2,1295.1 593.8,1297.2 594.2,1299.3 594.2,1302.2 593.2,1304.3 591.9,1305.9 590.1" style="fill:none;stroke:#ffffff;stroke-width:2"/>
<polyline points="1279.0 569.1,1294.1 568.8,1297.1 568.7,1305.7 568.4,1305.4 568.4" style="fill:none;stroke:#ffffff;stroke-width:2"/>
<polyline points="535.9 215.9,535.9 214.6,537.2 213.9,538.5 215.2,538.3 215.6,538.4 216.5,538.7 218.1,539.2 220.0,539.4 222.2,539.8 224.8,540.3 227.6,540.9 231.2,541.5 233.7,542.1 236.1,542.7 237.9,543.4 239.5,543.8 240.8,544.3 242.2,544.6 242.9,545.1 243.8,545.3 244.2,545.5 244.6,545.9 244.8,546.4 244.9,546.9 244.7,547.5 244.7,548.1 244.4,548.7 244.2,549.1 244.1,549.4 243.8,550.1 242.5,551.0 240.7,552.3 238.4,553.6 235.8,555.2 232.6,556.9 229.5,558.4 226.3,559.9 223.3,561.6 220.1,563.1 217.5,564.3 215.0,565.6 212.7,566.6 210.8,567.2 209.4,567.9 208.4,568.3 207.5,568.6 207.0,568.8 206.6" style="fill:none;stroke:#ffffff;stroke-width:2"/>
<polyline points="498.5 496.4,498.5 493.1,498.8 487.9,499.2 486.1,499.7 484.0,501.1 479.1,501.9 476.2,502.8 472.9,504.0 469.0,505.4 464.7,507.9 458.0,510.0 452.3,512.1 446.9,514.5 441.5,516.6 436.3,519.0 431.4,521.5 426.5,523.8 422.0,525.9 417.4,528.6 411.0,531.5 404.0,533.1 400.1,534.8 395.6,536.7 391.4,538.3 387.5,539.8 383.5,541.2 379.6,542.7 375.9,544.9 370.6,546.6 366.6,548.5 362.8,550.4 359.4,552.1 356.2,554.0 353.0,555.6 350.0,557.4 347.1,559.0 344.2,560.5 341.7,561.9 338.8,563.6 336.1,565.4 333.1,567.0 330.3,568.8 327.2,570.6 324.3,572.2 321.5,573.7 319.1,576.6 314.8,577.5 313.4,578.9 311.6,579.9 310.3,580.8 309.2,581.7 308.0,582.4 307.0,583.5 306.1,584.6 305.1,585.8 304.2,586.7 303.4,587.9 302.6,588.8 301.8,589.9 301.1,591.4 300.7,592.7 300.2,594.1 299.6,595.4 298.9,597.3 297.8,598.9 296.9,601.9 295.3,603.1 294.7,605.7 293.2,606.7 292.9,607.8 292.2,609.1 291.9,610.0 291.7,610.9 291.2,612.6 291.0,613.9 290.6,615.3 290.1,616.7 289.8,618.4 289.3,619.8 288.8,621.5 288.5,623.1 288.0,624.8 287.5,626.4 287.2,627.8 287.0,629.0 286.8,630.3 286.7,631.8 286.7,634.9 286.6,635.6 286.6,640.1 286.5,642.8 286.8,644.2 286.9,645.5 287.3,646.8 287.5,647.8 287.6,649.1 288.0,650.0 288.2,651.2 288.3,652.1 288.6,652.9 288.8,653.7 288.9,654.5 289.3,655.5 289.5,656.3 289.9,657.1 290.4,658.1 290.9,658.9 291.5,660.0 291.8,660.9 292.4,661.7 292.9,662.7 293.5,663.6 293.8,664.7 294.3,668.1 296.0,668.8 296.5,670.2 297.3,672.8 298.6,673.9 299.5,675.4 300.3,677.0 301.4,678.5 302.3,680.2 303.3,681.7 304.2,683.5 305.3,685.0 306.5,686.8 307.7,691.7 311.1,695.5 313.8,699.1 316.6,700.8 317.8,702.6 319.3,704.5 320.7,706.1 322.0,707.7 323.7,709.7 325.7,713.4 329.4,716.6 332.3,719.6 334.8,720.8 336.0,722.7 337.4,724.3 338.7,725.8 340.1,728.1 342.3,729.8 344.3,731.8 346.3,735.0 349.9,738.0 353.2,739.4 354.6,741.0 356.5,742.5 358.2,744.5 361.1,746.1 363.5,747.9 366.9,751.1 372.7,752.3 374.7,753.8 377.6,756.6 383.0,757.5 385.3,759.1 388.2,761.1 392.0,762.8 395.5,764.3 398.7,766.1 401.7,767.3 404.6,768.7 407.4,771.4 412.6,774.3 417.3,775.5 419.5,777.9 423.2,781.7 428.8,783.1 431.1,785.1 434.0,787.0 436.8,788.7 439.6,790.3 442.3,792.0 445.0,793.6 447.9,797.1 454.6,798.8 457.4,800.6 460.7,802.8 464.8,806.1 471.6,807.4 474.5,809.3 478.4,810.9 482.3,812.1 486.2,813.4 489.8,816.1 496.9,817.2 499.8,819.2 504.3,820.8 507.8,822.3 511.1,825.5 517.1,826.8 519.8,828.1 522.9,829.4 525.8,830.8 528.9,831.8 532.1,833.0 535.4,834.8 540.0,836.1 543.6,837.4 547.0,838.7 550.1,839.8 553.1,841.0 555.9,842.0 558.7,843.1 561.5,844.1 564.2,845.2 566.6,846.1 569.2,847.2 571.8,848.1 574.4,849.2 577.1,850.1 579.7,851.2 582.4,852.4 584.7,853.6 587.3,854.6 589.8,855.8 592.4,857.0 595.1,858.2 597.7,861.1 604.1,863.8 610.1,865.0 612.5,866.5 615.9,867.9 618.9,869.6 622.1,871.1 625.1,872.8 628.2,874.6 631.1,876.5 633.9,878.9 637.9,882.0 641.9,884.2 645.3,886.1 648.6,887.9 651.6,889.8 654.8,891.4 657.7,893.0 660.3,894.4 663.0,896.2 665.6,899.9 671.7,901.5 673.8,903.3 676.4,906.7 681.0,909.6 684.8,911.1 686.2,912.8 688.2,914.6 689.9,917.0 692.0,919.2 694.1,923.0 697.4,924.6 698.9,926.5 700.6,928.4 702.5,930.3 704.1,932.3 705.6,934.3 707.1,936.2 708.5,938.2 709.9,940.2 710.9,942.2 712.2,943.9 713.4,945.8 714.4,947.7 715.3,949.7 716.2,951.3 716.9,953.2 717.7,954.8 718.4,956.3 719.1,958.1 719.8,959.6 720.5,961.4 721.1,963.2 721.8,964.8 722.2,966.6 722.7,968.5 723.0,970.4 723.2,972.3 723.4,974.3 723.5,976.2 723.5,979.8 723.6,982.0 723.9,984.3 724.0,987.9 724.2,989.5 724.2,994.1 724.3,995.2 724.0,997.1 723.6,998.8 723.1,1002.2 722.0,1003.4 721.5,1006.7 720.2,1008.0 719.6,1009.6 718.6,1013.2 716.7,1014.5 715.4,1016.2 714.1,1018.0 712.7,1019.8 711.1,1021.7 709.7,1023.6 708.2,1025.3 706.6,1028.0 704.5,1030.0 702.8,1032.1 701.2,1034.1 699.7,1035.8 698.3,1037.7 696.9,1039.7 695.2,1041.6 693.7,1043.6 692.0,1045.6 690.2,1047.5 688.3,1050.4 685.6,1055.3 681.0,1059.8 676.7,1062.1 674.8,1064.9 672.1,1069.9 667.7,1072.1 665.9,1075.4 662.8,1078.1 660.6,1080.3 658.4,1082.5 656.2,1086.0 652.4,1087.3 650.8,1090.4 646.4,1091.6 644.3,1093.4 641.6,1094.9 639.0,1096.4 636.7,1099.2 632.3,1100.1 630.5,1101.4 628.5,1102.5 626.6,1103.6 624.6,1104.6 622.6,1105.5 620.6,1106.5 618.6,1107.4 616.6,1108.8 614.3,1110.6 610.2,1112.7 606.8,1114.8 603.3,1117.1 599.8,1119.2 596.4,1121.3 593.4,1123.4 590.4,1125.1 587.8,1127.0 585.1,1128.7 582.8,1130.2 580.2,1132.6 575.9,1135.5 570.1,1139.0 563.1,1140.9 559.5,1143.2 555.2,1145.3 551.1,1147.3 547.3,1149.1 543.9,1150.7 541.3,1152.0 539.2,1152.8 537.3,1153.6 535.5,1154.8 532.2,1155.5 530.6,1156.3 528.3,1157.0 526.2,1158.0 523.8,1158.9 521.7,1159.6 519.6,1160.6 517.8,1161.5 516.1,1162.3 514.3,1163.0 512.7,1163.5 511.2,1164.0 509.7,1164.6 508.0,1165.3 506.5,1165.9 505.3,1166.3 504.0,1166.8 503.0,1167.4 502.1,1167.7 501.3,1167.9 500.8,1168.1 500.4,1168.2 499.9,1168.5 499.7,1168.7 498.9,1168.8 498.3,1168.9 497.6,1169.2 496.9,1169.4 496.6,1169.5 496.0,1169.8 495.4,1170.0 494.6" style="fill:none;stroke:#00ff00;stroke-width:2"/>
<polyline points="705.1 209.9,705.1 207.9,704.5 210.6,703.2 212.6,702.5 213.6,700.7 216.9,698.9 219.9,697.1 222.8,695.2 225.6,693.5 228.3,692.0 230.8,689.3 235.0,688.6 236.4,687.9 237.8,686.8 239.3,685.7 241.8,684.6 244.0,683.3 246.1,682.3 248.2,681.2 249.9,680.2 251.6,679.4 252.5,678.9 253.2,678.5 253.7,678.3 254.0" style="fill:none;stroke:#00ff00;stroke-width:2"/>
<polyline points="669.2 240.6,669.2 242.6,669.2 254.9,669.2 261.9,669.4 264.2,669.6 265.4,669.9 266.5,670.4 267.2,670.9 267.6,671.5 267.9,672.1 268.1,672.7 268.3,673.4 268.4,674.0 268.4,675.2 268.2,676.4 267.8,677.4 267.3,678.2 266.8,679.3 266.2,680.2 265.6,680.7 265.3,681.4 265.0,681.7 264.9,682.3 264.8,682.8 264.7,683.4 264.6,684.1 264.3,685.0 264.2,686.3 263.8,687.8 263.1,689.3 262.1" style="fill:none;stroke:#00ff00;stroke-width:2"/>
<polyline points="734.5 169.9,734.5 171.9,734.2 180.2,734.1 181.3,734.0 182.4,734.7 183.1,736.7 181.6,737.7 181.1,738.9 180.7,740.5 180.2,742.2 179.9,743.7 179.7,745.5 179.5,747.0 179.4,748.5 179.4,749.9 179.6,751.0 180.0,752.3 180.7,753.3 181.7,754.2 182.7,754.7 183.9,755.1 185.1,755.3 186.6,755.5 188.0,755.3 189.7,755.0 191.2,753.7 193.2,752.5 194.9,751.6 196.1,750.4 197.5,749.2 198.6,748.0 199.5,747.0 200.4,745.8 201.1,744.9 201.9,744.3 202.6,743.6 203.0,742.7 203.6,741.9 204.2,741.2 204.5,740.4 205.1,739.7 205.3,739.0 205.5,738.6 205.6,738.1 205.7,737.8 205.5,737.6 203.2" style="fill:none;stroke:#00ff00;stroke-width:2"/>
<polyline points="739.8 171.3,741.8 170.6,745.8 169.9,746.6 169.7,748.4 169.5,750.4 169.4,752.3 169.4,754.6 169.3,759.8 169.3,763.6 169.3" style="fill:none;stroke:#00ff00;stroke-width:2"/>
<polyline points="779.8 175.3,776.5 177.9,775.8 179.9,775.1 181.2,774.0 184.4,773.4 185.9,772.8 187.9,772.5 189.8,772.3 191.8,772.1 193.7,772.0 196.0,771.9 198.1,772.2 199.9,772.8 201.6,773.7 203.1,775.3 204.6,776.6 205.4,778.0 206.0,779.4 206.4,781.0 206.7,782.5 206.3,783.9 205.6,785.6 204.5,787.1 203.0,788.2 201.7,789.3 200.3,790.1 199.0,791.0 197.9,791.5 196.7,791.8 195.4,792.0 194.2,792.2 192.6,792.3 190.9,792.3 189.1,791.8 187.5,790.5 184.5,789.6 183.3,787.6 181.6,786.0 180.6,783.1 179.1,782.2 178.8,781.1 178.5,780.2 178.3,779.3 178.5,778.8 179.1,778.2 180.2,777.6 181.3" style="fill:none;stroke:#00ff00;stroke-width:2"/>
<polyline points="814.5 173.9,814.5 179.3,813.8 181.2,813.8 183.9,813.5 184.6,813.1 187.0,812.3 189.8,812.0 191.3,811.7 193.5,811.2 195.6,810.7 197.6,810.1 199.4,809.8 200.7,809.6 201.8,809.4 202.5,809.5 202.4,809.9 201.4,810.6 200.1,811.6 198.5,812.6 196.6,814.1 194.7,815.7 192.7,817.4 190.5,819.5 188.1,822.7 184.8,825.1 181.9,827.5 179.3,829.7 177.2,831.3 175.6,834.0 173.2,832.9 174.2" style="fill:none;stroke:#00ff00;stroke-width:2"/>
<polyline points="814.5 173.9,814.5 175.4,813.7 174.7" style="fill:none;stroke:#00ff00;stroke-width:2"/>
<polyline points="815.8 185.9,815.8 187.9,816.5 190.6,817.8 193.2,817.8 194.2,818.4 196.1,819.2 198.2,820.1 201.4,820.9 203.6,821.4 205.6,822.1 207.1,822.4 208.0,822.9 208.6,823.2 209.1,823.7 209.1,824.2 208.3" style="fill:none;stroke:#00ff00;stroke-width:2"/>
<polyline points="843.1 173.9,843.8 178.6,843.8 181.2,843.5 188.4,843.1 191.5,842.6 194.2,842.3 197.0,841.9 199.4,841.6 201.7,841.5 203.7,841.3 205.1,841.3 206.0" style="fill:none;stroke:#00ff00;stroke-width:2"/>
<polyline points="859.8 170.6,859.1 177.9,859.1 179.9,859.1 189.7,858.8 191.3,858.4 194.5,857.9 197.1,857.4 199.8,856.8 201.9,856.5 203.8,856.2 205.5,856.1 206.8,856.0 207.6" style="fill:none;stroke:#00ff00;stroke-width:2"/>
<polyline points="845.1 189.9,847.8 189.9,849.8 189.2,851.8 188.6,852.6 188.7,854.0 188.6,855.4 188.6" style="fill:none;stroke:#00ff00;stroke-width:2"/>
<polyline points="867.8 206.6,868.4 205.2,869.8 201.9,871.8 197.9,872.0 196.9,872.7 195.3,873.0 193.9,873.3 192.4,873.4 191.3,873.6 190.1,873.3 188.8,872.7 188.1,872.4 187.6,872.2 187.3,871.8 187.0,872.4 186.9,872.9 187.1,873.5 187.1,874.1 187.2,874.4 187.5,875.2 187.9,875.6 188.1,876.2 188.5,876.7 189.1,877.1 189.6,877.6 190.2,878.1 190.8,878.7 191.2,879.4 191.7,880.0 192.0,880.9 192.5,881.7 192.7,882.4 192.9,883.1 193.0,883.6 193.1,884.1 193.1,884.7 193.2,885.1 193.2,885.6 193.2,885.9 193.5,886.0 194.5,885.9 195.5,885.6 196.6,884.9 198.1,884.0 199.5,883.2 201.1,882.2 202.8,881.0 204.7,879.9 206.3,878.6 207.5,877.6 208.6,876.7 209.5,875.9 209.9,876.3 209.0,876.3 208.4,876.6 207.7,877.1 207.1,877.3 206.7,877.7 206.1,878.2 205.9,878.5 205.6,879.0 205.5,879.5 205.4,880.1 205.4,881.0 205.3,881.7 205.6,882.5 206.0,883.2 206.7,884.1 208.8,884.9 210.6,885.7 212.8,886.2 215.1,886.5 217.6,886.7 220.4,886.8 223.1,886.4 225.8,885.9 228.2,885.1 230.4,883.4 234.1,882.7 235.1,881.6 236.3,880.2 237.1,878.0 237.6,876.0 237.9,872.3 236.9,871.3 235.8,870.0 234.6,869.3 233.4,868.8 232.1,868.4 230.8,868.2 229.5,868.1 228.2,869.1 226.3,870.1 224.8,871.5 223.0,873.3 221.4,875.2 219.9,877.4 218.5,879.4 217.4,881.2 216.7,882.5 216.2,883.7 215.9,884.3 215.7,885.1 215.5,885.5 215.4" style="fill:none;stroke:#00ff00;stroke-width:2"/>
<polyline points="471.9 472.4,470.5 471.1,470.5 472.4,471.2 473.8,471.4 474.1,471.6 475.0,471.9 476.3,472.1 477.8,472.3 480.1,472.4 482.7,472.4 485.8,472.5 495.4,472.5 499.6,472.5 504.5,472.8 508.4,472.9 512.0,473.1 516.9,473.1 518.4,473.2 522.6,473.2 523.3,473.2 524.1,473.2 524.1" style="fill:none;stroke:#ff0000;stroke-width:2"/>
<polyline points="471.2 472.4,470.5 471.1,471.9 470.4,473.2 470.4,473.8 469.9,475.1 469.4,476.6 468.5,478.9 467.8,481.5 466.8,487.6 464.8,490.4 464.1,493.8 463.3,501.0 461.8,503.6 461.5,509.1 460.6,511.1 460.4,513.3 459.9,515.1 459.7,516.8 459.5,517.8 459.1,518.8 458.9,519.9 458.7,520.8 458.6,521.7 458.6,522.4 458.5,523.5 458.5,525.7 458.5,527.6 458.2,527.6 458.1,528.3 458.0,528.6 458.2,528.8 458.8,528.9 460.0,529.0 462.8,529.1 468.2,529.1 470.5,529.2 475.9,528.9 480.9,528.7 486.4,528.7 488.8,528.3 493.3,528.2 496.7,528.1 500.2,527.7 506.1,527.4 511.0,527.4 512.7,527.3 516.9,527.2 517.4,527.2 518.3,526.6 518.9,525.8 518.9,525.1 518.7,524.2 518.6,523.1 518.3,521.3 518.1,519.9 517.7,518.2 517.5,516.6 517.4,514.6 517.3,512.7 517.2,510.4 517.2,505.6 517.4,503.4 517.8,500.9 518.3,497.2 518.5,494.2 518.7,491.2 519.1,488.3 519.3,485.5 519.5,483.1 519.6,480.5 519.9,478.1 520.1,476.2 520.5,474.1 520.7,472.4 521.1,470.5 521.9,469.2 522.3,468.0 522.8,467.0 523.1,466.2 523.3,465.6 523.5,465.0 523.9" style="fill:none;stroke:#ff0000;stroke-width:2"/>
<polyline points="907.8 653.0,906.4 653.0,906.4 654.4,906.1 657.3,906.0 658.7,905.7 660.3,905.2 661.7,905.0 663.7,904.5 665.6,904.0 668.1,903.7 672.0,903.5 676.3,903.4 680.1,903.3 683.5,902.9 689.9,902.8 692.7,902.6 696.2,902.3 699.3,901.8 702.6,901.6 705.3,901.2 707.8,900.9 709.8,900.8 711.7,900.4 713.0,900.2 713.9,900.0 714.5,899.9 714.9" style="fill:none;stroke:#ff0000;stroke-width:2"/>
<polyline points="904.4 662.4,904.4 661.0,905.1 659.7,906.4 659.7,906.8 659.4,908.0 659.0,909.1 658.5,910.6 658.3,912.2 657.8,913.7 657.3,916.0 656.7,917.8 656.4,919.4 656.1,921.0 655.7,922.4 655.5,923.9 655.3,925.3 655.0,926.4 654.8,927.6 654.4,928.9 654.1,930.1 653.7,931.4 653.5,932.8 653.1,934.1 652.8,935.4 652.4,936.7 652.2,938.1 652.0,939.1 651.9,940.3 651.8,941.3 651.8,942.2 651.8,943.9 651.7,944.1 651.7,944.5 652.0,944.7 652.4,944.8 652.9,944.9 653.7,945.0 654.7,945.0 656.1,945.0 657.6,945.1 661.5,945.1 666.0,945.1 673.6,945.4 680.4,945.6 686.5,945.6 689.0,945.7 694.8,945.7 699.3,945.7 704.3,945.7 709.0,945.5 712.5,945.1 712.7,944.6 713.3,943.8 713.9,942.8 714.5,941.7 714.9,940.2 715.4,938.6 716.0,936.5 716.3,930.7 717.1,928.4 717.2,925.8 717.4,923.1 717.5,920.5 717.5,915.6 717.6,911.3 717.6,907.1 717.7,903.1 717.7,901.4 717.9" style="fill:none;stroke:#ff0000;stroke-width:2"/>
<polyline points="698.5 304.5,698.5 305.9,698.8 313.4,699.0 316.9,699.0 319.2,699.1 328.0,699.1 329.9,699.1 335.7,699.1 340.2,699.4 341.0,699.5 342.0,699.6 342.6,700.0 343.6,700.2 343.8,700.5 344.0" style="fill:none;stroke:#ff0000;stroke-width:2"/>
<polyline points="702.5 295.9,704.5 296.5,707.1 296.5,709.1 296.8,710.4 296.9,713.0 297.0,715.5 297.1,718.0 297.1,722.9 297.2,724.7 297.4,727.1 297.6,729.2 297.7,731.1 297.7,732.8 297.8,734.0 298.1,735.4 298.2,737.4 298.4,738.1 298.4,738.7 298.7,739.3 298.9,739.7 299.0,740.2 299.1,740.8 299.7,741.1 300.5,741.4 301.8,741.5 303.6,741.6 305.6,741.7 307.9,741.7 310.3,741.8 315.3,741.8 320.3,741.8 327.8,741.8 334.2,742.1 340.3,742.6 345.5,742.7 347.0,742.9 349.0,743.0 352.0,743.1 352.3,743.1 352.8,742.8 353.2,742.4 353.4,741.7 353.5,739.7 353.3,738.6 353.0,737.1 352.8,735.4 352.4,733.6 352.3,731.7 352.1,729.6 351.7,727.2 351.6,724.5 351.4,721.9 351.3,718.9 351.3,713.7 351.2,709.2 351.2,707.4 350.9,705.1 350.5,703.8 350.0,702.9 349.5" style="fill:none;stroke:#ff0000;stroke-width:2"/>
<polyline points="725.1 366.5,725.1 367.8,724.5 369.2,723.8 371.8,723.6 373.4,723.5 375.5,723.1 379.2,722.9 382.2,722.5 384.6,722.3 387.0,722.0 390.2" style="fill:none;stroke:#ff0000;stroke-width:2"/>
<polyline points="720.5 415.8,720.5 421.1,720.8 426.9,721.1 429.8" style="fill:none;stroke:#ff0000;stroke-width:2"/>
<polyline points="722.5 450.5,721.8 456.5,721.8 459.1,721.8 464.6,721.8 465.3,721.8 466.7" style="fill:none;stroke:#ff0000;stroke-width:2"/>
<polyline points="721.8 484.4,719.8 491.1,719.1 493.8,718.5 495.1,718.6 495.7,718.3 496.5,718.1 497.4" style="fill:none;stroke:#ff0000;stroke-width:2"/>
<polyline points="931.1 636.4,931.1 634.4,931.8 632.4,932.4 629.7,932.3 629.3,932.6 627.6,932.8 625.7" style="fill:none;stroke:#ff0000;stroke-width:2"/>
<polyline points="933.8 589.7,933.8 582.4,933.8 581.1" style="fill:none;stroke:#ff0000;stroke-width:2"/>
<polyline points="937.8 557.1,937.8 550.4,937.8 548.4" style="fill:none;stroke:#ff0000;stroke-width:2"/>
<polyline points="939.1 530.4,938.4 525.1,938.4 523.1,939.3 518.4,939.9 516.8,940.6 515.5,941.2 514.4" style="fill:none;stroke:#ff0000;stroke-width:2"/>
<polyline points="1162.4 418.5,1162.4 419.8,1161.7 422.5,1161.0 427.1,1160.9 427.2,1160.7 428.8,1160.6 430.4,1160.5 432.1,1160.5 433.9,1160.4 435.8,1160.4 440.6,1160.4 446.0,1160.4 450.3,1160.4 450.4" style="fill:none;stroke:#00ff00;stroke-width:2"/>
<polyline points="1131.0 413.1,1131.7 414.5,1133.0 415.1,1134.4 415.1,1134.7 415.1,1135.9 415.1,1140.6 415.1,1146.3 415.1,1149.0 414.9,1152.4 414.7,1158.7 414.6,1161.2 414.6,1167.2 414.5,1172.7 414.5,1177.0 414.5,1181.0 414.5,1183.1 414.2,1183.3 414.1,1184.0 414.0,1184.3 413.9,1184.8 413.6,1185.1 412.9" style="fill:none;stroke:#00ff00;stroke-width:2"/>
<polyline points="488.5 565.7,486.5 563.7,485.2 563.1,483.9 563.1,483.5 563.1,482.9 563.4,482.3 563.8,481.7 564.2,481.0 564.8,480.4 565.4,479.7 566.0,479.3 566.6,479.1 567.5,478.9 568.3,478.5 570.2,478.3 571.9,478.2 573.8,478.1 575.7,478.3 577.6,478.9 579.6,479.5 581.3,480.4 583.1,481.7 584.8,483.3 586.3,484.9 587.8,488.1 589.2,490.6 590.0,493.2 590.6,495.6 591.0,497.8 591.2,499.7 591.1,501.4 590.5,503.0 589.7,504.2 588.7,505.3 587.4,506.2 585.8,506.7 583.5,507.1 581.4,507.4 579.7,507.5 577.8,507.6 576.1,507.7 574.3,507.8 572.4,507.8 569.2,507.8 568.0,507.6 565.0,507.2 564.1,506.4 562.4,506.0 562.1,505.5 561.5,504.9 561.1,503.0 560.3,502.0 559.9,500.1 559.6,498.4 559.5,496.2 559.3,492.5 559.2,488.3 559.7,485.2 560.5,482.7 561.5,480.5 562.8,478.7 564.7,477.5 567.1,476.8 569.5,476.2 572.3" style="fill:none;stroke:#00ff00;stroke-width:2"/>
<polyline points="724.5 529.8,723.1 529.8,722.5 531.1,721.8 533.8,721.9 534.2,721.6 536.7,721.5 539.0,721.3 541.4,721.3 544.0,721.2 546.5,720.9 551.4,720.7 555.3,720.6 556.8,720.3 560.0,720.1 560.2,720.0 560.8" style="fill:none;stroke:#ff0000;stroke-width:2"/>
<polyline points="702.5 529.1,707.8 528.4,708.9 528.2,712.2 527.5,716.5 526.6,720.0 526.1,723.0 525.5,725.3 525.1,727.4 524.9,729.2 524.7,730.5 524.6,733.0 524.5,733.2 524.5,734.0 524.5,734.3 524.4" style="fill:none;stroke:#ff0000;stroke-width:2"/>
<polyline points="700.5 593.7,701.2 592.4,702.5 591.7,703.8 590.4,704.4 590.3,705.7 589.5,707.2 588.9,709.2 588.0,711.4 587.2,714.0 586.1,716.6 585.0,719.2 583.8,721.8 582.9,724.5 582.0,729.1 580.4,730.6 579.8,733.8 578.6,735.0 578.2,735.9 577.8,736.8 577.3,737.7 577.0,738.1 576.5,738.5 576.3" style="fill:none;stroke:#ff0000;stroke-width:2"/>
<polyline points="733.8 608.4,734.5 607.1,736.5 604.4,736.8 604.1,737.7 603.4,738.5 603.1,739.2 602.6,739.9 602.0,740.6 601.7,741.3 601.2,741.9 600.9,742.6 600.8,743.0 600.6,743.3 601.4,743.4 602.5,743.6 604.0,743.6 605.9,743.7 607.7,743.5 609.7,743.1 611.6,742.6 613.3,742.3 614.6,741.9 615.7,741.6 616.3,741.5 616.8,741.1 617.1,741.7 617.3,742.5 617.7,743.2 618.5,744.2 619.2,745.0 620.1,746.3 622.3,747.3 624.2,748.2 626.2,748.7 628.2,749.1 630.5,749.3 632.6,749.5 634.7,749.6 636.7,749.4 638.5,748.7 639.8,748.2 641.2,747.0 642.3,745.8 643.3,744.6 644.1,743.6 644.6,742.5 645.0,741.5 645.5,740.7 645.8,740.2 646.0,739.8 646.1,739.3 646.2" style="fill:none;stroke:#ff0000;stroke-width:2"/>
<polyline points="917.1 423.8,917.8 422.5,917.8 421.1,919.1 419.8,919.7 419.2,920.5 418.4,922.1 417.3,922.8 417.2,923.7 416.9,924.4 416.8,925.1 416.7,926.1 417.2,926.6 417.6,927.3 418.5,927.7 420.0,927.9 421.9,928.1 424.1,927.6 426.4,926.9 428.8,926.3 431.4,925.3 433.6,924.3 436.1,923.4 437.8,922.6 439.2,921.8 440.6,921.4 441.7,921.0 442.4,920.8 443.1,920.7 443.6,920.6 444.1,921.1 444.5,921.6 445.0,922.4 445.2,923.4 445.7,924.5 445.9,925.7 446.1,926.6 446.5,927.8 446.7,928.7 446.8,929.3 446.9,929.9 447.0,930.3 447.0,930.9 447.1,931.1 447.4,931.6 447.8,932.4 448.0" style="fill:none;stroke:#ff0000;stroke-width:2"/>
<polyline points="951.1 419.1,951.1 421.1,951.8 425.1,951.6 425.9,951.7 427.7,951.7 429.7,952.0 431.9,952.1 434.3,952.5 436.5,952.7 438.4,952.8 440.0,953.2 441.3,953.4 442.4,953.5 443.1,953.9 443.5,954.0 443.9,954.2 443.2" style="fill:none;stroke:#ff0000;stroke-width:2"/>
<polyline points="943.8 423.1,942.4 423.1,943.8 423.1,948.0 422.9,949.6 422.5,951.3 422.2,953.2 421.5,956.2 420.6,958.6 419.9,960.6 419.4,962.4 418.8,963.8 418.5,964.9 418.3,965.6 418.1,966.1 418.0" style="fill:none;stroke:#ff0000;stroke-width:2"/>
<polyline points="929.8 473.8,933.8 467.1,935.8 465.8,938.3 463.8,939.3 462.8,941.0 461.7,942.7 460.2,944.6 458.9,946.7 457.5,948.8 456.5,954.0 453.9,955.6 453.1,957.6 452.2,960.6 450.8,961.4 450.3,962.2 449.9,962.7 449.7,963.1 449.5" style="fill:none;stroke:#ff0000;stroke-width:2"/>
<polyline points="953.8 467.8,953.8 466.5,954.4 465.1,955.8 463.8,956.1 463.5,956.7 463.1,958.4 462.3,959.0 462.2,959.7 462.1,960.5 462.0,960.9 461.9,961.4 461.9,961.8 462.1,962.0 462.8,962.1 463.7,961.9 464.7,961.6 465.8,961.2 467.0,960.6 468.3,960.1 469.3,959.5 470.1,958.8 471.0,958.2 471.4,957.8 471.8,957.6 472.0,958.3 471.9,958.8 471.8,960.0 472.1,960.5 472.5,960.9 473.0,961.5 473.8,962.1 474.8,962.4 476.2,962.9 477.2,963.2 478.4,963.4 479.9,963.2 481.3,962.9 482.7,962.5 484.0,961.7 485.6,961.0 486.8,960.0 488.1,959.2 489.2,958.5 489.8,957.7 490.5,957.3 490.9,956.7 491.2,956.4 491.4,955.9 491.5,955.6 491.9,955.5 492.3" style="fill:none;stroke:#ff0000;stroke-width:2"/>
<polyline points="1182.4 473.8,1183.0 472.4,1185.7 467.8,1185.7 467.3,1186.5 465.9,1187.2 464.4,1187.8 463.0,1189.7 459.4,1190.0 458.7,1190.6 457.6,1191.3 456.8,1191.6 455.9" style="fill:none;stroke:#00ff00;stroke-width:2"/>
<polyline points="1210.4 428.5,1211.0 423.8,1212.4 422.5,1213.7 421.1" style="fill:none;stroke:#00ff00;stroke-width:2"/>
<polyline points="1228.3 397.1,1228.3 391.2,1229.0 389.2,1229.7 387.8" style="fill:none;stroke:#00ff00;stroke-width:2"/>
<polyline points="1252.3 361.8,1257.0 355.8,1259.0 354.5,1261.0 353.2,1261.2 353.1" style="fill:none;stroke:#00ff00;stroke-width:2"/>
<polyline points="1295.0 324.5,1299.7 319.2,1301.7 316.5,1303.0 315.2" style="fill:none;stroke:#00ff00;stroke-width:2"/>
<polyline points="481.9 533.8,481.2 535.1,479.9 539.1,479.7 539.5,479.0 540.9,478.1 542.4,477.3 544.1,476.3 545.9,475.2 548.4,474.5 550.2,473.8 551.9,473.4 553.5" style="fill:none;stroke:#00ff00;stroke-width:2"/>
<polyline points="467.2 581.7,463.2 587.1,462.5 588.4,461.2 590.4,461.2 590.9" style="fill:none;stroke:#00ff00;stroke-width:2"/>
<polyline points="439.2 630.4,435.2 637.0,433.9 638.4,433.2 639.7,433.1 640.0,432.6 640.9,432.4 642.0,431.9 643.4,431.1 645.2" style="fill:none;stroke:#00ff00;stroke-width:2"/>
<polyline points="415.2 671.7,407.9 679.7,405.2 683.0,401.9 686.3,399.6 688.0,397.1 690.1,394.5 692.1,392.1 694.1" style="fill:none;stroke:#00ff00;stroke-width:2"/>
<polyline points="372.6 703.7,365.2 709.7,363.2 711.0,361.2 713.0,360.5 713.2,359.0 714.5,357.1 715.9" style="fill:none;stroke:#00ff00;stroke-width:2"/>
<polyline points="337.9 735.0,330.6 740.3,329.2 743.0,327.2 745.0,327.3 745.5,326.5 746.6,325.8 747.7" style="fill:none;stroke:#00ff00;stroke-width:2"/>
<polyline points="1133.7 470.4,1133.7 473.1,1133.7 478.8,1133.7 481.1" style="fill:none;stroke:#ff0000;stroke-width:2"/>
<polyline points="1131.0 499.1,1131.0 500.4,1130.8 505.4,1130.6 506.5,1130.3 507.9,1130.1 509.0,1129.7 510.3,1129.5 511.5,1129.3 512.5,1129.0 513.4,1128.8 514.3,1128.6 515.0,1128.5 515.5" style="fill:none;stroke:#ff0000;stroke-width:2"/>
<polyline points="1130.4 529.8,1131.7 530.4,1134.4 531.1,1134.7 531.1,1135.9 531.1,1139.7 531.1" style="fill:none;stroke:#ff0000;stroke-width:2"/>
<polyline points="1160.4 528.4,1163.7 529.8,1165.0 529.8,1166.4 529.8" style="fill:none;stroke:#ff0000;stroke-width:2"/>
<polyline points="1185.7 531.8,1185.7 533.3,1184.9 532.5" style="fill:none;stroke:#ff0000;stroke-width:2"/>
<polyline points="1182.4 535.1,1188.4 523.1,1188.4 521.8,1188.4 518.5,1188.6 518.4,1188.8 517.6" style="fill:none;stroke:#ff0000;stroke-width:2"/>
<polyline points="1190.4 511.8,1190.4 507.8,1190.4 506.4,1190.4 504.4,1190.4 504.2" style="fill:none;stroke:#ff0000;stroke-width:2"/>
<polyline points="1190.4 485.1,1190.4 486.6,1189.6 485.9" style="fill:none;stroke:#ff0000;stroke-width:2"/>
<polyline points="1190.4 489.8,1190.4 491.3,1189.6 490.5" style="fill:none;stroke:#ff0000;stroke-width:2"/>
<polyline points="1175.7 477.8,1175.7 479.3,1174.9 478.5" style="fill:none;stroke:#ff0000;stroke-width:2"/>
<polyline points="1160.4 477.1,1160.4 478.6,1159.6 477.9" style="fill:none;stroke:#ff0000;stroke-width:2"/>
<polyline points="1165.0 477.1,1151.0 477.1,1147.1 477.4,1146.6 477.5,1146.0 477.6,1145.4 477.7,1144.5 477.7" style="fill:none;stroke:#ff0000;stroke-width:2"/>
</svg>