<svg version="1.1" xmlns="http://www.w3.org/2000/svg" viewBox="289.5 132.6 690.4 474.4">
<rect x="289.5" y="132.6" width="690.4" height="474.4" fill="#202124" />
<polyline points="403.9 177.3,403.9 177.3,403.0 244.2,402.2 311.2,401.3 378.1,400.5 445.1,399.6 512.0,398.6 595.7" style="fill:none;stroke:#ffffff;stroke-width:2"/>
<polyline points="305.9 399.8,305.9 399.8,402.5 399.8,499.1 399.8,595.8 399.8,692.4 399.8,789.0 399.8,909.8 399.8" style="fill:none;stroke:#ffffff;stroke-width:2"/>
<polyline points="891.8 390.5,894.4 391.2,895.8 391.2,896.1 391.1,896.7 391.4,897.3 391.5,898.0 391.6,898.6 392.0,899.3 392.1,900.2 392.5,901.0 392.7,901.7 392.9,902.5 393.2,903.2 393.4,903.9 393.6,904.3 393.9,904.8 394.1,905.4 394.2,906.0 394.6,906.7 394.8,907.3 395.2,907.9 395.7,908.6 396.2,909.3 396.5,909.6 397.0,909.9 397.5,910.1 398.1,909.9 398.5,909.6 399.0,909.4 399.5,909.0 400.1,908.6 400.7,908.0 401.4,907.2 402.0,906.4 402.7,905.4 403.3,904.3 404.0,903.2 404.6,902.2 405.0,901.1 405.6,899.9 406.7,898.9 407.3,898.0 408.0,896.9 408.6,896.1 409.3,895.5 410.0,894.9 410.6,893.6 411.7,893.0 411.8,892.3 412.3,891.6 412.6" style="fill:none;stroke:#ffffff;stroke-width:2"/>
<polyline points="927.8 400.5,927.8 401.8,927.5 408.9,927.1 413.1,926.9 412.9,926.7 414.1,926.6 415.8,926.5 418.2,926.2 419.3,926.1 420.7,926.0 422.1,925.9 423.1,925.9 424.1,925.8 424.9,925.8 425.7,926.1 426.9,926.5 427.1,926.9 427.3,927.5 427.5,928.1 427.6,928.7 427.7,929.3 427.7,930.0 427.7,930.6 427.8,931.3 427.8,932.6 427.8,933.6 427.5,934.0 427.4" style="fill:none;stroke:#ffffff;stroke-width:2"/>
<polyline points="929.8 409.1,933.8 408.5,934.1 408.6,935.0 408.3,936.3 407.6,938.1 407.2,939.9 406.7,941.5 406.4,943.0 406.2,944.2 406.1" style="fill:none;stroke:#ffffff;stroke-width:2"/>
<polyline points="403.1 177.2,403.1 178.3,402.6 180.0,402.6 181.1,402.6 181.4,402.3 182.1,402.2 183.0,401.9 183.9,401.8 184.9,401.4 185.9,401.0 186.9,400.6 188.0,400.3 189.3,399.9 190.5,399.5 191.7,399.0 193.1,398.7 194.0,398.3 195.1,397.8 196.5,397.4 197.7,396.8 198.4,396.6 199.1,396.1 200.0,395.9 200.7,395.5 201.4" style="fill:none;stroke:#ffffff;stroke-width:2"/>
<polyline points="404.8 178.9,405.3 180.0,406.4 181.1,407.0 182.2,407.1 182.7,407.5 183.1,407.7 183.6,408.0 184.3,408.2 184.9,408.3 185.5,408.4 186.3,408.7 187.0,409.1 187.6,409.3 188.3,409.7 188.8,409.9 189.4,410.0 190.2,410.3 190.9,410.7 191.5,410.9 192.4,411.3 193.3,411.5 194.0,411.6 194.7,412.0 195.3,412.1 196.0,412.5 196.3,412.6 196.8,413.0 197.3,413.2 197.8" style="fill:none;stroke:#ffffff;stroke-width:2"/>
<polyline points="417.4 148.0,418.5 149.2,424.1 154.9,426.8 158.0,426.7 158.1,427.7 159.4,428.5 160.7,429.3 162.1,430.4 163.8,431.3 165.0,432.0 165.8,432.7 166.3,433.1 166.6,433.4 166.9,433.8 167.0,434.5 166.4,435.1 165.5,435.9 164.3,437.0 162.8,438.1 161.0,439.2 159.1,440.3 157.1,441.6 155.0,444.0 151.3,444.7 149.8,445.6 148.2,446.3 147.0,446.8 146.3,447.1 145.5,447.3 145.1,447.7 144.8,447.9 144.4,448.0 143.9" style="fill:none;stroke:#ffffff;stroke-width:2"/>
<polyline points="343.7 389.4,343.5 388.3,343.9 386.6,344.6 384.9,344.6 384.5,344.8 383.7,345.0 382.9,345.7 380.2,345.8 379.5,346.1 378.5,346.3 377.5,346.7 375.5,346.9 374.7,347.1 373.6,347.4 372.5,347.7 371.5,348.2 369.9,349.1 367.1,349.5 365.8,351.3 361.4,351.9 360.1,353.3 356.7,353.9 355.5,354.8 353.4,356.0 351.1,357.6 347.6,358.3 346.0,359.2 344.1,360.0 342.4,361.6 338.9,363.1 335.6,363.7 334.2,364.5 332.6,365.2 331.2,365.9 329.9,366.4 328.7,367.0 327.4,367.7 326.3,368.3 325.1,370.2 321.4,371.1 319.8,372.9 316.2,374.0 314.2,375.0 312.3,376.0 310.7,376.8 309.1,378.9 305.3,379.5 304.4,380.4 302.9,381.2 301.6,382.2 300.1,384.0 297.4,384.8 296.2,385.8 294.8,386.6 293.5,387.4 292.2,388.3 291.0,389.1 289.8,389.9 288.5,390.8 287.4,391.6 286.3,392.5 285.2,393.8 283.6,394.9 282.4,395.8 281.3,396.7 280.2,397.5 279.3,398.1 278.5,398.7 277.9,399.2 277.3,399.6 276.7,400.0 276.2,400.3 275.8,400.7 275.2,401.1 274.7,401.6 274.3,401.9 273.8,402.4 273.4,402.8 272.9,403.3 272.5,403.9 272.0,404.4 271.6,405.0 271.2,405.8 270.7,406.5 270.2,409.0 268.5,409.6 268.3,410.4 267.7,412.5 266.5,413.1 266.3,414.2 265.7,415.0 265.3,415.8 264.9,416.5 264.5,417.2 264.1,417.8 263.8,418.4 263.4,419.1 263.1,419.9 262.7,421.5 261.8,422.5 261.4,423.5 260.9,427.4 259.1,428.0 258.8,429.2 258.2,430.2 257.8,432.1 257.2,432.8 257.1,434.1 256.8,434.5 256.8,435.9 256.7,436.1 256.7,436.6 256.8,437.0 256.9,437.5 257.0,438.2 257.2,439.5 257.6,439.9 257.7,440.4 257.8,440.9 257.9,441.3 258.1,441.7 258.2,442.1 258.3,442.5 258.5,442.9 258.7,443.2 258.9,444.4 259.4,444.9 259.7,445.5 260.0,446.1 260.3,446.7 260.6,447.2 260.8,447.8 261.1,448.3 261.4,448.9 261.7,449.5 261.9,450.4 262.3,451.1 262.7,451.7 262.9,452.4 263.3,453.0 263.6,453.6 263.9,454.3 264.2,454.8 264.5,455.4 264.9,456.0 265.3,456.7 265.6,457.5 266.2,458.2 266.5,458.8 267.0,459.5 267.4,460.1 267.8,460.7 268.2,461.9 269.2,462.4 269.6,463.0 270.2,463.9 270.9,464.6 271.6,465.4 272.2,466.1 272.8,466.8 273.3,467.8 274.2,468.5 275.0,469.2 275.7,469.9 276.5,470.5 277.2,471.1 278.0,472.0 279.2,474.2 281.9,474.7 282.6,475.6 283.7,476.3 284.7,477.1 285.8,477.9 286.8,478.7 287.8,480.3 290.2,481.0 291.2,481.9 292.5,483.5 294.6,484.2 295.4,485.1 296.6,485.9 297.5,486.7 298.6,487.5 299.5,488.3 300.5,489.0 301.6,489.7 302.6,490.6 304.2,493.1 308.5,493.4 309.4,494.1 310.8,494.7 312.2,496.4 316.5,496.9 317.3,497.5 318.8,497.9 320.0,498.4 321.2,499.1 323.4,499.5 324.3,499.8 325.4,500.2 326.4,500.5 327.5,500.9 328.6,501.2 329.8,501.4 331.1,501.8 332.9,502.5 336.9,503.0 339.4,503.8 342.8,504.2 343.7,504.6 345.0,505.2 346.8,505.8 348.1,506.3 349.4,507.5 352.7,507.9 353.5,508.4 354.7,509.5 357.1,510.6 359.8,511.1 361.0,511.7 362.3,512.3 363.6,512.8 364.8,513.4 366.0,514.0 367.1,514.5 368.3,515.1 369.3,515.6 370.4,516.1 371.5,516.7 372.6,517.4 374.1,518.6 376.3,519.1 377.2,519.7 378.3,520.3 379.3,521.2 381.1,521.6 381.9,522.7 384.2,524.2 387.0,524.6 387.6,525.2 388.6,525.7 389.6,526.7 391.2,527.0 392.0,527.5 393.0,528.1 394.2,528.5 395.3,529.0 396.3,529.3 397.2,529.7 398.0,530.5 399.6,530.9 400.3,531.3 401.1,531.7 401.9,532.8 403.9,534.9 407.7,535.2 408.3,535.9 409.5,536.4 410.5,536.9 411.5,537.4 412.6,538.0 414.1,538.4 415.3,538.9 416.5,539.3 417.6,539.7 418.6,540.1 419.7,540.4 420.8,540.8 421.9,541.2 422.8,541.5 423.8,541.8 424.7,542.1 425.6,542.5 426.4,542.9 427.4,543.3 428.3,543.7 429.2,544.0 430.0,544.4 430.9,544.8 431.9,545.1 432.8,545.7 434.4,546.2 435.9,546.5 436.6,546.8 437.5,547.1 438.3,547.8 440.4,548.0 441.2,548.3 442.2,548.6 443.0,548.8 443.9,549.1 444.7,549.3 445.7,549.5 446.7,549.7 447.7,550.3 450.6,550.9 452.7,551.6 455.6,551.9 456.4,552.2 457.6,552.6 458.7,552.9 459.8,553.4 461.3,553.8 462.7,554.3 463.9,554.6 465.2,555.0 466.5,555.4 467.7,555.8 468.7,556.6 470.8,557.0 471.6,557.9 474.0,558.3 475.1,558.8 476.2,559.2 477.4,559.6 478.4,560.0 479.4,560.4 480.4,560.8 481.3,561.2 482.2,561.6 483.1,562.0 484.0,562.4 484.9,563.0 486.3,563.4 487.4,563.8 488.5,564.3 489.4,564.8 490.3,565.8 492.0,567.2 494.5,567.5 495.3,568.4 496.8,569.0 498.1,569.6 499.3,570.1 500.4,570.7 501.6,571.3 502.7,571.8 503.8,572.3 504.8,572.9 505.8,573.5 506.7,574.1 507.7,574.7 508.6,575.4 509.5,576.1 510.3,576.7 511.2,577.4 512.1,578.1 513.0,579.9 515.6,581.6 518.1,582.4 519.1,583.2 520.3,584.0 521.4,586.3 524.6,586.9 525.2,588.5 527.2,589.1 527.8,589.9 528.7,590.6 529.5,591.3 530.2,592.1 531.0,592.8 531.7,593.6 532.5,594.4 533.3,595.2 534.1,596.0 534.8,596.9 535.6,598.4 537.0,599.1 537.5,602.8 540.5,603.6 541.0,604.9 541.9,606.0 542.7,607.0 543.4,608.1 544.1,610.0 545.1,610.9 545.5,611.9 546.0,612.9 546.4,614.4 546.9,615.6 547.3,616.9 547.7,618.1 548.0,619.2 548.4,620.3 548.7,621.4 548.9,622.6 549.2,624.9 549.7,625.9 549.8,627.5 549.9,628.8 549.9,630.1 550.0,631.2 550.0,632.3 550.0,633.4 549.9,636.2 549.8,636.9 549.8,637.9 549.6,639.0 549.6,639.9 549.4,640.8 549.3,642.8 549.0,643.6 548.8,644.7 548.6,647.7 547.9,648.5 547.7,649.7 547.3,650.9 546.9,652.0 546.6,653.2 546.2,654.4 546.0,655.6 545.6,656.8 545.3,657.9 545.0,658.9 544.7,660.0 544.4,661.9 543.8,662.7 543.6,664.0 543.2,665.0 542.8,666.3 542.3,667.3 541.9,668.2 541.5,669.0 541.1,669.8 540.6,670.5 540.3,671.2 539.9,671.8 539.6,672.4 539.2,672.9 538.9,673.5 538.6,674.1 538.1,674.6 537.7,675.2 537.2,675.8 536.6,676.4 536.1,676.9 535.6,677.5 535.1,678.2 534.6,678.8 534.0,679.4 533.6,680.0 533.0,680.7 532.5,681.3 531.9,682.4 530.9,683.3 529.9,684.3 529.0,685.2 528.1,687.0 526.5,687.7 525.9,689.5 524.3,690.1 523.7,691.2 522.6,694.5 519.2,695.1 518.5,696.1 517.2,697.1 516.0,699.6 512.5,700.1 511.7,700.9 510.5,701.7 508.9,702.4 507.5,703.0 506.2,703.6 505.0,704.1 503.7,704.7 502.6,705.1 501.5,705.6 500.5,706.5 498.6,706.9 497.9,707.8 496.0,708.1 495.1,708.7 493.9,710.8 489.2,711.3 488.3,712.3 486.2,713.0 484.6,714.6 481.1,715.1 480.0,715.8 478.4,717.1 475.8,717.6 474.8,718.3 473.5,719.1 471.8,720.0 470.0,720.6 468.5,721.2 467.3,721.9 466.1,722.4 465.0,724.5 460.9,724.9 460.2,725.5 459.0,726.4 457.4,727.1 456.2,727.9 455.0,729.7 451.8,730.1 451.0,730.8 449.7,731.4 448.5,732.0 447.5,732.5 446.4,734.3 442.3,735.5 439.9,736.0 438.8,736.7 437.4,737.3 436.2,738.0 434.9,740.1 430.9,740.6 429.8,742.5 425.8,742.9 424.9,743.7 423.4,744.3 422.1,745.7 419.4,746.3 418.2,747.1 416.6,747.9 415.2,748.6 413.8,750.5 410.2,750.9 409.3,751.5 408.0,752.0 406.7,752.5 405.4,753.0 404.2,753.6 402.8,754.2 401.3,754.9 399.8,755.6 398.3,756.3 397.0,757.2 395.2,757.8 393.9,758.4 392.7,759.0 391.7,759.4 390.7,759.8 389.8,760.2 388.8,760.7 387.7,761.5 385.9,762.2 384.4,762.9 382.9,763.6 381.5,764.9 378.9,765.4 377.9,766.0 376.7,766.4 375.7,766.8 374.8,767.2 373.9,767.7 372.4,768.2 371.1,768.9 369.2,769.6 367.5,770.2 365.9,770.8 364.4,771.9 361.4,772.3 360.2,772.8 358.7,773.5 356.9,774.6 354.1,775.1 353.0,775.7 351.5,776.4 350.2,777.0 348.7,777.8 347.4,779.3 344.6,779.9 343.4,780.7 342.0,781.5 340.6,782.3 339.3,783.0 337.9,783.8 336.6,784.5 335.2,785.3 333.9,786.1 332.6,786.9 331.3,787.8 329.9,789.5 327.3,790.2 326.2,791.1 324.7,791.9 323.3,792.8 321.9,794.5 319.3,796.8 315.7,799.1 312.1,799.7 311.1,801.5 308.3,803.2 305.9,803.8 304.9,804.7 303.6,806.3 301.6,807.0 300.7,808.0 299.6,809.0 298.5,810.0 297.4,811.0 296.3,813.1 294.2,816.8 290.4,817.5 289.7,818.6 288.5,819.5 287.5,820.9 285.8,822.1 284.4,822.7 283.6,823.5 282.8,824.3 281.8,825.1 281.0,825.9 280.3,826.6 279.5,827.4 278.8,828.1 278.1,830.8 275.6,831.7 274.9,832.9 274.0,833.8 273.2,834.7 272.6,835.4 272.1,836.1 271.7,836.6 271.3,837.1 271.0,837.6 270.8,838.2 270.6,839.0 270.4,839.7 270.2,840.3 270.1,841.0 270.0,841.6 269.9,842.3 269.9,842.9 269.9,843.4 269.9,844.0 269.8,846.1 269.8,847.7 269.7,849.2 269.6,849.8 269.5,850.6 269.5,851.3 269.4,852.0 269.3,852.5 269.3,853.1 269.3,853.7 269.1,854.2 269.1,854.7 269.0,855.2 269.0,856.0 268.9,856.4 268.9,856.8 268.8,857.2 268.8,857.6 268.8,858.1 268.8,859.4 268.8,861.2 268.8,861.6 269.0,862.1 269.0,862.7 269.2,863.7 269.5,864.1 269.7,864.9 270.2,865.5 270.5,866.3 270.9,867.0 271.2,867.8 271.7,869.4 272.6,870.0 273.0,870.8 273.4,871.7 274.0,872.8 274.7,873.6 275.4,874.4 276.1,875.2 276.7,875.9 277.3,876.6 277.9,877.2 278.5,877.9 279.0,879.3 280.2,880.0 280.7,881.1 281.5,881.9 282.3,882.7 283.1,883.7 284.1,884.4 284.9,886.4 287.0,886.7 287.6,887.4 288.4,888.0 289.1,888.6 289.8,889.3 290.7,889.9 291.4,890.4 292.1,890.9 292.9,891.4 293.6,891.9 294.4,892.3 295.2,892.7 295.9,893.3 296.7,895.5 300.1,895.8 300.6,896.4 301.6,896.8 302.5,897.1 303.2,897.4 304.0,897.8 304.7,898.1 305.5,898.6 306.4,899.0 307.2,899.5 308.0,899.8 308.7,900.2 309.4,900.7 310.0,901.1 310.7,901.4 311.4,901.8 312.1,902.2 312.9,902.5 313.6,903.0 314.5,903.5 315.3,904.0 316.1,904.4 316.9,904.8 317.6,905.3 318.4,905.6 319.2,906.0 320.0,907.1 322.3,907.4 323.1,907.8 324.1,908.3 325.0,908.7 325.9,909.2 326.8,909.7 327.7,910.2 328.5,910.8 329.2,911.4 329.9,911.9 330.6,912.4 331.3,912.7 332.0" style="fill:none;stroke:#00ff00;stroke-width:2"/>
<polyline points="443.7 244.6,444.6 243.9,445.6 243.9,450.6 243.9,450.5 243.9,451.3 243.9,453.3 244.0,453.7 244.0,454.3 244.2,454.9 244.2,455.6 244.3,456.2 244.5,456.8 244.6,457.5 244.7,457.8 244.8,458.3 244.9,458.7 245.0,459.1 245.1,459.5 245.2,459.8 245.3,460.2 245.4,460.7 245.6,461.1 245.7,461.5 245.8,461.9 246.0,462.2 246.3,462.6 246.5,463.0 246.7,463.4 246.9,463.8 247.1,464.6 247.6,465.2 247.8,465.9 248.3,466.3 248.5,466.6 248.8,467.0 249.0,467.3 249.3,467.7 249.6,468.1 249.9,468.4 250.3,468.8 250.8,469.1 251.2,469.5 251.8,469.9 252.3,470.2 252.7,470.6 253.1,470.8 253.5,471.1 253.8,471.3 254.1,471.6 254.4,471.9 254.8,472.1 255.1,472.4 255.4,472.7 256.0,473.1 256.4,473.3 256.8,473.6 257.2,473.9 257.6,474.1 257.9,474.4 258.2,474.9 258.8,475.2 259.2,475.6 259.6,476.1 260.2,478.6 262.8,478.9 263.0,479.6 263.6,481.4 265.4,481.8 265.7,482.7 266.5,483.3 267.0,484.0 267.6,484.6 268.1,485.2 268.5,485.7 269.0,486.3 269.4,486.8 269.9,487.3 270.3,487.8 270.8,488.4 271.3,489.0 271.8,489.5 272.4,490.1 273.0,491.3 274.3,491.7 275.0,492.4 275.8,493.6 277.4,494.7 278.8,495.2 279.4,495.9 280.3,497.1 281.8,497.6 282.5,498.1 283.4,498.7 284.1,499.3 284.9,499.8 285.6,500.3 286.4,500.8 287.0,501.7 288.5,502.4 289.3,503.0 290.2,504.5 292.2,504.9 292.7,505.5 293.5,506.0 294.2,506.5 294.8,507.1 295.5,507.6 296.1,508.2 297.0,508.8 297.6,509.3 298.3,509.8 299.0,510.2 299.6,510.6 300.2,511.0 300.8,512.4 303.1,512.9 303.9,513.4 304.9,514.5 306.4,514.9 307.0,515.5 307.7,515.9 308.4,516.4 309.0,516.8 309.6,517.3 310.4,517.7 311.1,518.2 312.0,518.7 312.8,519.2 313.5,519.6 314.3,519.9 315.0,520.3 315.8,521.2 317.3,521.4 318.0,521.8 318.9,522.2 319.6,522.7 320.7,523.1 321.5,523.5 322.4,523.9 323.5,524.6 325.3,524.9 326.1,525.3 327.0,525.6 327.9,525.8 328.8,526.6 331.3,526.9 332.1,527.2 333.1,527.5 334.1,527.8 335.1,528.6 338.5,529.1 340.2,529.5 341.9,529.7 342.6,530.0 343.6,530.1 344.2,530.3 344.9,530.5 345.5,530.7 346.2,531.1 347.4,531.2 348.0,531.3 348.7,531.5 349.3,531.6 350.1,531.8 350.8,532.0 351.4,532.2 352.1,532.4 352.7,532.6 353.4,532.8 354.1,533.1 354.8,533.2 355.6,533.5 356.2,533.8 357.0,534.0 357.8,534.2 358.6,534.4 359.4,534.8 360.4,535.1 361.3,535.4 362.2,535.7 363.0,536.0 363.8,536.2 364.6,536.6 365.4,536.9 366.2,537.1 367.0,537.5 367.9,537.7 368.6,538.2 369.8,538.6 370.8,538.9 371.7,539.3 372.6,539.7 373.5,540.0 374.3,540.4 375.2,540.7 376.0,541.1 376.7,541.5 377.5,541.8 378.4,542.3 379.5,543.2 381.6,543.5 382.4,543.9 383.4,544.3 384.3,544.7 385.2,545.0 386.0,545.4 386.8,545.7 387.6,546.1 388.3,546.5 389.2,546.8 390.1,547.2 390.9,547.4 391.7,547.9 393.2,548.0 393.7,548.3 394.4,548.5 394.9,548.6 395.4,548.8 396.0,548.9 396.4,549.0 396.9,549.1 397.3,549.2 397.8,549.3 398.5,549.5 399.0,549.5 399.4,549.6 399.8,549.7 400.1,549.8 400.5,549.8 400.9,549.9 401.5,550.0 402.2,550.0 402.6,550.1 403.0,550.1 403.5,550.1 404.0,550.1 404.5,550.3 405.6,550.6 405.8,550.9 406.1,551.1 406.3,551.5 406.6,551.7 406.9,552.0 407.1,552.2 407.5,552.4 407.9,552.5 408.3,552.5 408.8" style="fill:none;stroke:#a020f0;stroke-width:2"/>
<polyline points="557.1 420.8,557.1 422.1,557.6 423.5,558.1 425.2,558.3 425.7,558.4 426.2,558.6 426.8,558.9 428.0,559.1 428.6,559.5 429.6,559.8 430.4,560.0 431.0,560.3 431.6,560.5 432.1,560.7 432.5,560.9 432.9,561.0 433.3,561.2 433.7,561.3 434.2,561.7 435.0,562.0 435.7,562.3 436.3,562.6 436.9,562.9 437.4,563.2 437.8,563.5 438.3,563.6 438.6,563.8 439.0,563.9 439.4,564.1 440.0,564.2 440.4,564.2 440.7,564.3 441.1,564.3 441.5,564.4 441.9,564.5 442.3,564.6 442.8,564.7 443.2,564.9 443.5,565.1 443.9" style="fill:none;stroke:#ffff00;stroke-width:2"/>
<polyline points="850.0 259.0,849.3 258.1,848.3 257.5,847.2 257.3,847.0 257.2,846.6 257.1,846.2 257.0,845.8 257.0,845.4 256.8,845.0 256.8,844.6 256.7,844.1 256.7,843.7 256.7,843.3 256.7,842.9 256.7,842.3 256.7,840.2 256.7,839.8 256.8,839.2 256.9,838.7 257.0,838.1 257.0,837.6 257.1,837.0 257.2,836.3 257.2,835.8 257.3,835.2 257.4,834.7 257.5,834.3 257.6,833.7 257.7,833.2 257.8,832.8 257.9,832.3 258.1,831.6 258.3,831.1 258.4,830.7 258.6,830.2 258.7,829.7 258.9,828.6 259.3,827.6 259.6,826.5 259.9,825.9 260.1,825.2 260.3,824.8 260.4,824.4 260.6,824.0 260.8,823.5 261.0,823.1 261.2,822.8 261.4,822.4 261.5,821.9 261.8,821.5 262.0,820.3 262.5,819.9 262.8,819.3 263.0,818.9 263.3,818.5 263.5,818.1 263.7,817.7 264.0,817.3 264.3,816.8 264.7,816.4 265.1,815.8 265.7,815.0 266.5,814.7 266.8,814.4 267.1,813.9 267.7,813.7 268.1,813.5 268.4,813.2 268.7,812.7 269.2,812.4 269.6,812.0 270.0,811.7 270.4,811.3 270.7,811.0 271.0,810.2 271.9,809.4 272.7,809.0 273.0,808.6 273.5,808.2 273.8,807.9 274.1,807.4 274.7" style="fill:none;stroke:#ffff00;stroke-width:2"/>
<polyline points="799.0 286.2,798.0 286.4,796.9 287.2,795.8 288.3,795.7 288.4,795.2 288.8,794.6 289.4,794.2 289.7,793.9 290.1,793.4 290.5,793.0 291.0,792.6 291.5,792.1 292.0,791.4 292.8,790.9 293.4,790.4 294.1,789.9 294.7,789.4 295.2,789.0 295.8,788.5 296.4,788.0 297.0,787.4 297.6,786.9 298.3,786.1 299.3,784.2 301.8,783.8 302.3,782.4 304.0,781.8 304.6,781.0 305.4,780.3 306.2,779.7 306.9,779.1 307.6,778.3 308.8,777.6 309.7,776.9 310.7,776.2 311.6,775.6 312.6,774.9 313.6,773.6 315.4,773.1 316.1,772.5 316.9,771.3 318.7,770.9 319.4,770.4 320.3,769.7 321.4,769.1 322.4,768.6 323.3,768.1 324.2,767.5 325.1,766.5 326.7,766.1 327.6,765.6 328.5,765.3 329.4,764.9 330.2,764.6 331.0,764.2 331.8,763.8 332.7,763.4 333.6,763.1 334.5,762.7 335.4,762.3 336.2,761.9 337.3,761.4 338.6,761.0 339.5,760.5 340.4,760.1 341.3,759.7 342.2,759.1 343.1,758.7 343.9,757.8 345.6,757.2 346.7,756.8 347.6,756.4 348.5,756.0 349.4,755.7 350.1,755.3 351.0,755.0 351.7,754.6 352.5,754.2 353.3,753.4 355.0,751.9 357.9,751.6 358.5,751.1 359.6,750.5 360.6,749.9 361.6,749.4 362.5,748.8 363.5,748.3 364.4,747.9 365.4,747.4 366.3,747.0 367.2,746.6 368.0,745.7 370.1,745.3 370.9,744.9 371.9,744.5 372.7,744.2 373.6,743.8 374.4,743.5 375.2,743.2 376.0,742.9 376.8,742.5 377.8,742.1 378.6,741.1 381.0,740.7 381.8,740.3 382.9,739.7 384.4,739.5 384.9,739.3 385.5,739.1 386.0,738.9 386.5,738.8 387.0,738.5 387.7,738.3 388.2,738.0 388.7,737.8 389.1,737.7 389.5,737.5 389.9,737.3 390.3,737.2 390.7,737.1 391.2,737.0 391.6,736.8 391.9,736.4 392.9,736.3 393.2,736.2 393.6" style="fill:none;stroke:#a020f0;stroke-width:2"/>
<polyline points="734.7 408.0,733.8 408.7,733.2 409.7,731.4 412.8,731.1 413.5,730.7 414.2,730.4 414.8,730.0 415.4,729.7 416.0,729.3 416.6,729.1 417.1,728.7 417.6,728.2 418.5,727.5 419.8,727.0 420.9,726.5 421.9,726.0 423.0,725.5 423.9,725.2 424.8,724.8 425.5,724.6 426.3,724.3 427.0,724.0 427.7,723.6 428.5,723.3 429.2,723.1 429.8,722.8 430.3,722.3 431.1,722.2 431.4,722.0 431.7,721.8 432.0,721.5 432.7,721.2 433.2,720.8 433.8,720.5 434.3,720.2 434.8,719.9 435.2,719.6 435.6,719.4 436.0,719.2 436.3,719.1 436.7,718.8 437.5,718.5 438.2" style="fill:none;stroke:#ffff00;stroke-width:2"/>
<polyline points="571.1 456.7,570.7 457.7,570.7 459.0,570.9 460.3,571.1 460.5,571.3 461.1,571.5 461.6,571.7 462.3,571.9 462.9,572.1 463.7,572.4 464.4,572.9 465.7,573.3 466.8,573.8 467.8,574.1 468.7,574.5 469.7,574.9 470.5,575.2 471.2,575.6 471.9,575.9 472.7,576.3 473.4,576.7 474.4,577.1 475.3,577.4 476.1,577.7 477.0,578.0 477.8,578.3 478.8,578.9 480.6,579.1 481.3,579.5 482.2,580.3 484.3,580.6 484.9,581.0 485.8,581.4 486.5,581.7 487.2,582.0 487.9,582.4 488.6,582.8 489.2,583.2 489.9,583.5 490.5,584.1 491.3,584.4 491.9,584.9 492.4,585.2 492.9,585.5 493.3,585.8 493.7,586.1 494.0,586.4 494.4,586.6 494.7,586.9 495.1,587.2 495.7,587.5 496.5,587.7 497.0,588.0 497.4,588.4 498.3,588.7 498.7,588.9 499.2,589.2 499.6,589.4 500.0,589.6 500.4,589.9 500.8,590.1 501.1,590.3 501.5,590.5 501.9,590.7 502.3,590.9 502.7,591.0 503.1,591.2 503.5,591.4 503.9,591.6 504.3,591.9 505.2,592.3 505.9,592.4 506.2,592.7 506.7,592.9 507.0,593.2 507.4,593.4 507.7,593.8 508.1,594.0 508.4,594.3 508.7,594.5 509.1,594.7 509.4,595.0 509.8,595.2 510.1,595.4 510.4,595.7 510.9,596.0 511.2,596.3 511.7,596.6 512.1,596.8 512.4,597.1 512.9,597.4 513.3,597.7 513.7,598.0 514.1,598.3 514.5,598.6 514.9,598.9 515.4,599.2 515.9,599.5 516.4,599.9 516.8,600.2 517.2,600.6 517.7,601.0 518.0,601.4 518.4,602.4 519.3,602.8 519.8,603.2 520.3,604.0 521.0,604.5 521.7,605.0 522.3,605.5 522.9,606.0 523.4,606.4 523.9,606.8 524.4,607.2 524.8,607.5 525.2,607.9 525.6,608.3 526.1,608.6 526.5,609.0 527.1,609.5 527.6,609.8 528.1,610.2 528.6,610.6 529.0,611.0 529.3,611.4 529.7,612.1 530.3,612.8 530.8,613.2 531.2,613.7 531.6,614.0 532.0,614.4 532.3,614.7 532.6,615.1 532.8,615.5 533.2,615.9 533.4,616.3 533.7,616.7 533.9,617.1 534.2,617.7 534.5,618.8 535.0,619.3 535.1,620.0 535.2,620.7 535.4,621.5 535.5,622.2 535.5,623.0 535.6,623.9 535.6,624.7 535.6,626.6 535.7,628.3 535.8,629.1 535.8,632.5 535.6,633.1 535.6,634.3 535.4,635.3 535.3,636.8 534.9,638.0 534.6,639.1 534.2,640.1 533.7,641.0 533.2,642.0 532.5,643.0 531.9,644.0 531.2,646.7 529.2,647.3 528.8,648.4 528.0,649.3 527.4,650.6 526.5,651.6 525.9,653.8 524.4,654.8 523.7,655.9 522.9,657.1 522.0,659.5 520.3,660.4 519.8,661.5 519.2,662.8 518.5,663.8 518.0,664.8 517.5,665.6 517.0,666.5 516.4,667.3 515.8,668.2 515.3,669.0 514.6,669.9 513.9,670.7 513.2,671.7 512.4,673.0 511.3,674.2 510.5,675.1 509.7,676.0 509.0,676.8 508.2,677.5 507.5,678.2 506.7,678.9 505.9,679.5 505.0,680.3 504.0,681.0 503.1,681.8 502.2,682.7 501.3,683.7 500.5,684.7 499.8,685.7 499.1,686.6 498.4,687.5 497.8,688.2 497.0,689.0 496.2,689.7 495.4,690.3 494.6,691.0 493.8,691.8 492.6,692.6 491.7,693.4 490.4,693.9 489.7,694.5 488.8,695.2 487.9,695.8 487.0,696.4 486.0,697.7 484.0,698.1 483.3,698.7 482.2,699.5 480.9,700.6 478.9,701.0 478.1,702.3 475.4,702.6 474.7,703.0 473.7,703.3 472.8,703.7 471.8,704.2 470.2,704.7 469.0,705.7 466.7,706.5 465.1,706.8 464.6,707.1 464.1,707.4 463.5,707.9 462.6,708.1 462.2,708.5 461.3,708.9 460.5,710.0 458.1,710.3 457.5,710.7 456.7,711.1 455.6,711.2 455.4,711.4 455.0,711.5 454.6,711.7 454.2,711.9 453.6,712.0 453.2,712.1 452.8,712.3 452.5" style="fill:none;stroke:#a020f0;stroke-width:2"/>
<polyline points="771.6 484.5,771.5 485.5,772.0 486.6,772.7 487.4,773.0 487.4,773.6 487.6,774.1 487.8,774.8 488.0,775.5 488.1,776.2 488.3,777.2 488.4,778.0 488.4,778.8 488.5,779.5 488.4,780.1 488.3,780.6 488.1,781.1 487.8,781.5 487.5,781.8 487.2,782.0 486.7,782.2 486.3,782.3 485.7,782.3 485.1,782.2 484.5,782.0 484.0,781.8 483.4,781.5 483.0,781.2 482.5,780.8 481.9,780.3 481.4,779.2 480.4,778.5 479.8,777.7 479.2,776.0 477.9,775.7 477.6,775.2 477.2,774.8 477.0,774.5 476.7,774.3 476.3,774.2 476.0,774.4 475.6,774.7 475.3,775.0 475.1,775.4 474.9,775.9 474.7,776.4 474.6,776.9 474.5,778.0 474.2,778.4 474.1,778.8 474.0,779.2 473.9,779.7 473.9,780.0 474.1,780.3 474.4,780.5 474.6,780.9 474.8" style="fill:none;stroke:#a020f0;stroke-width:2"/>
<polyline points="796.7 474.3,795.3 474.6,794.5 475.5,793.4 476.9,793.4 477.2,793.1 477.7,792.8 478.5,792.5 479.2,792.1 480.6,792.0 480.9,792.0 481.5,791.9 482.0,791.9 482.4,791.9 482.8,791.9 483.2,792.0 483.7,792.1 484.1,792.2 484.5,792.4 484.8,792.7 485.2,793.1 485.4,793.5 485.6,793.8 485.7,794.2 485.8,794.6 485.9,795.0 485.9,795.4 485.9,795.7 485.7,796.1 485.4,796.3 485.2,796.6 484.8,796.8 484.5,797.3 483.8,797.3 483.5,797.6 482.5,797.6 482.0,797.7 480.7,797.7 480.2,797.7 478.8,797.6 478.4,797.6 477.9,797.5 477.5,797.4 477.2,797.3 476.8,797.2 476.4" style="fill:none;stroke:#a020f0;stroke-width:2"/>
<polyline points="797.9 477.6,798.2 479.2,798.4 480.4,798.8 481.4,799.0 481.6,799.3 482.0,799.6 482.3,799.9 482.7,800.3 482.9,800.6 483.1,801.1 483.3,801.9 483.4" style="fill:none;stroke:#a020f0;stroke-width:2"/>
<polyline points="806.9 471.7,807.0 473.8,807.1 475.5,807.4 477.3,807.3 477.5,807.4 478.2,807.5 478.9,807.6 479.7,807.7 480.4,807.8 481.1,807.9 481.6,808.0 482.0,807.9 481.3,807.9 480.8,808.0 478.0,808.1 477.7,808.1 477.1,808.3 476.6,808.5 476.1,808.8 475.7,809.0 475.4,809.3 475.2,809.6 475.0,810.1 474.8,810.6 474.7,811.0 474.7,811.4 474.7,811.8 474.8,812.3 475.1,812.6 475.4,812.9 475.8,813.1 476.3,813.3 476.8,813.5 477.9,813.6 478.4,813.6 478.9,813.6 479.3,813.7 479.7,813.7 479.1,813.7 478.7,813.8 478.2,813.9 477.7,814.0 477.1,814.1 476.5,814.3 475.9,814.6 475.1,814.9 474.4,815.3 473.9,815.6 473.5,816.0 473.1,816.3 472.9,816.7 472.8,817.1 472.8,817.5 472.9,817.9 473.2,818.3 473.7,818.8 474.2,819.3 475.4,819.7 476.5,819.9 477.6,820.2 478.7,820.3 479.8,820.4 480.8,820.4 481.7,820.5 482.4,820.6 482.9,820.7 483.2" style="fill:none;stroke:#a020f0;stroke-width:2"/>
<polyline points="832.2 473.8,832.6 475.0,833.5 477.5,833.8 478.7,833.9 479.0,834.1 479.9,834.4 481.0,834.6 482.3,834.8 483.6,835.0 485.1,835.1 486.7,835.2 488.3,835.3 489.8,835.4 491.3,835.5 492.6,835.5 494.0,835.6 496.1,835.5 496.8,835.4 497.6,835.3 498.1,835.2 498.5,834.9 498.8" style="fill:none;stroke:#a020f0;stroke-width:2"/>
<polyline points="833.8 472.9,834.9 471.7,836.5 471.1,838.4 471.1,838.9 471.3,839.4 471.3,840.0 471.4,840.6 471.6,841.1 471.9,841.6 472.2,842.0 472.6,842.3 473.1,842.5 473.7,842.5 474.3,842.4 475.0,842.0 475.8,841.1 476.9,840.3 477.7,839.4 478.3,838.6 478.8,837.9 479.1,837.2 479.4,836.6 479.5,836.1 479.4,835.7 479.1" style="fill:none;stroke:#a020f0;stroke-width:2"/>
<polyline points="852.9 450.4,852.5 451.6,852.5 453.3,852.5 456.9,852.6 458.4,852.7 460.0,852.7 461.9,852.7 466.0,852.6 468.0,852.4 472.3,852.2 477.3,852.2 478.0,852.1 479.2,852.1 480.1" style="fill:none;stroke:#a020f0;stroke-width:2"/>
<polyline points="862.6 471.7,862.2 473.4,862.2 475.4,862.3 476.9,862.5 477.8,862.7 478.8,862.9 479.8,863.1 480.8,863.4 482.0,863.8 483.5,864.0 483.8,864.2 484.2" style="fill:none;stroke:#a020f0;stroke-width:2"/>
<polyline points="866.5 462.0,866.5 463.5,865.7 462.8" style="fill:none;stroke:#a020f0;stroke-width:2"/>
<polyline points="874.9 471.4,874.8 472.7,874.8 474.6,874.9 475.6,874.9 476.5,875.0 477.6,875.0 478.7,875.0 481.6,875.0 482.0,875.1 481.2,875.2 480.5,875.7 478.6,875.9 477.9,876.8 476.0,877.3 475.5,877.8 474.9,878.4 474.6,879.2 474.4,880.0 474.4,881.0 474.6,882.0 475.0,883.0 475.6,883.9 476.2,884.6 477.0,885.3 478.0,885.7 478.8,886.0 479.5,886.1 480.0" style="fill:none;stroke:#a020f0;stroke-width:2"/>
<polyline points="902.5 471.1,901.1 471.0,899.7 471.4,898.6 472.3,898.4 472.8,897.9 473.5,897.4 474.6,897.1 475.8,897.0 476.9,897.0 477.8,897.3 478.7,897.6 479.4,898.1 480.0,898.7 480.5,899.4 480.9,900.2 481.1,901.0 481.1,901.9 480.9,903.1 480.1,903.7 479.7,904.5 478.9,905.1 478.1,905.7 477.2,906.0 476.2,906.3 475.3,906.4 474.4,906.3 473.7,906.0 473.1,905.6 472.6,905.2 472.4,904.6 472.5,904.1 472.7,903.6 473.2,903.3 473.8,903.1 474.5,903.0 475.2,903.1 476.0,903.3 476.9,903.6 477.9,904.1 478.9,904.7 480.0,905.6 481.8,906.5 483.3,907.2 484.9,907.9 486.4,908.5 488.0,909.0 489.6,909.3 491.1,909.5 492.7,909.7 494.2,909.6 495.7,909.4 497.1,908.8 498.9,908.2 500.3,907.6 501.4,907.0 502.2,906.5 502.7,905.9 503.1,905.4 503.1,904.9 502.9,904.4 502.5,904.0 502.0,903.6 501.4,903.4 500.8,903.2 500.2,903.1 499.7,903.0 499.1,903.0 498.6,903.0 498.0,903.1 497.3,903.2 496.7,903.5 496.0,903.9 495.4,904.3 494.9,904.8 494.3,905.4 493.7,906.2 493.1,907.5 492.2,910.2 490.4,911.4 489.5,913.1 488.4,914.8 487.3,918.3 484.9,919.5 484.0,922.1 482.0" style="fill:none;stroke:#a020f0;stroke-width:2"/>
<polyline points="775.2 517.4,774.2 517.1,773.1 517.3,771.9 518.1,771.7 518.2,771.2 518.5,770.8 518.8,770.5 519.0,770.0 519.5,769.6 519.9,769.1 520.5,768.8 521.3,768.5 522.0,768.4 522.8,768.3 523.6,768.2 524.4,768.2 525.2,768.4 526.1,768.7 526.8,769.1 527.6,769.8 528.4,770.5 529.0,771.2 529.4,771.9 529.6,772.6 529.8,773.4 530.0,774.1 529.9,774.9 529.8,775.6 529.7,776.3 529.5" style="fill:none;stroke:#ffff00;stroke-width:2"/>
<polyline points="784.8 520.7,784.0 522.9,784.0 524.3,784.3 525.7,784.7 526.0,785.1 526.7,785.7 527.2,786.3 527.8,787.2 528.3,788.0 528.8,789.2 529.3,790.2 529.5,791.0 529.6,791.8 529.5,792.5 529.3,793.2 528.8,793.7 528.1,794.2 527.3,794.6 526.3,794.9 525.1,795.1 523.9,795.1 522.3,794.8 521.1,794.3 520.2,793.5 519.6,792.6 519.2,791.4 519.2,790.2 519.5,789.0 520.0,787.9 520.7,787.0 521.5,786.3 522.4,785.9 523.7,785.7 524.7" style="fill:none;stroke:#ffff00;stroke-width:2"/>
<polyline points="805.7 517.4,805.7 519.0,805.8 521.0,806.1 522.2,806.1 522.4,806.3 523.3,806.6 524.7,806.7 525.8,806.9 526.8,806.9 527.7,807.0 528.5,807.0 529.1,806.9 529.5,806.7 529.8,806.3 529.3,806.2 528.8,806.0 528.2,805.9 527.5,805.8 526.6,805.9 525.8,806.1 524.9,806.3 524.1,806.7 523.3,807.1 522.6,807.9 521.6,808.7 520.9,809.5 520.5,810.4 520.2,811.3 520.2,812.3 520.5,813.3 521.0,814.2 521.8,815.0 522.8,815.8 524.1,816.4 525.3,816.9 526.5,817.2 527.6,817.5 528.6,817.7 529.6,817.8 530.1" style="fill:none;stroke:#ffff00;stroke-width:2"/>
<polyline points="827.6 517.9,828.0 519.9,829.0 521.6,829.9 523.0,830.4 523.8,830.9 524.7,831.5 525.6,832.1 526.5,833.0 528.0,833.4 528.5,833.6 528.9,833.9 529.2,834.2 528.9,834.4 528.6,834.8 528.0,835.1 527.4,835.4 526.8,835.8 526.0,836.2 525.1,836.7 524.2,837.5 522.8,838.9 520.5,839.4 519.7,840.0 518.8,840.5 518.1,841.3 517.2,841.5 517.0,841.8 516.8" style="fill:none;stroke:#ffff00;stroke-width:2"/>
<polyline points="848.0 522.8,850.5 524.7,851.6 524.9,852.9 525.1,853.7 525.2,854.6 525.1,855.5 524.9,856.4 524.6,857.3 524.2,858.0 523.8,858.7 523.2,859.3 522.4,859.6 521.7,859.8 521.1,859.7 520.5,859.4 519.9,859.0 519.5,858.5 519.0,857.9 518.7,857.4 518.4,856.9 518.3,856.3 518.2,855.8 518.1,855.3 518.1,854.9 518.1,854.5 518.3,854.1 518.6,853.7 519.0,853.4 519.4,853.1 520.0,852.9 520.5,852.7 521.1,852.5 521.7,852.4 522.3,852.4 522.9,852.4 523.6,852.5 524.3,852.6 525.1,852.9 525.8,853.2 526.5,853.5 527.1,853.9 527.8,854.3 528.3,854.8 528.9,855.4 529.4,855.9 529.8,856.6 530.1,857.3 530.4,858.0 530.6,858.6 530.7,859.3 530.8,860.0 530.9,860.7 530.8,861.3 530.6,862.0 530.3,862.6 529.9,863.3 529.5,864.0 529.1,864.6 528.7,865.0 528.3,865.4 528.1,865.9 527.8,866.2 527.6,866.5 527.3,866.7 527.0,867.1 527.2" style="fill:none;stroke:#ffff00;stroke-width:2"/>
<polyline points="869.0 527.7,869.6 526.5,870.0 525.2,870.4 523.2,870.4 523.0,870.5 522.3,870.5 521.6,870.5 520.9,870.5 519.6,870.5 519.1,870.3 518.5,870.3 518.1,870.5 517.8,870.9 517.5,871.3 517.3,871.8 517.1,872.2 517.0,872.6 516.9,872.9 516.8,873.3 516.7,873.7 516.7,874.1 516.7,874.5 516.8,874.9 516.9,875.3 517.0,875.7 517.3,876.2 517.5,876.6 517.8,877.0 518.1,877.5 518.4,877.8 518.7,878.2 519.0,878.5 519.2,878.8 519.5,879.1 519.7,879.3 520.0,879.5 520.4,879.7 520.7,879.7 521.2,879.8 522.0,879.9 523.2,880.0 523.8,880.2 524.6,880.5 525.4,880.9 526.1,881.7 526.7,882.4 527.2,883.6 527.4" style="fill:none;stroke:#ffff00;stroke-width:2"/>
<polyline points="888.1 499.2,888.1 500.8,888.7 502.9,889.1 504.1,889.2 504.5,889.5 505.5,889.9 507.4,890.5 510.8,890.6 512.2,890.9 513.9,891.2 515.6,891.6 517.1,891.9 518.4,892.4 519.6,893.0 520.6,893.7 521.5,895.0 522.4,896.5 523.2,897.7 523.7,898.9 524.1,899.9 524.5,900.8 524.7,901.5 524.8" style="fill:none;stroke:#ffff00;stroke-width:2"/>
<polyline points="888.5 510.2,890.1 510.2,891.1 510.2,892.3 510.3,892.7 510.4,893.7 510.6,895.2 510.9" style="fill:none;stroke:#ffff00;stroke-width:2"/>
<polyline points="906.0 516.6,906.1 518.1,906.5 521.9,906.8 523.6,907.1 524.4,907.3 525.1,907.7 525.7,908.0 526.1" style="fill:none;stroke:#ffff00;stroke-width:2"/>
<polyline points="910.0 511.6,910.0 513.1,909.2 512.4" style="fill:none;stroke:#ffff00;stroke-width:2"/>
<polyline points="921.4 517.7,921.6 518.9,922.0 520.8,922.2 521.9,922.3 522.3,922.6 523.6,923.1 526.3,923.2 526.9,923.3 527.7,923.4 527.4,923.4 526.0,923.4 522.4,923.5 521.7,923.7 520.8,924.1 520.2,924.6 519.8,925.2 519.6,926.0 519.7,926.9 520.1,927.8 520.8,928.7 521.6,929.5 522.6,930.2 524.2,930.7 525.4,931.0 526.6,931.3 527.6,931.5 528.4,931.7 529.0,931.8 529.3" style="fill:none;stroke:#ffff00;stroke-width:2"/>
<polyline points="944.3 517.8,942.9 517.7,942.0 518.3,940.6 520.4,940.6 520.8,940.5 521.6,940.4 522.4,940.4 523.3,940.4 524.2,940.7 525.1,941.0 525.9,941.5 526.6,942.1 527.2,943.1 527.6,944.1 527.7,945.1 527.5,946.1 527.1,947.0 526.5,947.8 525.8,948.5 525.0,949.0 524.2,949.3 523.4,949.4 522.6,949.2 521.9,948.9 521.2,948.4 520.6,948.0 520.2,947.5 519.9,947.1 519.9,946.9 520.3,946.8 520.8,946.8 521.5,947.1 522.3,947.5 523.2,948.0 524.2,948.7 525.3,949.6 526.5,950.5 527.6,951.8 529.6,952.9 531.2,953.8 533.0,954.6 534.7,955.2 536.5,955.6 538.3,955.9 540.1,956.0 541.9,955.8 543.7,955.5 545.4,954.9 547.0,954.1 548.5,953.2 550.0,952.0 551.5,950.8 552.7,949.6 553.7,948.4 554.4,947.3 554.8,946.3 555.0,945.4 554.9,944.8 554.6,944.2 554.0,943.9 553.2,943.7 551.6,943.9 550.2,944.2 548.7,944.8 547.1,945.7 545.4,946.8 543.7,948.2 542.0,949.7 540.3,951.4 538.6,953.2 537.1,955.1 535.6,957.6 534.0,961.2 531.9,962.3 531.5,963.4 530.9" style="fill:none;stroke:#ffff00;stroke-width:2"/>
</svg>