<svg version="1.1" xmlns="http://www.w3.org/2000/svg" viewBox="186.6 124.8 1788.2 662.9">
<rect x="186.6" y="124.8" width="1788.2" height="662.9" fill="#202124" />
<polyline points="474.5 381.2,474.5 381.2,660.2 380.9,845.9 380.7,1031.5 380.5,1217.2 380.3,1402.8 380.1,1634.9 379.8" style="fill:none;stroke:#ffffff;stroke-width:2"/>
<polyline points="501.2 423.8,501.2 423.8,501.1 382.6,501.0 341.5,500.9 300.3,500.8 259.2,500.7 218.0,500.5 166.6" style="fill:none;stroke:#ffffff;stroke-width:2"/>
<polyline points="503.2 163.9,501.9 165.3,501.2 166.6,501.2 167.9,500.7 168.5,500.1 169.6,499.3 171.0,498.5 172.3,497.5 173.9,496.7 175.3,495.7 177.0,494.8 178.2,494.0 179.3,493.5 180.2,493.2 181.0,493.0 181.5,492.8 181.9,492.7 181.3,492.9 180.8,493.3 179.9,493.8 179.2,494.0 178.2,494.5 177.4,495.0 176.1,495.6 174.8,496.2 173.3,496.8 171.8,497.1 170.7,497.4 169.7,497.5 168.9,497.9 168.1,498.1 167.3,498.5 166.6,498.8 165.9,499.2 164.9,499.4 164.1,499.6 163.3,499.7 162.9,500.0 162.5,500.5 162.6,501.0 162.9,501.3 163.3,501.7 163.5,502.3 164.2,502.6 164.8,503.1 165.7,503.6 167.1,503.9 168.3,504.7 170.8,506.0 174.6,506.3 175.9,506.9 177.6,507.2 178.9,507.7 179.9,508.0 180.9,508.2 181.7,508.3 182.2,508.4 183.1,508.7 183.3,508.9 183.8,509.3 184.0" style="fill:none;stroke:#ffffff;stroke-width:2"/>
<polyline points="1625.6 369.2,1624.9 367.8,1624.9 369.2,1626.9 369.8,1627.4 370.0,1628.5 370.4,1629.6 371.0,1630.8 371.5,1632.3 372.1,1633.7 372.7,1635.1 373.1,1636.5 373.6,1637.5 374.2,1638.8 374.5,1639.7 375.0,1640.6 375.3,1641.4 375.5,1642.2 375.6,1643.2 375.7,1644.0 375.7,1644.8 375.8,1645.6 376.1,1646.0 376.2,1646.6 376.3,1646.9 376.4,1646.6 377.0,1645.6 377.8,1644.4 378.8,1642.8 380.2,1641.2 381.5,1639.6 383.1,1638.2 384.5,1635.4 387.1,1633.3 389.2,1633.0 389.6,1632.5 390.2,1632.2 390.5" style="fill:none;stroke:#ffffff;stroke-width:2"/>
<polyline points="1649.6 417.1,1648.2 417.1,1650.2 417.1,1652.2 416.9,1653.8 416.5,1655.4 416.0,1657.2 415.4,1660.6 414.5,1661.6 414.1,1662.5 413.8,1663.1 413.3,1663.5 413.0,1663.4 412.6,1661.8 412.3,1660.3 411.9,1658.6 411.6,1655.6 411.5,1654.1 411.4,1652.5 411.0,1651.0 410.8,1648.8 410.4,1647.2 409.5,1647.1 408.9,1646.8 408.5,1646.6 408.0,1646.8 407.5,1646.8 406.9,1646.8 406.5,1647.1 406.3,1647.6 406.1,1648.1 406.0,1648.6 406.0,1649.2 405.9,1649.8 405.9,1650.5 405.9,1651.1 405.8,1652.2 405.5,1652.6 405.4,1652.9 405.0,1653.1 404.6" style="fill:none;stroke:#ffffff;stroke-width:2"/>
<polyline points="1674.2 407.1,1673.6 413.1,1674.2 417.1,1674.9 419.1,1675.3 419.9,1676.2 421.4,1676.9 423.0,1677.6 424.8,1678.6 426.6,1679.1 428.2,1679.8 429.4,1680.1 430.5,1680.7 431.4,1681.0 432.0,1681.2 432.4,1681.0 431.5,1680.7 430.6,1680.6 429.6,1680.2 428.2,1679.7 426.6,1679.2 424.8,1678.6 422.2,1678.2 420.2,1677.7 418.1,1677.5 416.1,1677.3 414.4,1677.2 412.5,1677.3 410.5,1678.0 408.6,1678.5 406.9,1679.4 405.6,1680.2 404.2,1680.9 403.5,1681.6 402.6,1682.3 402.1,1682.7 401.8,1683.0 401.6,1683.5 401.7,1683.7 402.0,1684.2 402.4,1684.4 403.2,1684.6 404.2,1684.7 405.0,1684.7 406.0,1684.8 407.2,1684.8 408.4,1684.9 409.6,1684.6 410.6,1684.2 411.5,1683.7 412.3,1683.2 412.8,1682.6 413.1,1682.0 413.4,1681.6 413.5,1680.8 413.6,1680.1 413.7,1679.5 413.7,1678.5 413.2,1678.0 413.0" style="fill:none;stroke:#ffffff;stroke-width:2"/>
<polyline points="1698.9 401.8,1695.6 402.5,1694.2 405.1,1693.6 407.1,1693.7 407.4,1693.3 408.0,1693.2 409.0,1693.1 409.7,1693.0 410.5,1693.0 411.2,1693.2 411.9,1693.3 412.6,1694.0 413.3,1694.3 413.7,1694.8 413.9,1695.3 414.1,1695.6 414.2,1696.1 414.3,1696.6 414.1,1696.9 413.4,1697.4 412.9,1698.0 412.0,1698.5 411.2,1698.9 409.9,1699.1 409.2,1699.3 408.5,1699.4 407.8,1699.4 407.3,1699.5 406.8,1699.5 406.2,1699.2 405.8,1699.1 406.5,1699.0 407.5,1699.0 408.0,1699.8 409.9,1700.7 410.1,1701.7 410.5,1703.2 410.7" style="fill:none;stroke:#ffffff;stroke-width:2"/>
<polyline points="1721.6 397.1,1718.9 399.8,1718.2 402.5,1717.6 403.8,1717.4 404.1,1717.2 405.3,1716.8 406.5,1716.6 408.0,1716.5 409.3,1716.4 410.7,1716.6 411.8,1717.0 413.0,1717.7 414.0,1719.2 414.9,1720.5 415.4,1721.9 415.7,1723.2 416.0,1724.5 415.9,1725.8 415.3,1727.2 414.5,1728.2 413.5,1729.2 412.1,1730.0 410.5,1730.8 408.8,1731.3 407.0,1731.6 405.7,1731.5 404.8,1731.0 404.0,1730.5 403.5,1729.9 403.2,1729.3 403.2,1728.7 403.7,1728.0 404.5,1727.6 405.8,1727.4 407.0,1727.2 408.5,1727.4 409.9,1728.3 411.3,1729.2 412.4,1730.9 413.4,1732.6 414.0,1734.7 414.3,1736.9 414.6,1739.1 414.2" style="fill:none;stroke:#ffffff;stroke-width:2"/>
<polyline points="1664.2 467.1,1665.6 466.5,1666.2 468.4,1666.9 469.8,1667.1 470.1,1667.5 471.3,1668.0 472.4,1668.6 473.7,1669.2 474.9,1669.5 476.2,1670.0 477.2,1670.6 478.4,1671.3 478.7,1671.3 477.7,1671.4 476.7,1671.7 475.4,1671.9 473.5,1672.3 472.3,1672.5 471.2,1672.6 470.2,1672.7 469.4,1673.1 468.8,1673.2 468.5,1673.6 468.5,1674.1 469.1,1674.6 469.8,1675.2 470.8,1676.1 472.2,1676.9 473.5,1677.6 474.8,1678.3 475.8,1679.0 476.7,1679.4 477.6,1680.0 478.1,1680.3 478.7,1680.5 479.1,1680.6 478.2,1680.7 477.3,1680.8 476.2,1681.1 474.8,1681.2 473.8,1681.6 472.6,1681.8 471.6,1682.0 470.7,1682.0 469.9,1682.1 469.2,1682.4 468.7,1682.6 468.4,1683.0 468.2" style="fill:none;stroke:#ffffff;stroke-width:2"/>
<polyline points="1696.2 467.8,1696.9 474.4,1697.6 475.8,1697.6 477.8,1697.8 478.0,1698.0 478.7,1698.3 479.3,1698.5 480.0" style="fill:none;stroke:#ffffff;stroke-width:2"/>
<polyline points="1704.2 447.8,1704.2 449.3,1703.5 448.5" style="fill:none;stroke:#ffffff;stroke-width:2"/>
<polyline points="1720.2 459.1,1715.6 465.8,1715.6 467.8,1715.8 470.7,1716.2 471.3,1717.6 472.0,1718.8 472.3,1719.7 472.3,1720.9 471.8,1721.8 471.0,1722.7 470.1,1723.5 468.7,1723.9 467.1,1724.2 465.7,1724.5 464.6,1724.6 463.3,1723.8 462.3,1723.0 461.7,1722.0 461.3,1721.1 461.0,1720.0 461.1,1719.2 461.7,1718.4 462.5,1717.9 463.5" style="fill:none;stroke:#ffffff;stroke-width:2"/>
<polyline points="1722.9 440.5,1722.9 445.1,1722.9 451.1,1723.2 454.4,1723.8 456.3,1724.5 458.3,1725.1 460.3,1726.0 462.3,1726.8 464.2,1727.5 465.7,1728.3 466.9,1729.0 467.9,1729.4 468.8,1729.9 469.3,1730.5 469.7,1731.4 469.7,1732.2 469.2" style="fill:none;stroke:#ffffff;stroke-width:2"/>
<polyline points="1736.2 444.5,1737.5 450.5,1737.5 452.5,1738.2 455.1,1738.4 456.1,1738.8 458.0,1739.3 459.9,1739.9 461.8,1740.8 463.4,1742.1 465.0,1743.0 466.2,1744.2 466.9,1745.1 467.4,1746.0 467.8,1746.8 467.4,1747.8 466.5,1748.4 465.2" style="fill:none;stroke:#ffffff;stroke-width:2"/>
<polyline points="1738.2 459.8,1746.2 460.5,1748.9 459.1,1750.9 456.5,1751.4 456.0" style="fill:none;stroke:#ffffff;stroke-width:2"/>
<polyline points="1751.5 437.8,1754.2 442.5,1755.5 444.5,1756.2 446.5,1756.6 447.2,1757.5 449.0,1758.2 451.0,1760.2 456.1,1760.7 458.2,1761.5 460.7,1762.2 462.7,1762.7 464.2,1763.0 465.2,1763.4 465.8,1763.7 466.3,1763.9 466.5,1764.3 466.2,1764.5 465.5,1764.9 464.3,1765.4 462.9,1766.2 461.3,1766.9 459.8,1768.6 457.2,1769.3 456.8,1770.7 456.2,1773.1 456.7,1775.1 457.6,1777.2 459.2,1778.9 460.9,1780.6 462.7,1781.8 464.5,1782.9 466.1,1783.5 467.7,1784.0 468.6,1784.3 469.2" style="fill:none;stroke:#ffffff;stroke-width:2"/>
<polyline points="518.5 153.3,517.9 151.9,519.2 153.3,519.2 154.6,519.5 154.9,519.9 155.8,520.4 157.4,520.9 158.5,521.2 159.5,521.7 160.1,522.0 160.5,522.4 160.7,522.7 160.1,523.1 158.4,523.7 155.9,523.9 154.1,524.4 152.7,524.7 151.5,524.8 150.8,525.2 150.3,526.0 149.9,526.9 150.0,529.1 151.1,530.8 152.1,532.6 153.5,534.2 154.9,535.5 156.2,536.5 157.3,537.2 158.5,537.6 159.4,537.9 160.3,538.1 160.8,538.0 161.2,537.7 161.4,537.2 161.6,536.7 161.7" style="fill:none;stroke:#ffffff;stroke-width:2"/>
<polyline points="541.9 140.6,544.5 143.3,545.2 145.3,546.5 147.3,546.9 147.5,547.8 148.7,548.5 150.2,549.5 151.8,550.6 153.3,551.5 155.0,552.3 156.8,552.8 158.1,553.5 159.2,553.8 159.9,554.0 160.3,554.0 159.7,553.7 158.5,553.5 157.3,553.4 156.4,553.3 155.5,553.3 154.7,553.5 153.9,553.9 153.8,554.9 153.6,556.0 153.5,557.4 153.7,559.9 154.6,561.7 155.6,563.1 156.4,564.0 157.5,564.6 158.6,565.0 159.8,565.3 161.3,564.9 162.7,564.3 164.1,563.4 165.2,562.3 166.2,560.6 166.7,558.9 167.1,557.3 167.1,556.1 166.6,554.8 165.8,554.1 164.9" style="fill:none;stroke:#ffffff;stroke-width:2"/>
<polyline points="603.2 156.6,601.8 155.9,598.8 154.7,598.2 154.7,597.6 154.4,597.0 154.2,596.0 154.1,595.3 154.1,594.2 154.0,592.6 154.0,592.0 154.2,591.2 154.6,590.5 155.1,590.1 155.7,589.5 156.5,589.2 157.5,588.7 158.4,588.4 159.4,588.2 160.6,588.1 161.5,588.0 162.4,588.0 163.2,588.5 163.9,589.0 164.6,589.8 165.3,590.8 165.7,591.9 166.0,593.1 166.2,594.6 166.3,596.0 166.4,597.4 166.5,598.7 166.2,599.8 165.9,600.8 165.4,601.9 164.8,602.5 164.3,603.0 163.9,603.3 163.4,603.5 162.9,603.6 162.3,603.7 161.7,603.7 161.0,603.5 160.4,603.1 159.7,602.6 158.8,601.8 158.0,601.1 157.3,600.1 156.6,599.1 155.9,598.2 155.4,597.3 154.9,596.6 154.6,595.8 154.4,595.1 154.2,594.7 154.1" style="fill:none;stroke:#ffffff;stroke-width:2"/>
<polyline points="634.5 153.3,629.8 152.6,628.5 152.6,622.5 152.6,617.7 152.9,617.2 153.0,615.9 153.6,615.0 154.2,613.8 155.7,613.2 157.0,612.7 158.3,612.4 159.3,612.2 160.5,612.1 161.7,612.6 162.7,613.3 163.6,614.5 164.7,616.0 165.6" style="fill:none;stroke:#ffffff;stroke-width:2"/>
<polyline points="651.2 155.9,647.2 155.3,645.2 154.6,643.8 154.6,643.5 154.6,642.9 154.9,642.3 155.3,641.3 156.0,640.6 157.0,639.8 158.1,639.4 159.2,638.8 160.2,638.5 161.9,638.1 164.3,638.6 165.1,639.1 166.2,640.2 167.0,641.2 167.8,642.7 168.6,644.3 169.0,646.1 169.3,647.9 169.5,650.4 169.6" style="fill:none;stroke:#ffffff;stroke-width:2"/>
<polyline points="651.2 155.9,651.2 157.4,650.4 156.7" style="fill:none;stroke:#ffffff;stroke-width:2"/>
<polyline points="662.5 155.3,662.5 156.6,663.1 161.7,663.6 163.0,664.4 164.2,666.2 166.2,667.3 167.0,668.4 167.8,669.4 168.3,670.5 168.6,671.4 168.8,672.3 169.0,673.4 169.1,674.2 168.6,675.0 167.8,675.8 166.9,676.5 164.9,677.2 163.4,677.6 161.9,677.9 160.5,678.1 159.4,678.2 158.4,678.3 157.5,678.4 157.0,678.4 156.4,678.2 156.0" style="fill:none;stroke:#ffffff;stroke-width:2"/>
<polyline points="689.2 151.3,691.2 158.6,691.8 160.6,691.8 161.9,692.1 162.5,692.2 163.6,692.6 164.7,692.8 165.6,693.2 166.4,693.4 166.9,693.5 167.2,693.9 167.5,694.1 167.9,694.5 168.1,694.7 167.4,694.9 166.6,695.2 165.6,695.4 164.5,695.8 163.3,696.3 162.1,696.9 160.8,697.5 159.3,698.1 157.6,698.7 156.0,699.6 154.0,700.7 152.3,701.3 151.3,701.7 150.6,702.2 150.2,702.5 149.9,703.0 149.7,703.6 149.8" style="fill:none;stroke:#ffffff;stroke-width:2"/>
<polyline points="715.1 161.9,720.5 161.3,722.4 160.4,723.2 160.0,724.2 159.7,724.7 159.3,725.3 158.8,725.7 158.2,726.2 157.6,726.5 157.0,726.7 155.8,726.6 154.9,726.3 154.1,725.9 153.3,725.1 152.9,724.4 152.6,723.7 152.4,723.0 152.2,722.1 152.4,721.3 153.0,720.5 153.9,719.8 155.7,719.4 157.2,719.1 158.6,718.9 160.1,719.0 161.4,719.3 163.1,720.0 164.6,721.0 165.7,722.3 167.0,723.6 168.0,725.1 168.6,727.4 169.1" style="fill:none;stroke:#ffffff;stroke-width:2"/>
<polyline points="738.5 156.6,738.5 158.6,739.1 164.6,739.0 164.8,739.1 165.8,739.1 166.8,739.4 167.7,739.5 168.5,739.6 168.9,740.0 168.6,740.1 167.5,740.3 166.5,740.6 165.0,741.1 163.4,741.6 161.9,741.9 160.5,742.4 159.1,742.9 157.4,743.5 156.5,744.1 155.6,744.7 155.1,745.3 154.7,745.7 154.4,746.5 154.3,747.2 154.2,748.2 154.1,749.0 154.3,749.5 155.0,750.1 155.8,750.4 156.8,750.7 158.3,750.8 159.6,750.9 160.6,751.0 161.8,751.0 162.5,751.1 163.3,751.4 164.0,751.5 164.4" style="fill:none;stroke:#ffffff;stroke-width:2"/>
<polyline points="772.5 151.3,769.1 151.3,768.5 152.6,766.5 154.6,766.5 154.8,766.0 155.5,765.4 156.7,764.8 157.6,764.5 159.0,764.0 160.3,763.7 161.6,763.5 162.6,763.4 163.8,763.3 165.1,763.8 166.3,764.3 167.4,765.1 168.0,766.4 168.7,769.2 170.0,770.4 170.3,772.2 170.9,773.7 171.3,775.2 171.5,776.9 171.6,778.1 171.4,779.2 170.8,779.8 170.0,781.3 167.2" style="fill:none;stroke:#ffffff;stroke-width:2"/>
<polyline points="772.5 151.3,772.5 152.8,771.7 152.0" style="fill:none;stroke:#ffffff;stroke-width:2"/>
<polyline points="786.5 153.9,786.5 155.3,787.1 157.9,787.3 158.5,787.8 159.6,788.0 161.0,788.4 162.3,788.9 163.6,789.5 164.9,790.4 166.2,791.1 167.6" style="fill:none;stroke:#ffffff;stroke-width:2"/>
<polyline points="793.8 141.3,793.8 142.8,793.0 142.0" style="fill:none;stroke:#ffffff;stroke-width:2"/>
<polyline points="805.1 159.9,809.8 158.6,810.1 158.2,810.7 157.6,811.4 156.7,812.0 156.0,812.4 155.0,812.9 153.9,813.2 152.7,813.4 151.4,813.5 150.4,813.3 149.6,813.0 148.7,812.3 148.3,811.3 147.9,810.3 147.7,809.1 147.8,807.9 148.4,806.1 150.1,804.9 151.4,803.8 153.1,803.1 154.6,802.7 156.0,802.4 157.4,802.2 158.8,802.3 160.2,802.7 161.5,803.4 162.9,804.3 164.2,805.9 165.8,807.5 167.0,809.1 167.7,810.5 168.2,811.6 168.6,812.6 168.8,813.8 169.0,814.7 168.5,815.6 167.8" style="fill:none;stroke:#ffffff;stroke-width:2"/>
<polyline points="835.1 169.9,839.1 169.3,840.4 167.9,841.1 165.9,841.3 165.4,841.5 164.6,841.6 163.6,841.4 162.5,840.7 161.3,839.6 160.1,838.4 158.8,836.4 157.5,834.5 156.0,832.8 154.2,831.8 153.0,831.2 151.6,830.7 150.3,830.4 149.3,830.5 148.0,830.7 147.1,831.4 146.2,832.0 145.4,832.7 144.9,833.6 144.6,834.6 144.4,835.2 144.2,835.9 144.1,836.3 144.1,836.9 144.3,837.2 144.7,837.6 145.1,837.9 145.7" style="fill:none;stroke:#ffffff;stroke-width:2"/>
<polyline points="577.8 374.5,577.2 375.8,577.2 377.8,576.9 384.1,576.8 385.9,576.6 388.8,576.6 389.5" style="fill:none;stroke:#ffff00;stroke-width:2"/>
<polyline points="652.5 378.5,652.5 377.2,652.5 385.1,652.5 387.8" style="fill:none;stroke:#ffff00;stroke-width:2"/>
<polyline points="731.8 375.2,730.5 375.2,730.5 376.5,730.2 378.2,730.1 379.4,730.0 380.8,729.9 382.4,729.9 384.1,729.8 387.8,729.8 389.7" style="fill:none;stroke:#ffff00;stroke-width:2"/>
<polyline points="805.1 373.8,805.1 375.8,804.8 379.8,804.7 381.1,804.6 382.6,804.6 384.0,804.5 386.0" style="fill:none;stroke:#ffff00;stroke-width:2"/>
<polyline points="877.1 375.2,877.1 376.5,877.1 381.8,877.1 384.5,877.1 384.5" style="fill:none;stroke:#ffff00;stroke-width:2"/>
<polyline points="953.1 374.5,952.4 377.2,952.4 382.5,952.7 390.1,953.1 389.8" style="fill:none;stroke:#ffff00;stroke-width:2"/>
<polyline points="1029.7 373.8,1029.7 375.8,1029.5 386.1" style="fill:none;stroke:#ffff00;stroke-width:2"/>
<polyline points="1100.4 373.8,1100.4 375.2,1100.4 388.3,1100.4 394.5,1100.4 393.9" style="fill:none;stroke:#ffff00;stroke-width:2"/>
<polyline points="549.2 384.5,549.9 383.2,551.2 381.2,552.5 379.8,552.9 379.8,553.5 379.0,554.4 377.8,555.1 376.6,556.2 375.1,558.4 371.6,559.2 370.0,560.5 368.3,561.7 366.1,563.6 362.8,564.2 361.5,565.1 359.7,565.8 357.5,567.2 353.2,568.1 351.1,569.0 348.4,569.8 345.8,571.6 339.6,572.3 337.6,572.8 335.3,573.4 333.4,573.8 331.7,574.0 330.1,574.5 328.6,574.7 327.1,575.1 325.4,575.4 323.9,575.8 321.3,576.0 319.2,576.5 317.0,576.7 314.9,576.9 313.2,577.0 311.5,577.0 310.0,577.1 308.5,577.1 306.1,576.9 305.3,576.8 304.3,576.7 303.4,576.3 302.4,576.2 301.5,576.1 300.4,576.0 299.2,576.0 298.3,575.9 297.4,576.4 296.2,577.0 296.5,577.5 296.8,578.1 296.9,578.5 297.3,579.0 298.0,579.8 298.7,580.5 299.3,581.2 300.3,581.7 301.4,582.2 302.5,582.8 303.4,583.4 304.6,584.4 307.0,584.9 308.4,585.5 309.9,585.8 311.3,586.3 313.0,586.9 314.5,587.2 315.9,587.4 317.0,587.8 318.3,588.1 319.3,588.2 320.2,588.6 321.0,588.8 321.8,588.9 322.5,589.3 323.2,589.5 323.9,589.6 324.6,590.0 325.3,590.1 326.3,590.5 327.6,590.7 328.6,590.9 329.8,591.3 330.7,591.4 331.9,591.6 332.8,591.7 333.6,591.7 334.4,591.8 335.5,592.1 336.3,592.2 337.6,592.3 338.9,592.4 340.2,592.4 341.5,592.5 342.8,592.5 346.2,592.8 346.9,593.2 348.2,593.4 349.8,593.8 351.2,594.3 353.5,594.9 355.2,595.5 356.9,596.1 358.4,596.4 359.9,596.7 361.3,597.1 362.7,597.4 364.0,597.5 365.4,597.6 366.8,598.0 367.8,598.1 369.3,598.3 371.0,598.3 371.9,598.4 372.8,598.7 373.6,598.9 374.4,599.2 374.9,599.7 375.8,600.3 376.5,600.8 377.2,601.7 377.9,602.2 378.6,602.8 379.3,603.1 379.7,603.7 380.2,604.2 380.8,605.2 382.1,606.0 383.5,606.1 384.0,606.5 384.4,606.7 384.6" style="fill:none;stroke:#00ff00;stroke-width:2"/>
<polyline points="633.8 380.5,634.5 379.2,635.2 375.8,635.4 375.3,635.8 374.0,636.6 372.2,637.3 368.9,638.0 366.5,638.6 364.1,639.0 362.2,639.6 360.4,639.9 358.8,640.4 357.0,640.6 355.4,640.8 353.9,641.2 352.4,641.4 350.7,641.8 347.8,642.3 345.2,642.9 342.6,643.5 340.2,644.1 337.9,644.4 336.0,645.0 334.6,645.2 333.4,645.4 332.7,645.7 331.6,645.7 331.3,645.7 330.7,646.1 330.2,646.2 329.9,646.3 329.3,646.6 329.1,647.1 330.0,647.3 330.6,647.8 331.3,648.3 332.0,648.9 332.7,649.2 333.3,649.7 334.3,650.2 335.3,651.1 337.3,651.8 339.2,652.5 341.1,653.2 343.3,653.9 345.4,654.6 347.8,655.3 350.2,655.7 352.7,656.2 355.0,656.5 357.2,657.0 359.3,657.8 362.0,659.2 366.2,659.8 367.6,660.3 369.4,660.9 370.7,661.4 372.1,662.1 373.1,662.7 374.4,664.0 376.6,664.8 377.6,665.7 378.6,666.4 379.5,666.9 380.1,667.4 380.9,667.8 381.2,668.0 381.7,668.5 381.9,669.0 382.1,669.2 381.4" style="fill:none;stroke:#00ff00;stroke-width:2"/>
<polyline points="713.1 378.5,713.1 376.5,714.5 372.5,715.1 369.8,715.6 369.2,716.4 367.6,717.2 366.0,717.9 364.2,718.6 362.4,719.3 360.8,719.9 359.3,720.6 357.8,721.3 356.4,722.2 354.1,723.0 352.1,724.1 350.1,724.9 348.1,726.0 346.1,726.9 344.4,727.4 342.8,728.0 341.5,728.4 340.5,728.6 339.8,729.1 339.4,729.3 339.1,729.5 338.6,729.6 338.1,729.9 337.2,730.4 336.5,730.6 335.8,730.8 335.4,730.9 334.8,731.3 334.2,731.4 333.9,731.6 334.5,731.6 335.8,731.7 337.0,731.7 338.3,731.8 339.8,732.1 344.2,732.5 345.3,733.0 347.3,733.2 349.2,733.7 351.1,734.8 356.8,735.3 359.4,736.0 362.5,736.4 365.3,736.9 367.9,737.2 370.5,737.7 372.9,737.9 374.8,738.2 377.8,738.3 378.7,738.7 380.8,738.8 381.2,738.9 381.6,739.3 381.9,739.7 382.1" style="fill:none;stroke:#00ff00;stroke-width:2"/>
<polyline points="796.5 383.2,796.5 381.8,797.1 378.5,797.3 378.2,797.8 377.0,798.5 375.6,799.2 373.9,799.9 372.2,800.6 370.7,801.3 369.2,801.9 367.5,802.6 365.9,803.0 364.2,803.5 362.6,804.1 360.3,804.7 358.5,805.1 356.6,805.6 354.9,805.9 353.3,806.1 351.9,806.5 350.7,806.7 350.0,806.8 349.5,807.0 348.7,807.3 348.5,807.7 348.2,808.2 348.9,809.1 350.9,809.8 352.7,810.8 354.8,811.9 357.1,812.8 359.3,813.9 361.4,814.8 363.5,815.6 365.5,816.4 367.5,816.8 369.6,817.2 371.3,817.4 373.2,817.5 375.1,817.6 377.9,817.4 380.2,817.3 382.5,817.2 385.8" style="fill:none;stroke:#00ff00;stroke-width:2"/>
<polyline points="871.1 379.2,871.8 377.8,872.4 375.8,873.1 374.5,873.3 373.9,873.4 372.9,873.8 371.5,874.6 369.3,875.2 367.6,875.6 366.3,875.9 365.2,876.1 364.3,876.5 363.7,876.7 363.3,876.8 362.7,877.2 362.5,877.7 362.2,878.2 362.1,878.8 362.0,879.1 362.0,879.6 361.9,879.9 362.2,880.3 362.3,880.6 362.6,881.0 362.8,881.3 363.2,881.7 363.4,881.9 363.8,882.4 364.3,882.9 364.9,883.2 365.7,883.7 366.8,884.2 368.2,884.8 369.5,885.7 371.6,886.4 373.3,887.1 374.6,887.8 375.8,888.5 376.7,889.2 377.3,890.2 377.1" style="fill:none;stroke:#00ff00;stroke-width:2"/>
<polyline points="946.4 378.5,946.4 377.2,947.1 374.5,947.5 373.9,948.1 372.8,948.7 371.7,949.6 370.3,950.4 368.9,951.1 367.9,951.8 366.9,952.5 365.8,952.9 365.1,953.7 364.9,953.9 365.3,954.1 366.0,954.5 367.0,954.7 368.3,954.8 369.6,955.2 370.9,955.4 372.2,955.8 373.2,956.8 375.4,957.6 375.8" style="fill:none;stroke:#00ff00;stroke-width:2"/>
<polyline points="1026.4 379.8,1027.7 379.2,1028.4 377.8,1029.7 375.8,1029.9 375.3,1030.4 375.1,1030.6 374.6,1031.0 374.3,1031.5 374.2,1032.1 374.3,1032.4 374.7,1032.9 375.1,1033.2 375.6,1033.6 376.2,1034.2 377.1,1034.7 377.8,1035.3 378.5,1035.7 379.2" style="fill:none;stroke:#00ff00;stroke-width:2"/>
<polyline points="1099.7 377.8,1099.7 376.5,1100.4 375.2,1101.7 374.5,1101.8 374.1,1102.3 373.8,1102.8 373.6,1103.1 374.0,1103.6 374.1,1103.8 374.5,1104.3 375.0,1104.5 375.6,1105.0 376.1,1105.8 377.0,1106.7 377.5" style="fill:none;stroke:#00ff00;stroke-width:2"/>
<polyline points="1177.7 374.5,1177.7 376.0,1176.9 375.2" style="fill:none;stroke:#00ff00;stroke-width:2"/>
<polyline points="540.5 243.2,541.2 241.9,541.9 239.9,541.9 238.6,542.1 238.0,542.3 236.9,542.6 235.5,543.1 234.2,543.3 232.9,544.1 230.7,544.7 229.1,545.1 227.7,545.3 226.6,545.8 226.0,546.0 225.5,546.2 225.2,546.6 225.0,547.1 225.4,547.6 225.8,548.2 226.3,548.5 227.2,549.0 227.9,549.3 228.9,549.8 230.0,550.0 231.2,550.2 232.1,550.3 233.3,550.4 234.5,550.7 235.7,550.9 236.7,551.0 237.9,551.3 238.8,551.5 239.7,551.9 240.7,552.1 241.6,552.5 242.4,552.7 243.2,553.2 243.9,553.4 244.6,553.8 245.0,554.0 245.3,554.5 245.5,555.3 245.6" style="fill:none;stroke:#a020f0;stroke-width:2"/>
<polyline points="575.2 226.6,572.5 226.6,571.2 227.9,569.8 229.8,569.6 230.6,569.2 231.6,569.0 233.2,568.8 234.1,568.7 235.0,568.6 236.0,568.6 236.9,568.6 237.7,568.6 238.5,568.5 239.5,568.8 240.1,569.5 240.7,570.1 241.1,570.5 241.4,571.0 241.5,571.5 241.7,572.1 241.7,572.8 241.8,573.4 241.8,574.0 241.6,574.7 241.2,575.3 240.7,576.0 239.3,576.7 238.1,577.6 236.3,578.5 234.0,578.6 232.9,578.9 230.3,579.0 229.4,579.1 226.9,578.8 226.3,578.7 225.4,578.1 224.9,577.8 224.6,577.3 224.4,576.8 224.2,576.5 224.4,576.3 225.3,576.1 226.0,576.0 226.7,576.0 227.6,575.9 228.4,575.9 229.5,576.2 230.6,576.3 231.5,576.6 232.9,577.1 233.7,577.6 234.5,577.9 234.9,578.4 235.5,578.6 235.9,579.1 236.1,579.6 236.2,580.2 236.4,580.8 236.4,581.4 236.5,582.1 236.5,582.7 236.5,583.6 236.5,585.6 236.3,585.6 236.1,586.3 235.8,586.5 235.3,586.8 234.5,586.9 233.5,587.3 232.7,587.5 231.7,587.6 230.8,588.0 229.7,588.1 228.9,588.5 228.0,588.7 227.3,589.2 226.3,589.4 225.2,589.8 224.3,590.0 223.7,590.2 223.3,590.6 223.1,591.1 222.9,591.6 223.4,592.5 224.4,592.9 224.8,593.5 225.8,593.8 227.1,594.3 228.3,594.6 229.6,594.8 230.9,594.9 231.9,595.0 232.6,595.1 233.3,595.1 233.7,595.4 233.1,595.8 232.4,596.3 231.2,596.9 229.7,597.5 228.4,598.1 227.0,599.0 225.4,599.5 224.5,600.4 223.8,600.6 224.5,600.8 225.3,601.2 226.0,601.7 226.7,602.0 227.6,602.4 228.4,602.9 228.9,603.5 229.5,604.1 229.9,604.7 230.1,605.4 230.2,606.0 230.3,606.4 230.7,606.9 230.9,607.5 231.3,608.1 231.5" style="fill:none;stroke:#a020f0;stroke-width:2"/>
<polyline points="619.2 205.2,618.5 209.2,618.5 211.2,618.5 219.3,618.2 220.5,618.1 223.0,617.7 226.8,617.5 227.8,617.4 228.7,617.5 228.8,618.2 228.1,618.8 227.3,619.7 226.3,621.0 224.9,622.3 223.6,623.8 222.2,625.8 220.6,627.7 218.9,629.7 217.4,631.7 216.2,634.7 214.5,635.2 214.3,635.9 213.9,635.5 214.4" style="fill:none;stroke:#a020f0;stroke-width:2"/>
<polyline points="619.2 205.2,619.2 206.7,618.4 206.0" style="fill:none;stroke:#a020f0;stroke-width:2"/>
<polyline points="627.2 219.9,627.2 221.9,627.5 225.7,627.6 227.1,627.7 228.6,627.7 230.3,628.0 231.8,628.2 234.1" style="fill:none;stroke:#a020f0;stroke-width:2"/>
<polyline points="570.5 274.5,575.2 271.2,576.5 269.9,581.0 265.4,582.8 263.9,583.2 264.2,583.7 264.6,584.2 265.6,584.5 267.0,584.8 268.5,585.2 270.5,585.4 272.4,585.5 274.4,585.9 276.4,586.1 278.1,586.8 279.7,587.4 281.2,588.3 282.3" style="fill:none;stroke:#a020f0;stroke-width:2"/>
<polyline points="657.2 301.2,655.8 298.5,657.2 297.2,657.8 295.9,658.5 296.1,659.2 296.0,659.9 296.2,660.6 296.6,661.3 297.4,662.0 298.3,662.4 299.6,662.6 301.2,662.8 303.2,662.6 305.1,662.3 306.8,661.3 308.9,660.9 310.4,660.2 311.3,659.9 312.2,659.6 312.7,659.5 313.1,660.2 313.4,660.8 313.8,661.7 314.0,662.7 314.5,663.9 314.7,665.1 315.1,666.3 315.7,667.6 316.2,669.1 316.8,670.6 317.7,672.3 318.2" style="fill:none;stroke:#a020f0;stroke-width:2"/>
<polyline points="734.5 302.5,733.8 301.2,735.1 300.5,737.1 300.5,737.4 300.5,738.3 300.8,739.4 301.5,740.5 302.1,741.7 303.6,742.7 304.9,743.3 306.2,743.7 307.8,743.7 309.2,743.4 310.7,743.1 311.5,742.3 312.3,741.7 312.8,741.0 313.2,740.6 313.4,741.2 313.0,741.9 312.6,742.9 312.3,743.7 312.2,744.4 312.1,744.9 312.6,745.2 313.3,745.4 314.5,745.0 316.3,743.4 318.9,742.1 320.6,740.2 322.8,739.5 323.1,738.9 323.6,738.6 323.6,738.3 322.9" style="fill:none;stroke:#a020f0;stroke-width:2"/>
<polyline points="814.5 318.5,815.1 319.9,814.5 321.2,813.8 323.2,812.7 327.1,812.1 328.8,811.8 330.6,811.4 333.1,811.4 333.5,811.8 334.1,812.3 334.5,813.1 334.7,813.8 334.9,814.8 334.7,815.9 334.4,816.8 333.9,817.9 333.7,818.8 333.5,819.6 333.4,820.1 333.3,820.7 333.6,821.4 334.5,821.7 335.8,822.2 337.5,822.5 339.3,823.0 341.2,823.5 342.8,824.4 344.1,826.2 345.2" style="fill:none;stroke:#a020f0;stroke-width:2"/>
<polyline points="882.4 331.2,882.4 333.8,881.8 336.5,881.9 336.8,881.8 337.2,882.7 337.1,883.3 336.9,883.9 336.5,884.9 336.3,885.7 336.1,886.4 336.0,887.1 336.0,887.8 337.1,888.3 338.3,888.5 339.9,888.7 341.6,888.8 343.4,888.9 345.2,889.0 347.1,888.7 348.8,888.4 350.3,888.2 351.8,887.8 353.0,887.6 354.0" style="fill:none;stroke:#a020f0;stroke-width:2"/>
<polyline points="881.8 336.5,883.8 333.8,885.8 333.8,887.8 333.8,888.0 333.8,889.0 333.8,890.0 333.8" style="fill:none;stroke:#a020f0;stroke-width:2"/>
<polyline points="964.4 327.2,959.1 329.8,958.4 331.2,955.8 335.2,955.6 335.1,954.6 336.5,953.8 338.0,952.8 339.6,952.3 341.1,951.6 342.6,951.2 344.3,950.9 345.8,950.8 347.2,950.9 348.6,951.8 350.0,952.5 350.8,953.5 351.4,954.5 351.8,955.4 352.0,956.0 351.9,956.6 351.6,957.0 351.2,957.2 350.7,957.4 350.1,957.5 349.5,956.8 348.9,956.2 348.6,955.8 348.3,955.3 348.2,954.7 348.1,954.4 348.0,954.2 348.5,954.3 349.3" style="fill:none;stroke:#a020f0;stroke-width:2"/>
<polyline points="1023.7 339.2,1025.1 337.8,1026.4 337.2,1028.7 336.2,1029.6 336.1,1030.3 336.0,1031.1 335.9,1031.5 336.5,1031.8 337.5,1032.0 339.2,1032.1 341.2,1032.2 343.4,1032.3 346.0,1032.3 351.2,1032.4 355.6,1032.7 358.1,1032.8 358.7" style="fill:none;stroke:#a020f0;stroke-width:2"/>
<polyline points="1025.7 352.5,1032.4 350.5,1035.1 349.2,1038.4 349.2,1038.7 349.2" style="fill:none;stroke:#a020f0;stroke-width:2"/>
<polyline points="1107.7 347.2,1111.0 344.5,1112.4 343.2,1113.0 341.2,1112.9 340.9,1113.0 340.3,1113.0 339.4,1112.7 338.1,1112.1 337.7,1111.2 337.3,1110.1 336.7,1109.3 336.4,1108.2 336.2,1107.3 336.1,1106.5 336.0,1106.0 336.2,1105.7 336.6,1105.5 337.1,1105.3 337.9,1105.2 338.6,1105.2 339.8,1105.1 341.0,1105.4 342.3,1105.8 343.3,1106.5 344.5,1107.2 345.7,1108.8 348.2,1109.5 349.1,1110.3 350.3,1111.0 351.6,1111.5 352.9,1111.8 353.9,1112.0 355.1,1111.8 356.1,1111.2 357.2,1110.4 358.1,1109.4 358.7,1108.0 359.3,1106.7 359.7,1104.8 360.0,1102.4 360.3,1101.7 360.3,1101.0 360.1,1100.6 359.7,1100.9 359.0,1101.7 358.1,1103.0 356.7,1105.1 355.2,1107.2 353.7" style="fill:none;stroke:#a020f0;stroke-width:2"/>
<polyline points="1180.4 340.5,1180.4 339.2,1179.0 339.2,1177.4 339.5,1176.4 339.9,1176.0 340.3,1175.4 340.6,1175.1 341.1,1174.8 341.3,1174.7 341.8,1174.6 342.3,1174.5 342.9,1175.0 343.7,1175.5 344.2,1176.3 344.8,1177.3 345.4,1178.2 345.8,1179.2 346.3,1180.4 346.6,1181.3 346.8,1182.1 346.9,1182.9 347.0,1183.4 347.1,1183.7 346.8,1183.9 346.4,1184.1 346.0,1184.4 345.4,1184.6 344.9,1184.8 344.0,1185.1 343.2,1185.3 342.2,1185.7 340.8,1185.9 339.8,1186.1 338.9,1186.2 338.0,1186.2 337.5,1186.3 337.8,1186.3 338.6,1186.3 339.3,1186.3 340.5,1186.6 344.7,1187.1 348.7,1187.3 350.2,1187.7 352.3,1187.9 354.3,1188.1 356.0,1188.2 357.6,1187.9 359.1,1187.6 360.3,1187.1 361.3,1186.3 361.9,1185.3 362.3,1183.7 362.6,1182.6 362.2,1181.3 361.6,1180.5 360.7,1180.0 359.3" style="fill:none;stroke:#a020f0;stroke-width:2"/>
<polyline points="501.9 523.1,501.9 523.1,570.2 523.0,638.6 522.9,706.9 522.8,775.3 522.7,843.6 522.6,929.1 522.4" style="fill:none;stroke:#00ffff;stroke-width:2"/>
<polyline points="525.2 477.8,525.2 477.8,525.2 479.8" style="fill:none;stroke:#00ffff;stroke-width:2"/>
<polyline points="526.5 524.4,526.5 524.4,525.9 477.1" style="fill:none;stroke:#00ffff;stroke-width:2"/>
<polyline points="554.5 475.1,554.5 475.1,555.2 517.8" style="fill:none;stroke:#00ffff;stroke-width:2"/>
<polyline points="579.2 480.4,579.2 480.4,579.2 523.1" style="fill:none;stroke:#00ffff;stroke-width:2"/>
<polyline points="600.5 483.8,600.5 483.8,601.2 517.8" style="fill:none;stroke:#00ffff;stroke-width:2"/>
<polyline points="628.5 481.1,628.5 481.1,627.8 524.4" style="fill:none;stroke:#00ffff;stroke-width:2"/>
<polyline points="653.2 484.4,653.2 484.4,652.5 523.8" style="fill:none;stroke:#00ffff;stroke-width:2"/>
<polyline points="677.8 481.8,677.8 481.8,679.8 519.8" style="fill:none;stroke:#00ffff;stroke-width:2"/>
<polyline points="705.1 484.4,705.1 484.4,704.5 523.1" style="fill:none;stroke:#00ffff;stroke-width:2"/>
<polyline points="732.5 483.8,732.5 483.8,729.1 521.8" style="fill:none;stroke:#00ffff;stroke-width:2"/>
<polyline points="512.5 458.5,514.5 455.8,515.2 454.5,516.3 452.8,516.9 452.2,517.5 451.3,518.1 450.5,518.7 449.8,519.4 449.1,520.0 448.4,521.1 447.6,521.5 448.1,521.9 448.5,522.4 449.8,522.9 451.0,523.8 453.8,524.3 455.0,525.2 458.3,525.3 459.3,525.5 460.4,525.9 461.4,526.1 462.2,526.5 462.7,527.0 463.1" style="fill:none;stroke:#00ffff;stroke-width:2"/>
<polyline points="551.2 452.5,553.9 449.1,554.5 447.8,555.9 447.1,556.2 447.3,556.8 447.2,557.2 447.5,557.4 447.8,557.8 448.3,558.0 448.9,558.2 449.4,558.3 450.1,558.4 451.0,558.1 451.7,557.8 452.5,557.3 453.2,556.8 454.2,556.2 455.0,555.9 455.4,555.4 456.1,555.1 456.7,554.9 457.3,554.8 457.7,554.7 458.2,554.6 458.8,554.6 459.4,554.6 460.0,554.6 460.7,554.5 461.3,554.8 462.4,555.2 462.8,555.7 463.2,556.2 463.4,557.1 463.5,557.8 463.6,558.6 463.7,559.0 463.7,559.6 463.4,560.1 463.1" style="fill:none;stroke:#00ffff;stroke-width:2"/>
<polyline points="573.9 451.1,575.2 449.8,576.5 449.1,577.2 450.5,577.1 450.8,577.1 451.4,577.1 452.3,577.5 454.3,577.9 454.3,578.6 454.6,579.6 454.8,581.2 455.7,582.3 456.7,583.3 458.1,584.2 459.7,584.8 461.4,585.1 463.5,585.1 465.3,584.6 466.9,584.1 468.1,583.5 469.2,582.9 469.8,582.3 470.2,581.6 470.5,581.3 470.7,580.7 470.6" style="fill:none;stroke:#00ffff;stroke-width:2"/>
<polyline points="601.2 447.1,601.2 448.5,599.8 449.8,599.8 451.1,599.6 451.7,599.2 452.8,599.0 453.6,598.5 454.7,598.3 455.5,598.2 456.3,598.1 456.8,598.5 457.1,599.0 456.8,599.6 456.4,600.1 455.9,600.8 455.7,601.4 455.5,602.0 455.4,602.4 455.8,602.9 456.6,603.2 457.8,603.7 459.3,604.0 460.9,604.2 462.7,604.3 464.3,604.6 465.8,604.8 466.9,605.2 467.9,605.7 468.5" style="fill:none;stroke:#00ffff;stroke-width:2"/>
<polyline points="625.8 447.1,625.8 448.5,625.6 452.3,625.4 453.1,625.3 453.5,625.6 453.8,626.2 454.0,626.8 454.2,627.4 454.3,628.0 454.3,628.7 454.4,629.6 454.7,630.1 455.1,630.5 455.9,631.0 457.1,631.3 458.6,631.5 460.0,631.6 461.6,631.7 464.1,631.7 465.0,631.5 467.4,631.1 467.2" style="fill:none;stroke:#00ffff;stroke-width:2"/>
<polyline points="626.5 447.1,628.5 445.1,629.8 444.5,633.2 444.5,633.2 444.2,634.2 444.1,635.3 444.0,636.5 443.9,637.4 443.9" style="fill:none;stroke:#00ffff;stroke-width:2"/>
<polyline points="655.2 445.8,653.8 445.1,653.2 446.5,651.8 448.5,650.9 450.0,650.2 451.5,649.6 452.8,649.0 454.4,648.6 455.8,648.3 457.5,648.2 459.9,648.1 461.7,648.3 463.4,648.6 464.7,649.1 465.8,649.6 466.4,650.2 466.9,651.1 467.2,651.8 467.4,652.5 467.5,653.2 467.3,653.9 466.4,654.6 465.7,655.0 464.8,655.3 463.9,655.5 463.2,655.6 462.7,655.7 462.1,655.4 461.8,655.1 461.6,654.6 461.4,654.1 461.3,653.2 462.1,652.5 463.0,652.1 464.0,651.8 465.1" style="fill:none;stroke:#00ffff;stroke-width:2"/>
<polyline points="671.2 445.1,673.8 444.5,675.2 443.8,676.5 443.8,676.8 443.8,677.2 444.4,677.9 446.7,678.3 448.2,678.6 450.3,678.8 453.7,678.9 456.5,679.0 459.1,679.1 463.0,679.1 465.6" style="fill:none;stroke:#00ffff;stroke-width:2"/>
<polyline points="677.8 459.8,677.8 461.3,677.1 460.5" style="fill:none;stroke:#00ffff;stroke-width:2"/>
<polyline points="705.1 453.8,706.5 452.5,707.1 451.1,708.0 449.2,708.2 448.4,708.3 447.4,708.3 446.6,708.4 445.9,708.4 445.1,708.4 444.4,708.5 443.7,708.2 442.7,707.8 442.5,707.3 442.3,706.8 442.1,706.2 442.0,705.6 441.9,704.9 441.9,704.6 441.9,704.0 441.8,703.8 442.1,703.6 442.5,703.4 443.0,703.3 443.5,703.3 444.4,703.2 445.1,703.5 446.1,703.9 446.9,704.3 448.0,704.9 449.1,705.5 450.1,706.1 451.2,706.7 452.7,707.3 454.0,707.7 455.4,708.3 457.0,708.5 458.5,708.7 459.9,708.9 461.3,709.0 462.4,709.0 463.3,709.1 464.2,708.8 465.0,708.7 465.5,708.4 465.8,707.9 466.0,707.4 466.2,706.8 466.3,706.2 466.3,705.6 466.4,704.9 466.4,704.3 465.9,704.2 465.1,704.1 463.8,704.6 462.3,705.0 460.7" style="fill:none;stroke:#00ffff;stroke-width:2"/>
<polyline points="734.5 443.1,733.1 443.1,731.1 443.8,729.8 444.5,729.5 444.9,728.9 445.8,728.2 446.8,727.6 447.9,727.0 448.8,726.6 449.9,726.0 450.8,725.8 451.9,725.6 452.8,725.4 453.6,725.3 454.4,725.8 454.8,726.3 455.2,726.9 455.4,727.4 455.5,728.1 455.6,728.7 455.7,729.3 455.7,730.0 455.5,730.9 455.1,731.7 454.3,732.5 453.4,733.2 452.6,733.9 451.5,734.3 450.7,734.6 449.6,734.8 448.7,734.9 447.9,735.0 447.2,735.0 446.4,735.1 446.0,735.1 445.4,735.1 446.0,735.4 447.2,735.5 448.1,735.6 449.5,735.7 450.8,735.7 452.7,735.8 457.5,735.8 462.1,735.5 463.7,735.4 465.4,735.0 466.7,734.9 467.5,734.4 468.0,734.0 468.4,733.7 468.6,733.2 468.2,731.7 466.6,731.2 465.4,730.7 464.1" style="fill:none;stroke:#00ffff;stroke-width:2"/>
<polyline points="830.5 479.1,830.5 477.8,830.5 488.6,830.5 493.8,830.7 492.4,831.1 491.1,831.6 489.9,831.9 489.0,832.4 488.1,832.6 487.5,832.8 487.2,833.2 486.9,833.6 486.8,834.2 486.7,834.8 486.9,835.4 487.5,836.0 488.1,836.6 489.0,837.3 490.3,837.7 491.5,838.2 493.1,838.5 494.5,838.7 495.6,839.1 496.9,839.3 498.2,839.5 499.2,839.9 500.4,840.3 501.3,840.6 502.2" style="fill:none;stroke:#00ffff;stroke-width:2"/>
<polyline points="863.1 489.1,862.4 490.4,860.5 494.1,860.0 495.2,859.7 495.8,859.5 496.8,859.4 497.6,859.3 498.4,859.2 499.1,859.2 499.8,859.4 500.8,859.8 501.0,860.6 501.3,861.5 501.5,862.6 501.6,863.8 501.6,865.0 501.7,865.9 501.4,867.1 500.8,868.3 500.2,869.3 499.3,870.2 498.2,871.0 497.1,871.5 495.6,871.8 494.2,872.0 492.9,871.6 491.2,870.9 490.1,869.7 489.0,868.5 488.1,867.3 487.6,866.0 487.2,864.7 486.9,863.7 486.8,862.8 486.7,862.2 486.6,862.5 486.2,863.3 486.1,864.2 485.7,865.3 485.2,866.4 484.7,867.9 483.8,869.3 483.1,870.9 482.4,872.4 481.7,874.1 481.0,875.7 480.6,876.8 480.3,877.9 480.1,878.8 480.0,879.6 479.9,880.4 479.9,881.1 479.9,881.8 480.1,882.8 480.8,883.6 481.7,884.4 482.7,885.1 483.8,885.8 485.0,886.2 486.3,886.8 487.8,887.4 488.9,887.7 489.9,888.0 491.1,888.4 491.7,888.6 492.5,888.8 492.9,888.9 492.3,889.0 491.9,889.0 491.1,889.0 490.4,889.1 489.7,889.4 488.7,889.8 487.9,890.3 487.2,890.8 486.1,891.7 485.0,892.4 484.4,893.1 483.7,893.8 483.3,894.5 483.0,895.2 482.8,895.9 482.7,896.6 483.2,897.2 483.6,898.2 484.7,899.0 485.8,899.7 487.3,900.7 488.9,901.8 491.3,903.0 493.1,904.0 494.4,905.1 495.6,906.3 496.3,907.9 496.8" style="fill:none;stroke:#00ffff;stroke-width:2"/>
<polyline points="952.4 485.8,945.8 488.4,944.4 489.8,943.1 492.4,943.3 492.6,942.9 493.6,942.8 494.6,942.7 495.8,942.6 497.0,942.5 498.2,943.0 500.1,943.5 500.8,944.9 501.3,946.7 501.7,948.3 501.7,949.5 501.1,950.5 500.4,951.4 499.4,952.2 498.0,952.7 496.7,953.1 495.2,953.0 493.7,952.8 492.3,951.3 490.6,949.7 489.7,948.3 488.8,946.9 488.2,945.8 487.9,945.1 487.6,944.7 487.7,944.4 488.0,944.2 488.7,944.3 489.3,945.2 490.0,946.1 490.6,947.5 491.0,949.1 491.3,950.8 491.4,954.2 490.9,955.4 490.5,958.2 489.4,958.9 488.9" style="fill:none;stroke:#00ffff;stroke-width:2"/>
<polyline points="952.4 485.8,952.4 487.3,951.7 486.5" style="fill:none;stroke:#00ffff;stroke-width:2"/>
<polyline points="967.1 505.1,967.7 507.8,967.7 510.4,968.4 512.4,968.3 512.9,968.4 514.0,968.4 514.9,967.8 515.0,967.3 514.2,967.0 513.0,966.5 511.6,966.3 509.9,965.8 508.2,965.6 506.0,965.4 503.8,965.3 501.6,965.2 499.5,965.7 497.5,967.1 494.6,968.5 492.2,969.9 490.5,971.3 489.1,972.4 488.2,973.3 487.6,974.2 487.2,974.7 487.0,975.3 486.8,975.7 487.0,976.2 487.6,976.8 488.1,977.1 488.7,977.3 489.3,977.5 490.0,977.5 490.9,977.3 491.7,976.7 492.7,976.1 493.5,975.2 494.1,973.6 494.7,972.5 495.0,971.3 495.3,970.3 495.2,969.4 494.6,968.6 493.5" style="fill:none;stroke:#00ffff;stroke-width:2"/>
<polyline points="982.4 454.5,983.7 461.1,985.2 468.9,985.4 471.3,985.8 473.9,986.0 477.1,986.4 481.3,986.6 484.7,986.8 487.7,986.9 490.0,986.5 492.2,985.9 490.8,985.4 490.0,984.8 488.6,984.4 486.8,984.2 485.3,984.1 483.8,984.0 482.4,984.4 481.0,985.2 479.9,986.1 478.9,987.2 478.0,988.1 477.5,989.2 477.2,990.4 476.9,991.9 477.0,993.0 477.3,993.7 477.8" style="fill:none;stroke:#00ffff;stroke-width:2"/>
<polyline points="1000.4 488.4,1001.7 495.1,1001.7 497.1,1002.4 498.4,1002.3 498.8" style="fill:none;stroke:#00ffff;stroke-width:2"/>
<polyline points="1010.4 472.4,1010.4 473.9,1009.7 473.2" style="fill:none;stroke:#00ffff;stroke-width:2"/>
<polyline points="1015.1 487.8,1015.7 494.4,1016.4 495.8,1016.4 497.8,1016.4 498.0,1016.4 498.4,1016.4 497.8,1016.7 493.9,1017.1 493.1,1017.3 491.9,1017.7 490.9,1017.9 490.3,1018.4 489.9,1018.6 489.6,1019.0 489.5,1019.5 489.3,1020.1 489.3,1020.7 489.5,1021.3 489.6,1021.9 489.9,1022.3 490.4,1022.6 490.9,1022.7 492.3,1022.8 493.5,1022.9 494.8,1023.0 495.8,1023.0 496.8,1023.0 496.7,1023.0 495.7,1023.3 494.8,1023.7 493.7,1024.2 492.5,1024.8 491.6,1025.4 490.7,1025.7 489.9,1026.2 489.4,1026.5 489.1,1027.0 488.9,1027.5 488.7,1028.1 489.5,1028.4 490.3,1028.6 491.4,1028.8 492.2,1028.9 493.0,1028.9 493.7,1029.0 494.2,1029.3 494.5,1029.7 493.9,1030.5 492.5,1031.2 491.3,1031.8 490.3,1032.2 489.7,1032.8 489.3,1033.1 489.0,1033.6 488.8,1034.1 489.3,1035.0 490.0,1035.7 490.9,1036.2 492.0,1036.7 493.7,1037.1 494.8,1037.3 495.6,1037.4 496.4,1037.5 497.1,1037.6 498.1,1037.6 498.6" style="fill:none;stroke:#00ffff;stroke-width:2"/>
<polyline points="1048.4 489.8,1049.1 495.8,1049.1 497.1,1049.3 499.7,1049.5 500.7,1049.5 501.5" style="fill:none;stroke:#00ffff;stroke-width:2"/>
<polyline points="1051.7 473.1,1051.7 474.6,1051.0 473.9" style="fill:none;stroke:#00ffff;stroke-width:2"/>
<polyline points="1069.7 481.8,1071.7 481.1,1073.1 481.1,1077.1 481.4,1078.6 481.5,1079.9 481.6,1081.0 481.7,1082.0 481.7,1083.1 482.0,1083.2 482.4,1083.1 482.9,1083.1 483.8,1082.2 485.0,1081.3 486.3,1080.5 487.3,1079.5 488.4,1078.3 489.6,1077.1 490.9,1074.7 493.4,1074.1 494.0,1071.9 496.0,1071.1 496.7,1070.1 497.3,1069.3 497.9,1068.5 498.6,1067.7 499.3,1067.0 500.2,1066.9 500.7,1066.4 501.3,1066.2 501.7,1066.0 502.2,1065.9 502.8,1065.9 503.1,1066.1 503.6,1066.7 504.2,1067.6 504.7,1068.6 505.4,1070.0 506.0,1071.9 506.6,1073.5 507.3,1075.0 507.7,1076.2 508.2,1077.2 508.5,1078.1 508.7,1078.6 508.8,1079.5 509.0,1080.0 509.0,1081.5 509.1,1081.9 509.1,1082.3 509.1" style="fill:none;stroke:#00ffff;stroke-width:2"/>
<polyline points="1063.7 490.4,1069.1 493.8,1071.1 494.4,1075.1 496.4,1075.0 496.4,1076.1 496.9,1078.1 498.1,1078.7 498.6,1079.8 499.0,1080.7 499.3" style="fill:none;stroke:#00ffff;stroke-width:2"/>
<polyline points="1104.4 499.1,1109.7 499.1,1111.0 498.4,1113.0 497.1,1113.3 497.0,1114.2 496.5,1115.5 495.4,1116.2 494.6,1117.0 493.9,1117.5 493.1,1117.8 492.1,1118.0 491.3,1117.5 490.2,1116.8 489.4,1115.9 488.6,1114.6 488.1,1113.0 487.5,1111.6 487.1,1109.4 487.2,1107.9 487.7,1106.7 488.2,1105.6 489.1,1104.7 490.1,1104.2 491.2,1103.8 492.4,1103.6 493.6,1103.4 494.9,1103.3 496.2,1103.8 497.5,1104.2 498.8,1104.8 500.1,1105.6 501.4,1106.7 502.7,1108.1 504.4,1110.0 506.3,1111.0 506.9,1111.9 507.7,1113.1 508.1,1116.2 509.1" style="fill:none;stroke:#00ffff;stroke-width:2"/>
<polyline points="1134.4 492.4,1131.7 495.8,1131.7 497.1,1131.0 498.4,1131.1 499.0,1131.1 499.8,1131.1 500.5,1131.3 501.2,1131.7 501.9,1132.2 502.3,1133.3 502.6,1134.1 502.5,1134.9 501.9,1136.0 500.8,1136.5 499.4,1137.2 498.1,1137.9 496.5,1138.2 494.8,1138.5 493.0,1138.4 491.4,1138.1 490.1,1137.1 489.4,1136.1 488.8,1135.3 488.5,1134.2 488.5,1133.3 489.0,1132.8 489.8,1132.4 490.5,1132.2 490.9" style="fill:none;stroke:#00ffff;stroke-width:2"/>
<polyline points="1140.4 454.5,1139.7 453.1,1139.0 456.5,1139.0 457.0,1139.0 458.6,1139.0 465.7,1139.0 473.0,1139.0 479.5,1139.0 485.8,1139.3 491.3,1140.0 493.1,1140.9 495.2,1142.8 497.1,1144.8 498.2,1146.5 498.9" style="fill:none;stroke:#00ffff;stroke-width:2"/>
<polyline points="1200.4 488.4,1198.4 486.4,1197.0 485.8,1195.0 485.8,1194.5 486.3,1193.4 487.1,1192.0 488.7,1191.0 490.0,1190.1 491.1,1189.2 492.3,1188.7 493.8,1188.4 495.2,1188.2 496.9,1188.0 498.4,1188.2 500.1,1188.8 501.6,1189.6 503.1,1190.9 504.5,1192.7 505.7" style="fill:none;stroke:#00ffff;stroke-width:2"/>
<polyline points="1221.7 505.8,1225.7 508.4,1227.7 508.4,1230.7 508.1,1232.4 507.2,1234.1 506.2,1235.9 504.8,1237.2 503.2,1239.6 499.6,1240.1 498.0,1240.7 496.3,1241.0 494.7,1240.7 493.2,1238.6 492.0,1236.3 491.3,1233.9 490.8,1231.7 490.7,1229.5 491.2,1227.4 492.2,1225.9 493.3,1224.7 494.7,1223.9 496.0,1223.4 497.4,1223.3 498.4" style="fill:none;stroke:#00ffff;stroke-width:2"/>
<polyline points="1259.0 495.1,1259.7 501.1,1259.7 503.1,1259.4 505.8,1259.3 506.8,1259.2 507.3,1259.1 507.7,1259.1 506.5,1259.1 505.0,1259.3 501.5,1260.3 499.7,1261.0 498.1,1262.0 496.2,1262.3 495.8,1262.8 495.3,1263.4 495.0,1263.7 494.8,1264.2 495.0,1265.0 495.6,1265.7 496.4,1266.4 498.2,1267.1 499.7,1267.5 500.9,1267.8 501.6,1268.0 502.4,1268.1 502.8,1268.5 503.1,1268.6 502.5,1269.3 501.4,1270.5 500.1,1272.4 498.1,1272.6 498.0,1273.3 497.7,1273.6 497.8,1274.1 498.3,1274.4 499.1,1274.9 500.1,1275.1 500.9,1275.6 501.7,1275.8 502.2,1276.3 502.8,1276.5 503.4,1277.0 503.7,1277.2 504.0" style="fill:none;stroke:#00ffff;stroke-width:2"/>
<polyline points="1289.7 465.8,1294.3 471.1,1295.7 474.4,1296.3 477.8,1296.5 478.3,1297.2 481.9,1297.6 484.7,1297.8 487.5,1298.0 489.9,1298.1 492.2,1298.2 494.2,1298.0 496.6,1297.9 496.9,1297.8 497.5,1297.5 496.9,1297.3 496.2,1297.2 495.6,1297.1 494.7,1297.1 493.9,1297.3 493.4,1298.0 492.8,1298.6 492.5,1299.2 492.2,1300.1 492.1,1300.9 492.0,1301.7 492.2,1302.4 492.8,1303.1 494.2,1303.5 495.2,1303.8 496.4,1304.0 497.6,1304.1 498.9,1303.9 500.4,1303.5 501.9,1302.8 503.3,1302.2 504.6,1301.5 505.7,1301.1 506.7,1300.6 507.2,1300.3 507.6,1299.8 507.1,1299.5 506.3,1299.1 505.1" style="fill:none;stroke:#00ffff;stroke-width:2"/>
<polyline points="501.9 626.4,501.9 626.4,633.1 626.5,764.4 626.6,895.7 626.7,1027.0 626.8,1158.2 626.9,1322.3 627.0" style="fill:none;stroke:#ffa500;stroke-width:2"/>
<polyline points="578.5 625.7,578.5 625.7,577.2 592.4" style="fill:none;stroke:#ffa500;stroke-width:2"/>
<polyline points="652.5 630.4,652.5 630.4,655.2 596.4" style="fill:none;stroke:#ffa500;stroke-width:2"/>
<polyline points="732.5 626.4,732.5 626.4,734.5 597.7" style="fill:none;stroke:#ffa500;stroke-width:2"/>
<polyline points="801.8 626.4,801.8 626.4,803.8 597.1" style="fill:none;stroke:#ffa500;stroke-width:2"/>
<polyline points="874.4 624.4,874.4 624.4,877.1 599.7" style="fill:none;stroke:#ffa500;stroke-width:2"/>
<polyline points="953.1 623.7,953.1 623.7,956.4 597.7" style="fill:none;stroke:#ffa500;stroke-width:2"/>
<polyline points="1026.4 627.7,1026.4 627.7,1029.7 601.7" style="fill:none;stroke:#ffa500;stroke-width:2"/>
<polyline points="1101.0 625.0,1101.0 625.0,1102.4 603.1" style="fill:none;stroke:#ffa500;stroke-width:2"/>
<polyline points="1178.4 623.7,1178.4 623.7,1181.0 601.1" style="fill:none;stroke:#ffa500;stroke-width:2"/>
<polyline points="566.5 565.1,566.5 563.7,567.2 562.4,568.5 560.4,569.8 558.8,570.5 557.7,571.2 556.8,571.9 555.7,572.6 554.8,573.3 553.6,573.7 553.0,574.2 553.3,574.3 554.6,574.6 555.7,574.8 557.2,574.9 558.6,575.0 560.0,575.4 561.6,575.5 563.1,575.6 564.8,575.7 566.3,575.7 567.8,575.8 569.5,576.1 571.0,576.2 572.2,576.3 573.5,576.4 574.5,576.7 575.4" style="fill:none;stroke:#ffa500;stroke-width:2"/>
<polyline points="650.5 563.1,650.5 561.7,651.2 558.4,651.6 558.5,651.9 558.2,652.4 558.0,652.9 557.9,653.5 557.9,653.8 557.8,654.3 558.1,654.6 558.5,654.8 558.9,654.9 559.8,655.0 560.5,655.0 561.4,655.1 562.2,655.1 563.0,655.1 563.7,654.9 564.7,654.7 565.6,654.7 566.3,654.3 567.1,654.2 568.1,653.8 568.9,653.6 569.7,653.2 570.4,652.9 571.1,652.8 571.8,652.4 572.2,652.2 573.1,652.1 573.5,651.7 574.1,651.5 574.7,651.4 575.3,651.3 575.9,651.3 576.3,651.2 576.8,651.2 577.4,651.2 578.0,651.2 578.6,651.5 580.3,651.9 580.3,652.3 580.6,652.9 580.8,653.8 580.9,654.5 580.9,655.5 581.0,657.1 581.0,657.7 581.0,661.8 581.3,662.0 581.5" style="fill:none;stroke:#ffa500;stroke-width:2"/>
<polyline points="722.5 559.7,722.5 557.1,723.8 555.1,724.2 554.6,724.8 554.3,725.4 553.9,726.3 553.6,727.1 553.4,727.8 553.3,728.5 553.2,728.9 553.2,729.5 553.1,729.8 553.7,730.0 554.5,730.2 556.6,730.0 558.1,729.7 559.7,729.2 560.8,728.7 561.9,728.1 562.5,727.8 562.9,727.3 563.2,727.0 563.4,727.7 563.5,728.2 563.9,728.8 564.3,729.1 565.1,729.9 567.9,730.0 569.6,729.9 571.9,729.6 574.0,728.9 575.8,728.0 577.4,727.2 578.7,726.5 579.5,725.8 580.0,725.1 580.3,724.7 580.6,724.1 580.7,723.8 580.3,723.6 579.8" style="fill:none;stroke:#ffa500;stroke-width:2"/>
<polyline points="807.1 552.4,805.8 554.4,805.1 555.7,803.3 559.1,802.8 559.8,802.2 560.7,801.8 561.6,801.3 562.0,801.0 562.7,800.8 563.0,800.7 563.5,801.2 563.8,801.7 564.0,802.5 564.1,803.5 564.2,804.6 564.3,805.5 564.3,806.3 564.4,807.1 564.4,808.4 565.2,808.5 566.2,808.7 567.5,808.9 569.1,808.9 570.8,809.0 572.3,809.0 573.8,809.1 576.6,809.7 577.7,810.5 579.2,811.5 580.0" style="fill:none;stroke:#ffa500;stroke-width:2"/>
<polyline points="871.1 561.1,871.1 562.4,871.7 567.3,873.8 566.4,874.0 565.9,875.0 565.6,875.7 565.5,876.4 565.3,877.2 565.5,878.1 567.0,878.9 568.8,879.7 570.6,880.2 573.0,880.5 575.1,880.7 577.6,880.8 579.5,880.9 581.2,880.7 582.5,880.6 583.4,880.6 583.9,880.2 584.3,879.8 584.0,879.3 583.4,878.5 582.2" style="fill:none;stroke:#ffa500;stroke-width:2"/>
<polyline points="869.8 563.1,874.4 561.7,876.4 561.7,879.1 561.1,879.5 560.9,880.6 560.7,881.8 560.3,882.7 560.2,883.8 560.0,884.7 559.9,885.6 559.9,886.4 559.8,887.1 559.8,887.8 559.8" style="fill:none;stroke:#ffa500;stroke-width:2"/>
<polyline points="964.4 559.1,963.1 558.4,961.7 558.4,959.7 560.4,959.8 560.7,959.0 561.6,958.0 562.6,956.9 564.3,956.1 565.8,955.2 567.2,954.8 568.9,954.4 570.4,954.2 571.8,954.0 573.5,954.2 574.7,954.6 576.1,955.0 577.4,956.1 578.4,956.9 579.1,957.7 579.5,958.4 579.8,958.9 579.7,959.4 579.7,960.0 579.5,960.4 578.8,960.6 578.2,960.8 577.5,960.9 576.9,960.9 576.2,961.0 575.6,961.0 575.2,961.0 574.6,960.8 574.4,960.4 574.1,959.6 574.0,959.0 573.9,958.6 573.9,958.3 574.4" style="fill:none;stroke:#ffa500;stroke-width:2"/>
<polyline points="1031.1 560.4,1030.4 559.1,1031.7 557.7,1033.1 557.1,1033.7 557.2,1034.7 557.1,1035.5 557.1,1036.9 557.1,1040.7 557.4,1040.8 557.8,1041.4 558.3,1041.7 558.8,1042.0 559.7,1042.1 560.7,1042.2 562.6,1042.0 564.5,1041.6 566.7,1041.2 568.7,1040.1 573.2,1039.8 574.9,1039.3 576.9,1039.0 578.6,1038.5 579.9,1038.3 581.0,1038.1 582.0,1038.0 582.5,1037.8 583.5,1037.5 583.7" style="fill:none;stroke:#ffa500;stroke-width:2"/>
<polyline points="1030.4 576.4,1034.4 575.1,1036.4 575.1,1042.3 575.3,1043.8 575.7,1044.8 576.2" style="fill:none;stroke:#ffa500;stroke-width:2"/>
<polyline points="1091.0 576.4,1093.7 569.7,1095.0 568.4,1095.7 566.4,1095.9 566.2,1096.1 564.9,1096.2 563.8,1096.2 562.6,1096.3 561.3,1095.8 560.0,1095.3 558.7,1094.4 557.7,1093.4 556.8,1092.3 556.2,1091.1 555.8,1090.2 555.6,1089.0 555.4,1087.5 556.1,1086.7 556.7,1085.9 557.6,1085.4 558.4,1085.1 559.1,1084.8 559.8,1084.7 560.5,1084.9 561.5,1085.5 562.5,1086.0 563.7,1086.9 564.9,1088.0 566.7,1089.1 568.3,1090.0 569.7,1090.8 570.9,1091.6 572.2,1092.4 573.5,1092.8 574.5,1093.1 575.7,1093.3 577.2,1093.4 578.8,1093.0 580.3,1092.2 582.4,1091.3 583.7,1090.8 584.6,1090.1 585.2,1089.5 585.6,1089.1 585.9,1088.6 585.8,1088.0 585.2,1087.7 584.4,1087.5 583.4,1087.3 582.3,1087.2 581.1,1087.5 580.2,1087.5 579.3,1088.4 578.8,1089.4 578.2,1090.5 577.8" style="fill:none;stroke:#ffa500;stroke-width:2"/>
<polyline points="1186.4 553.7,1183.7 553.1,1181.7 553.1,1179.7 553.7,1179.5 554.2,1178.5 554.8,1177.5 555.6,1176.3 556.7,1175.1 558.1,1174.2 559.1,1173.6 560.0,1173.2 560.9,1172.9 561.7,1172.7 562.4,1172.6 562.8,1172.8 563.4,1173.4 563.7,1174.3 564.0,1175.3 564.4,1176.4 564.6,1177.6 564.8,1178.6 564.6,1179.7 564.3,1180.6 563.5,1181.5 562.6,1182.0 561.8,1182.3 560.8,1182.6 560.0,1182.7 558.9,1182.8 558.0,1182.9 557.2,1182.7 556.5,1182.6 556.0,1182.5 556.5,1182.4 557.3,1182.4 558.2,1182.4 559.8,1182.7 561.2,1183.1 562.6,1183.5 564.0,1184.1 565.9,1184.4 567.7,1184.9 569.7,1185.1 571.6,1185.6 573.6,1185.8 575.6,1186.0 577.5,1186.1 579.5,1185.4 581.8,1184.8 583.4,1183.9 584.6,1183.1 585.4,1182.1 586.0,1181.0 586.3,1179.8 586.3,1178.5 585.8,1177.5 585.0,1176.7 584.0,1176.1 582.9" style="fill:none;stroke:#ffa500;stroke-width:2"/>
<polyline points="1355.6 606.4,1352.3 604.4,1351.0 604.4,1348.5 604.9,1346.0 606.9,1343.4 609.7,1341.4 612.1,1339.9 614.0,1338.9 616.1,1338.3 617.8,1338.1 619.4,1338.5 621.0,1339.8 622.4,1341.5 623.6,1343.8 624.5,1346.7 625.1,1349.7 625.6,1352.8 625.5,1355.7 625.0,1358.6 624.3,1360.8 623.0,1362.7 621.6,1363.9 619.9,1364.7 618.4,1365.0 616.7,1364.4 615.2,1363.0 613.7,1361.3 612.3,1358.9 611.2,1356.5 610.5,1354.0 609.7,1352.0 609.3,1350.3 609.0,1348.9 609.1,1348.1 609.6,1347.5 610.1" style="fill:none;stroke:#ffa500;stroke-width:2"/>
<polyline points="1355.6 606.4,1355.6 607.9,1354.9 607.1" style="fill:none;stroke:#ffa500;stroke-width:2"/>
<polyline points="1369.6 618.4,1369.6 619.7,1371.0 621.7,1371.0 624.4,1371.5 625.3,1371.8 627.6,1371.9 630.1,1372.1 632.6,1372.1 635.2,1372.2 639.7,1372.0 641.5,1371.9 643.2,1371.5 644.5,1371.3 645.6,1371.2 646.3,1371.1 646.0,1371.1 644.2,1371.0 639.2,1371.3 636.0,1371.4 632.2,1371.5 624.8,1371.6 621.9,1371.9 616.0,1372.3 614.1,1373.4 611.8,1374.4 610.2,1375.6 609.1,1376.8 608.4,1378.1 608.3,1379.4 608.6,1380.7 609.6,1382.0 611.2,1382.7 613.1,1383.3 615.3,1383.3 617.6,1382.6 620.4,1380.6 623.6,1378.8 625.9,1377.2 627.4,1375.7 628.4,1374.3 628.5,1373.1 627.3,1372.1 624.8" style="fill:none;stroke:#ffa500;stroke-width:2"/>
<polyline points="1384.3 581.7,1385.6 588.4,1385.6 591.1,1386.3 594.4,1386.2 595.5,1386.3 597.9,1386.5 600.8,1387.0 605.2,1387.2 608.9,1387.3 612.3,1387.4 615.1,1387.8 619.1,1388.0 620.1,1388.1 621.1,1388.5 621.2,1388.6 620.6,1388.8 619.5,1389.1 618.1,1389.6 616.5,1390.1 614.5,1390.6 612.5,1391.2 610.3,1391.6 607.9,1392.4 604.8,1392.8 603.2,1393.6 601.2,1394.8 598.2,1395.2 597.7,1395.6 597.0,1395.8 596.6,1396.3 596.3,1396.8 596.1,1397.6 596.8,1398.3 597.7,1398.8 598.9,1399.0 600.5" style="fill:none;stroke:#ffa500;stroke-width:2"/>
<polyline points="1403.0 614.4,1403.0 621.0,1402.3 625.7,1402.4 626.1,1402.4 627.5,1402.3 629.1,1402.0 632.4" style="fill:none;stroke:#ffa500;stroke-width:2"/>
<polyline points="1407.6 597.1,1407.6 598.6,1406.9 597.8" style="fill:none;stroke:#ffa500;stroke-width:2"/>
<polyline points="1414.3 615.7,1413.6 622.4,1413.6 625.0,1413.0 627.0,1413.1 627.5,1412.7 628.6,1412.6 629.7,1412.5 630.4,1412.4 630.0,1412.7 627.7,1413.0 625.5,1413.5 623.4,1414.9 619.2,1415.5 617.9,1416.0 616.4,1416.6 615.2,1416.9 614.5,1417.5 614.0,1418.0 613.7,1418.6 613.5,1419.2 613.6,1419.8 614.2,1420.2 615.3,1420.5 616.7,1420.6 618.6,1420.7 620.4,1420.8 622.1,1420.9 623.9,1420.9 625.7,1420.9 624.0,1421.2 619.6,1422.2 617.8,1422.9 615.9,1424.2 614.2,1424.9 613.1,1425.4 612.4,1425.9 612.0,1426.3 611.7,1426.5 612.3,1426.9 613.1,1427.2 614.1,1427.3 615.2,1427.4 616.3,1427.8 617.6,1427.9 618.8,1428.1 619.8,1428.1 621.0,1428.2 621.9,1428.2 622.8,1428.2 623.3" style="fill:none;stroke:#ffa500;stroke-width:2"/>
<polyline points="1443.0 611.7,1443.0 615.0,1442.3 619.0,1442.3 621.0,1442.0 621.5,1441.9 622.9,1441.8 624.1,1441.7 625.4,1441.7 626.5" style="fill:none;stroke:#ffa500;stroke-width:2"/>
<polyline points="1453.0 589.7,1453.0 591.2,1452.2 590.5" style="fill:none;stroke:#ffa500;stroke-width:2"/>
<polyline points="1459.6 611.7,1466.6 611.7,1469.0 613.0,1468.6 613.4,1468.3 614.0,1467.5 614.9,1466.5 615.9,1465.5 616.8,1464.0 617.9,1462.7 618.8,1461.6 619.6,1460.4 620.3,1459.4 621.1,1458.6 621.8,1457.8 622.5,1457.0 623.2,1456.1 624.2,1456.1 624.7,1455.9 625.3,1456.1 625.9,1456.4 626.3,1456.9 626.8,1457.4 627.4,1458.0 628.0,1458.6 628.3,1460.5 629.1,1461.5 629.5,1462.5 629.8,1463.4 630.3,1464.2 630.5,1464.6 630.7,1465.2 631.1,1465.6 631.3,1465.8 631.7,1466.0 632.2,1466.4 632.5" style="fill:none;stroke:#ffa500;stroke-width:2"/>
<polyline points="1449.6 617.7,1452.3 619.7,1454.3 621.0,1457.6 623.0,1457.9 623.0,1459.1 623.6,1461.5 624.4,1462.6 624.5" style="fill:none;stroke:#ffa500;stroke-width:2"/>
<polyline points="1484.9 619.7,1486.3 621.0,1487.6 621.0,1488.9 621.7,1489.3 621.6,1489.9 621.7,1490.5 621.7,1491.4 621.1,1492.2 620.6,1492.7 619.8,1493.3 618.8,1493.6 617.6,1493.8 616.7,1494.0 615.6,1494.1 614.7,1493.9 613.9,1493.5 613.1,1492.8 612.4,1492.1 611.9,1491.5 611.6,1490.5 611.4,1489.4 611.3,1488.6 611.8,1487.5 612.2,1486.6 612.8,1485.5 613.7,1484.9 614.4,1484.2 615.4,1483.8 616.2,1483.2 617.3,1482.9 618.7,1482.7 620.0,1482.6 621.3,1482.5 622.7,1482.4 623.7,1482.6 624.9,1483.0 625.9,1483.5 626.8,1484.3 627.9,1485.3 628.7,1486.4 629.3,1487.6 629.9,1488.8 630.6,1489.8 630.9,1490.7 631.2,1491.5 631.4" style="fill:none;stroke:#ffa500;stroke-width:2"/>
<polyline points="1508.3 618.4,1506.9 622.4,1506.9 623.7,1507.2 626.3,1507.6 626.7,1508.4 627.3,1509.1 627.7,1510.0 627.9,1511.4 627.8,1512.9 626.6,1514.4 625.3,1515.5 624.0,1516.2 622.4,1516.7 620.7,1517.0 619.2,1517.2 617.7,1516.8 616.6,1516.1 615.6,1514.9 615.0,1513.7 614.5,1511.6 614.5,1510.5 614.5,1509.5 614.7,1508.6 615.1,1508.1 615.3" style="fill:none;stroke:#ffa500;stroke-width:2"/>
<polyline points="1518.9 585.7,1518.9 587.7,1518.9 602.7,1518.9 615.0,1519.2 614.6,1519.3 617.5,1519.7 620.2,1520.2 622.6,1520.7 624.6,1521.3 626.4,1522.2 627.5,1522.6 628.2" style="fill:none;stroke:#ffa500;stroke-width:2"/>
<polyline points="1564.9 612.4,1563.6 611.0,1561.6 611.7,1560.3 613.7,1559.9 614.0,1559.0 614.9,1558.0 616.2,1557.2 617.5,1556.4 619.0,1555.3 621.3,1554.8 622.8,1554.4 624.0,1554.1 625.1,1554.5 626.0,1555.2 626.8,1556.1 627.6,1557.7 628.1,1559.6 628.4,1561.8 628.6,1564.4 628.8" style="fill:none;stroke:#ffa500;stroke-width:2"/>
<polyline points="1583.6 620.4,1583.6 625.7,1583.9 630.3,1584.5 631.0,1585.4 631.7,1586.8 632.2,1588.0 632.5,1591.3 631.1,1592.9 629.3,1594.6 627.3,1596.1 624.7,1597.6 622.2,1598.5 619.9,1599.1 617.7,1598.9 615.8,1598.4 614.1,1597.0 612.8,1595.5 611.8,1593.8 611.1,1592.3 610.6,1590.6 612.0,1589.3 613.6,1588.5 615.4,1588.0 617.2" style="fill:none;stroke:#ffa500;stroke-width:2"/>
<polyline points="1607.6 619.7,1608.9 625.7,1609.6 627.7,1609.6 629.7,1609.6 629.9,1609.6 630.9,1609.9 628.9,1610.3 627.6,1610.8 626.2,1611.3 625.1,1611.9 624.1,1612.5 623.3,1612.9 622.8,1613.4 622.4,1613.7 622.2,1614.1 622.0,1614.7 621.9,1615.2 621.9,1615.8 621.8,1616.5 621.8,1617.1 622.0,1617.5 622.4,1618.0 622.9,1618.3 623.4,1618.5 624.0,1618.6 624.9,1618.7 625.9,1618.8 627.6,1618.9 630.5,1618.9 631.4,1618.9 631.5,1619.2 629.0,1620.0 626.4,1620.5 624.9,1621.1 623.3,1621.8 621.8,1622.4 620.6,1622.8 619.9,1623.6 619.4,1624.0 619.0,1624.9 618.8,1625.6 619.2,1626.6 621.3,1627.1 622.3,1628.1 624.4,1628.5 626.6,1629.2 628.9,1629.8 631.4,1630.2 633.3,1630.4 635.1,1630.6 636.5,1630.7 637.6,1631.0 638.3" style="fill:none;stroke:#ffa500;stroke-width:2"/>
<polyline points="1637.6 598.4,1639.6 600.4,1641.1 604.5,1641.8 606.5,1642.4 608.6,1643.4 612.9,1644.1 616.8,1645.3 624.0,1645.5 626.3,1645.8 629.3,1645.9 631.5,1646.4 634.2,1646.5 634.7,1646.7 635.3,1646.7 635.6,1646.8 635.0,1646.8 634.0,1646.9 632.6,1646.9 630.8,1646.9 626.1,1647.2 625.0,1647.9 623.6,1648.8 622.8,1650.1 622.2,1651.9 621.8,1653.7 621.6,1655.9 621.7,1657.9 622.2,1659.9 623.0,1661.7 624.0,1663.3 625.1,1664.5 626.6,1665.6 627.9,1666.2 629.6,1666.7 631.0,1667.0 632.8,1666.9 634.3,1666.3 635.7,1665.3 637.2,1663.6 638.3,1661.6 639.0,1659.4 639.4,1657.0 639.7,1654.6 639.4,1652.3 638.7,1650.1 637.3,1648.3 635.7,1647.2 633.7" style="fill:none;stroke:#ffa500;stroke-width:2"/>
<polyline points="499.2 755.0,499.2 755.0,689.4 755.7,879.7 756.5,1069.9 757.2,1260.2 758.0,1450.4 758.7,1688.2 759.6" style="fill:none;stroke:#a52a2a;stroke-width:2"/>
<polyline points="599.8 757.6,599.8 757.6,602.5 727.7" style="fill:none;stroke:#a52a2a;stroke-width:2"/>
<polyline points="701.2 757.6,701.2 757.6,703.2 731.0" style="fill:none;stroke:#a52a2a;stroke-width:2"/>
<polyline points="799.8 759.0,799.8 759.0,802.5 729.7" style="fill:none;stroke:#a52a2a;stroke-width:2"/>
<polyline points="903.8 757.6,903.8 757.6,906.4 728.3" style="fill:none;stroke:#a52a2a;stroke-width:2"/>
<polyline points="1005.7 754.3,1005.7 754.3,1005.7 727.7" style="fill:none;stroke:#a52a2a;stroke-width:2"/>
<polyline points="1107.7 753.7,1107.7 753.7,1108.4 726.3" style="fill:none;stroke:#a52a2a;stroke-width:2"/>
<polyline points="1201.0 757.6,1201.0 757.6,1204.4 721.0" style="fill:none;stroke:#a52a2a;stroke-width:2"/>
<polyline points="1305.7 755.6,1305.7 755.6,1309.7 722.3" style="fill:none;stroke:#a52a2a;stroke-width:2"/>
<polyline points="1401.6 759.6,1401.6 759.6,1403.6 726.3" style="fill:none;stroke:#a52a2a;stroke-width:2"/>
<polyline points="579.8 701.7,580.5 700.3,583.2 698.3,585.2 697.0,587.3 695.5,589.5 694.1,591.8 692.5,594.3 690.7,596.8 688.6,599.0 686.9,600.9 685.0,602.4 683.4,603.9 682.1,604.7 681.0,605.3 680.4,605.7 679.9,606.2 680.5,606.2 681.8,606.4 685.1,606.4 687.1,606.5 691.3,606.5 695.4,606.8 697.2,607.2 697.6,608.0 697.8" style="fill:none;stroke:#a52a2a;stroke-width:2"/>
<polyline points="706.5 688.3,707.8 687.7,709.8 687.7,711.8 687.0,712.0 687.1,712.7 687.1,713.4 687.1,714.7 687.0,714.9 687.3,715.5 687.7,715.8 688.2,716.0 689.0,715.9 690.3,715.3 691.8,713.9 694.0,712.4 695.8,709.6 698.9,708.8 699.8,707.4 701.0,706.4 701.9,705.5 702.5,704.9 703.2,704.3 703.5,703.6 704.1,703.0 705.0,702.6 705.7,702.1 706.4,701.5 707.4,701.2 708.2,700.9 708.9,700.8 709.7,700.7 710.7,700.6 711.5,700.9 712.5,701.2 713.4,702.0 714.8,702.9 716.0,703.7 717.1,704.5 717.7,705.5 718.1,706.6 718.7,707.7 719.0,709.0 719.2,710.2 719.4,711.5 719.5,712.8 719.5,714.2 719.6,715.5 719.3,716.8 719.2,718.1 718.9,719.5 718.7" style="fill:none;stroke:#a52a2a;stroke-width:2"/>
<polyline points="805.1 686.3,803.8 683.7,804.5 682.4,806.5 681.7,807.0 681.8,807.8 681.7,808.8 681.7,812.1 682.0,812.8 682.7,813.9 683.3,814.8 684.2,815.3 685.8,815.7 687.2,815.7 688.5,815.4 689.9,814.8 691.0,813.9 692.2,812.9 692.9,810.6 694.1,809.8 694.3,809.1 694.5,808.4 694.7,808.0 694.8,808.8 694.9,809.7 694.9,810.7 694.9,811.8 695.5,812.7 696.1,813.6 696.9,814.1 697.7,814.4 699.5,814.1 701.5,812.9 703.5,811.5 705.5,809.6 707.5,807.5 709.2,805.4 710.8,803.7 712.0,802.1 713.1,800.5 713.7,799.4 713.8,798.6 713.5,798.4 711.4" style="fill:none;stroke:#a52a2a;stroke-width:2"/>
<polyline points="907.8 682.4,909.1 681.7,909.1 683.0,908.4 684.3,908.0 685.0,907.1 686.3,906.1 687.5,905.0 689.0,904.1 690.5,903.0 691.9,902.4 692.9,901.7 693.9,901.3 694.8,901.0 695.3,900.8 695.9,900.7 696.3,901.2 696.5,901.9 696.7,902.8 696.8,904.2 696.9,905.5 696.9,906.8 696.9,909.4 697.0,912.4 697.3,912.5 698.0,913.0 698.9,913.2 700.2,913.4 701.7,913.5 703.1,913.6 704.8,913.7 706.3,913.7 708.6,914.0 712.3,914.4 713.9,914.9 715.8" style="fill:none;stroke:#a52a2a;stroke-width:2"/>
<polyline points="1006.4 684.3,1006.4 685.7,1005.7 688.3,1005.6 689.0,1005.1 690.0,1004.6 691.1,1004.0 692.0,1003.4 692.8,1003.1 693.3,1003.6 693.9,1004.7 694.0,1005.8 694.1,1007.3 694.2,1008.9 694.2,1011.8 694.6,1013.0 695.3,1014.2 695.9,1015.2 696.5,1015.8 697.2,1016.5 697.8,1017.2 698.8,1017.3 699.6,1017.5 700.3,1017.3 701.3,1016.1 703.0,1015.0 704.4,1013.8 705.8,1012.9 706.9,1011.7 707.9,1010.8 708.8,1010.2 709.3,1009.6 709.6,1008.9 710.1,1008.5 710.4,1008.0 710.6,1007.4 710.7,1006.8 710.5" style="fill:none;stroke:#a52a2a;stroke-width:2"/>
<polyline points="1007.1 683.7,1011.1 679.7,1012.4 679.0,1013.7 679.0,1014.6 679.0,1015.8 679.3,1017.0 679.7,1018.2 680.2,1019.5 680.5,1020.8 680.9,1022.1 681.4,1023.4 681.7,1024.7 681.9,1025.8 682.1" style="fill:none;stroke:#a52a2a;stroke-width:2"/>
<polyline points="1115.0 681.7,1114.4 680.4,1112.4 680.4,1110.4 681.0,1110.2 681.5,1109.2 682.3,1108.2 683.3,1106.7 684.4,1105.4 685.9,1104.1 687.2,1101.4 690.2,1100.6 691.5,1098.9 694.4,1098.7 695.9,1098.3 697.5,1098.1 699.0,1098.6 700.4,1099.8 702.9,1100.7 703.7,1101.8 704.4,1103.0 704.8,1103.9 705.1,1104.8 705.3,1105.6 705.4,1106.3 705.5,1106.8 705.0,1107.1 704.5,1107.3 704.2,1107.2 703.8,1106.6 703.2,1105.7 702.7,1104.5 702.1,1103.2 701.4,1102.2 701.1,1101.3 700.8,1100.5 700.7,1100.0 700.6,1099.7 700.8,1099.5 701.4,1099.6 702.3" style="fill:none;stroke:#a52a2a;stroke-width:2"/>
<polyline points="1196.4 681.7,1204.8 681.7,1210.6 682.0,1210.9 682.1,1211.4 682.5,1211.7 682.9,1212.2 683.4,1212.5 684.9,1212.7 686.1,1212.8 687.4,1212.9 688.7,1212.9 690.0,1212.9 691.3,1212.7 692.7,1212.0 694.3,1211.1 696.0,1210.4 697.8,1209.7 699.4,1208.5 702.4,1208.4 703.3,1208.1 704.1,1208.0 704.9,1207.9 705.7,1207.8 706.4" style="fill:none;stroke:#a52a2a;stroke-width:2"/>
<polyline points="1199.0 697.0,1206.4 696.3,1209.7 696.3,1216.6 696.6,1218.4 697.0" style="fill:none;stroke:#a52a2a;stroke-width:2"/>
<polyline points="1305.0 696.3,1309.0 692.3,1312.3 688.3,1312.6 687.8,1313.3 686.2,1313.6 684.8,1313.9 682.6,1313.7 680.9,1312.9 679.6,1311.9 678.2,1310.6 677.1,1309.3 676.4,1307.7 675.7,1306.3 675.2,1304.9 674.9,1303.7 674.7,1302.8 674.9,1301.6 675.8,1301.0 676.7,1300.6 678.1,1300.3 679.7,1300.1 681.1,1300.2 682.8,1300.5 684.6,1301.2 686.4,1301.9 688.3,1302.9 691.9,1303.0 694.0,1303.3 696.3,1303.4 698.5,1302.9 700.6,1302.5 702.4,1301.6 704.3,1300.9 705.7,1300.2 706.8,1299.6 707.5,1298.9 708.0,1298.5 708.4,1298.2 708.6,1297.7 708.7,1297.2 708.0,1296.9 707.7,1296.7 706.6,1296.6 705.5,1296.5 704.4,1296.4 703.2,1296.7 701.9,1297.3 700.6,1298.2 699.3,1299.2 698.3,1300.7 697.6,1301.7 696.9,1302.6 696.5,1303.7 696.2,1304.6 696.1,1305.5 696.2,1306.3 696.5" style="fill:none;stroke:#a52a2a;stroke-width:2"/>
<polyline points="1413.0 682.4,1411.6 679.7,1410.3 679.7,1405.7 680.0,1404.5 680.6,1403.0 681.5,1401.5 682.6,1400.1 683.7,1398.8 685.2,1397.7 686.6,1397.0 687.9,1396.3 689.0,1395.8 690.2,1395.8 691.5,1396.3 692.5,1397.1 693.1,1398.0 693.5,1399.4 693.8,1401.0 694.0,1402.4 694.1,1403.8 693.9,1405.2 693.6,1406.3 692.8,1408.1 690.7,1408.4 689.8,1408.8 688.5,1409.1 687.5,1409.3 686.6,1409.4 685.8,1409.5 685.1,1409.5 684.6,1409.6 685.1,1409.6 685.6,1409.6 686.4,1409.6 688.3,1409.9 692.1,1410.0 694.4,1410.1 697.1,1409.9 699.7,1409.5 702.0,1408.8 704.0,1407.9 706.1,1406.8 707.5,1405.6 708.7,1404.4 709.5,1403.2 710.0,1401.6 710.3,1400.2 710.0,1398.8 709.3,1397.4 708.5,1396.1 706.9,1395.3 705.8,1394.7 705.1" style="fill:none;stroke:#a52a2a;stroke-width:2"/>
<polyline points="1614.9 715.7,1614.9 711.0,1615.6 712.3,1615.6 715.0,1615.6 715.4,1615.6 716.8,1615.6 720.9,1616.4 722.9,1617.1 721.7,1618.0 720.7,1618.8 719.6,1619.5 718.4,1620.3 717.5,1621.0 716.6,1621.7 715.8,1622.4 715.3,1622.8 714.7,1623.6 714.4,1624.3 713.9,1625.3 713.6,1626.6 713.4,1627.9 713.8,1630.6 715.3,1631.4 716.6,1632.4 718.0,1633.3 719.6,1633.8 721.3,1634.5 723.1,1634.8 724.5,1635.1 725.9,1635.2 726.9,1635.4 728.2,1635.4 728.9,1635.5 729.4" style="fill:none;stroke:#a52a2a;stroke-width:2"/>
<polyline points="1658.2 717.0,1653.6 724.3,1652.9 726.3,1652.2 727.7,1652.4 728.0,1652.3 729.2,1652.3 730.0,1652.8 732.3,1654.5 732.8,1655.8 733.3,1657.4 733.7,1658.9 733.3,1660.6 732.4,1662.1 731.4,1663.9 730.0,1665.4 728.4,1666.6 726.7,1667.6 724.9,1668.3 723.0,1668.7 721.3,1669.0 719.8,1669.2 718.3,1668.5 717.2,1666.8 715.9,1665.1 715.2,1663.6 714.7,1661.9 714.3,1660.4 714.4,1659.2 714.6,1658.1 715.0,1657.5 715.5,1657.1 716.1,1656.8 716.6,1656.9 717.0,1657.5 717.5,1658.5 717.8,1659.9 718.0,1661.5 718.1,1663.2 718.2,1665.3 718.2,1667.3 718.0,1669.3 717.6,1671.1 717.1,1672.7 716.9,1674.2 716.4,1675.6 716.2,1676.8 716.0,1677.7 715.6,1678.6 715.4,1679.4 715.3,1680.2 715.2,1680.9 715.1,1681.6 715.4,1682.3 715.5,1683.0 716.1,1683.7 716.7,1684.4 717.3,1685.0 718.2,1685.4 719.8,1685.7 721.2,1685.9 722.5,1686.0 723.9,1686.1 725.3,1685.8 726.3,1685.8 727.3,1685.7 727.8,1685.6 727.4,1686.2 726.4,1687.0 725.1,1687.9 723.6,1689.3 722.2,1690.6 721.1,1691.9 720.1,1692.9 719.5,1693.6 719.1,1694.6 719.2,1695.1 719.7,1695.8 720.7,1696.1 722.1,1696.4 723.6,1696.8 725.3,1697.1 727.2,1697.5 728.7,1698.3 730.5,1699.3 731.8,1700.6 732.9" style="fill:none;stroke:#a52a2a;stroke-width:2"/>
<polyline points="1729.5 726.3,1728.2 731.0,1728.2 732.3,1728.8 737.4,1729.6 738.4,1730.6 739.3,1731.9 739.9,1733.5 740.2,1735.5 739.9,1737.4 739.3,1739.7 737.9,1744.2 734.3,1745.7 732.7,1747.3 730.6,1748.3 728.9,1748.9 727.3,1749.3 725.7,1748.8 724.3,1747.8 723.1,1746.4 722.4,1744.6 722.0,1742.5 721.6,1740.5 721.7,1738.5 722.0,1737.0 722.4,1735.8 722.8,1735.1 723.7,1734.6 724.4" style="fill:none;stroke:#a52a2a;stroke-width:2"/>
<polyline points="1763.5 726.3,1763.5 733.7,1763.5 745.0,1763.5 751.6,1763.3 754.4,1762.9 754.0,1762.4 752.7,1761.8 749.1,1761.5 745.7,1761.3 742.1,1761.2 738.3,1761.1 734.7,1761.6 731.5,1762.6 728.8,1764.0 726.5,1765.5 724.6,1767.2 723.1,1769.0 722.2,1771.5 721.9,1773.1 722.4,1774.4 723.4,1775.2 725.0,1775.8 727.0,1775.6 729.2,1774.7 731.3,1773.5 733.3,1772.3 735.1,1771.1 736.1,1769.8 736.9,1768.8 737.4,1767.9 737.1,1767.3 736.0,1767.0 734.1" style="fill:none;stroke:#a52a2a;stroke-width:2"/>
<polyline points="1781.5 695.0,1783.5 701.7,1784.2 703.7,1784.9 707.0,1785.2 710.1,1785.3 712.7,1785.4 715.7,1785.5 721.6,1785.5 726.8,1785.5 731.5,1785.8 731.6,1786.2 730.1,1787.0 728.2,1787.7 726.1,1788.3 723.7,1789.0 721.3,1789.7 719.1,1790.6 717.2,1791.4 715.7,1792.2 714.6,1792.9 713.8,1793.6 713.3,1794.3 713.3,1795.0 714.0,1795.4 715.2" style="fill:none;stroke:#a52a2a;stroke-width:2"/>
<polyline points="1805.5 735.0,1805.5 736.5,1804.8 735.7" style="fill:none;stroke:#a52a2a;stroke-width:2"/>
<polyline points="1851.5 723.7,1850.2 721.7,1848.9 721.7,1847.5 722.3,1847.2 722.5,1846.6 723.2,1845.7 724.1,1844.6 725.8,1844.1 726.9,1843.4 727.8,1843.0 728.7,1842.7 729.5,1842.8 730.6,1843.4 731.7,1844.2 732.9,1845.2 734.1,1846.6 735.4,1848.4 736.7,1851.4 738.0,1854.0 738.8" style="fill:none;stroke:#a52a2a;stroke-width:2"/>
<polyline points="1868.8 731.7,1867.5 736.3,1868.8 738.3,1870.2 739.0,1870.8 739.1,1871.8 739.3,1873.2 739.4,1874.8 739.5,1876.2 739.0,1877.6 738.5,1879.0 737.7,1880.1 736.4,1881.1 735.2,1881.7 733.6,1882.1 732.2,1882.3 730.8,1881.6 729.7,1880.6 728.8,1878.3 727.9,1876.4 727.4,1874.4 727.3,1872.7 727.8,1871.4 728.5,1870.5 729.4,1870.0 730.2" style="fill:none;stroke:#a52a2a;stroke-width:2"/>
<polyline points="1886.2 729.0,1888.2 735.7,1888.2 737.0,1888.2 741.8,1888.5 742.4,1888.6 741.7,1888.9 741.0,1889.7 739.1,1890.1 737.7,1890.6 736.5,1890.9 735.5,1891.4 734.6,1891.6 734.1,1891.8 733.7,1891.9 733.2,1892.3 732.9,1892.7 732.7,1893.3 732.6,1893.8 732.5,1894.2 732.4,1894.7 732.7,1894.9 733.1,1895.1 733.5,1895.3 734.1,1895.3 734.6,1895.4 735.5,1895.4 736.6,1895.5 738.4,1895.5 738.6,1895.8 738.9,1896.5 738.1,1897.1 737.2,1898.0 736.1,1899.0 735.3,1899.9 734.5,1900.7 734.0,1902.0 733.7,1903.0 733.4,1903.9 733.6,1904.7 735.0,1905.2 735.6,1905.5 736.9,1905.7 738.1,1905.9 739.7,1906.0 741.1,1906.0 742.2,1906.4 743.2,1906.8 743.8" style="fill:none;stroke:#a52a2a;stroke-width:2"/>
<polyline points="1916.8 705.0,1918.8 708.3,1919.5 711.7,1920.3 715.6,1921.3 719.9,1921.6 722.5,1921.8 725.1,1921.9 728.0,1922.0 731.3,1921.8 734.5,1921.4 736.7,1921.2 738.4,1921.1 739.5,1920.9 740.0,1920.9 739.2,1921.7 737.8,1922.6 736.9,1923.4 736.2,1924.4 735.5,1925.3 735.2,1926.1 734.9,1927.1 734.7,1927.9 734.9,1929.0 735.2,1929.9 736.2,1930.7 737.2,1931.5 739.7,1931.9 741.8,1932.2 743.6,1931.9 745.6,1931.2 747.2,1930.6 748.8,1929.7 750.0,1928.6 750.8,1927.8 751.3,1927.0 751.6,1926.2 751.9,1925.5 751.2" style="fill:none;stroke:#a52a2a;stroke-width:2"/>
<polyline points="411.9 450.5,411.9 449.1,411.2 451.8,411.3 452.4,411.3 453.4,411.3 454.5,411.0 456.0,410.8 457.6,410.5 459.4,410.3 461.2,410.2 463.1,409.8 465.0,409.3 468.4,409.1 471.2,408.6 473.8,408.4 476.4,408.2 479.1,408.1 481.7,407.8 484.1,407.3 486.4,407.1 488.5,406.6 490.7,406.4 492.7,405.9 495.6,405.7 498.0,405.3 500.3,405.0 502.8,404.6 505.0,404.4 507.5,403.9 510.0,403.4 512.6,403.1 515.2,403.0 517.8,402.8 520.4,402.7 522.8,402.7 525.3,402.6 530.1,402.6 532.5,402.6 539.1,402.6 546.2,402.3 549.6,401.9 553.8,401.7 557.6,401.2 563.2,401.0 567.8,400.9 572.3,400.8 579.2,401.0 584.7,401.1 590.4,401.4 595.6,401.8 600.4,402.1 604.9,402.5 609.2,402.7 613.2,402.9 616.9,403.3 620.6,403.5 624.1,403.9 629.5,404.5 636.0,404.7 639.0,404.9 643.0,405.3 646.5,405.5 650.1,405.9 653.5,406.1 656.9,406.5 660.3,406.8 663.4,406.9 666.4,407.3 669.5,407.5 672.1,407.6 675.1,407.7 677.7,407.8 680.3,407.8 685.6,407.9 690.7,407.9 696.0,407.9 702.1,407.9 707.7,407.9 712.4,407.9 716.5,407.9 721.4,407.9 725.6,407.9 730.1,407.9 734.7,407.6 739.2,407.1 743.2,407.0 745.0,406.8 746.9,406.7 748.8,406.7 750.5,406.6 753.2,406.6 754.1,406.6 755.2" style="fill:none;stroke:#bebebe;stroke-width:2"/>
<polyline points="382.6 721.0,386.6 721.6,387.7 722.4,388.5 723.3,389.5 724.4,390.3 725.6,391.4 726.8,392.6 728.4,393.8 729.8,395.0 731.5,396.3 732.9,397.3 734.4,398.2 735.5,399.1 736.8,399.8 738.3,400.6 740.0,401.3 741.8,402.0 743.7,402.7 745.9,403.3 748.0,404.0 750.3,405.0 752.4,405.8 754.8,406.5 757.0,407.0 759.2,407.6 761.0,408.2 762.6,408.8 764.5,409.1 766.0,409.7 767.3,410.0 768.3,410.4 769.6,411.0 770.5,411.6 771.1,411.9 771.5,412.1 771.8,412.5 771.9,413.0 771.8,413.6 771.5,414.2 770.8,415.1 769.8,417.3 767.1,418.3 765.2,419.9 762.9,421.3 760.0,423.0 756.7,426.6 749.2,429.4 743.6,432.2 738.4,434.4 733.9,436.3 730.4,438.1 727.3,439.1 725.2,440.1 723.8,440.7 722.9,441.1 722.2,441.3 721.8" style="fill:none;stroke:#bebebe;stroke-width:2"/>
<polyline points="250.6 505.1,249.9 503.8,248.6 503.1,246.6 503.1,246.1 503.1,245.3 503.4,244.3 503.8,243.5 504.0,242.7 504.4,241.7 504.9,241.1 505.5,240.4 506.3,239.5 507.4,238.7 508.5,238.0 510.2,237.2 512.0,236.8 514.1,236.2 516.1,235.9 518.2,235.7 519.9,235.6 521.5,235.7 523.0,236.1 524.5,236.8 525.6,237.7 526.6,238.5 527.2,239.5 527.9,240.7 528.3,242.1 528.8,243.5 529.1,245.1 529.3,246.6 529.5,248.3 529.6,251.0 529.6,252.9 529.4,254.7 528.7,256.0 528.1,257.4 527.2,258.5 526.2,259.5 525.1,260.1 524.1,260.5 523.6,260.7 523.2,260.9 522.7" style="fill:none;stroke:#bebebe;stroke-width:2"/>
<polyline points="277.3 509.8,273.3 516.4,273.3 519.1,273.5 522.1,274.2 523.8,275.4 525.5,277.1 527.3,279.1 528.6,281.7 530.0,284.2 530.8,287.8 531.3,290.9 531.4,293.3 531.0,295.4 529.7,297.2 528.0,298.3 525.6,299.1 523.3,299.6 520.8,299.4 518.5,298.5 516.3,297.0 514.8,295.1 513.5,292.7 512.7,290.2 512.2,287.7 512.1,285.4 512.8,283.5 513.9,281.8 515.4" style="fill:none;stroke:#bebebe;stroke-width:2"/>
<polyline points="305.3 509.8,305.3 515.8,306.6 518.4,307.3 521.1,307.4 522.6,307.9 524.5,308.4 526.1,308.7 527.4,308.9 528.4,309.0 529.4,309.1 529.9,309.5 530.6,309.9 530.4,310.4 529.9,310.7 529.1,311.1 527.8,311.7 526.6,312.0 525.0,312.5 523.6,312.7 522.5,313.2 521.3,313.4 520.3,313.6 519.4,314.0 518.6,314.4 517.8,314.7 517.4,315.2 517.0,315.7 516.8,316.3 516.7,316.9 516.6,317.5 516.6,318.1 516.5,318.5 517.0,319.0 517.5,319.6 518.4,319.9 519.4,320.4 520.2,320.7 521.3,320.9 522.1,321.0 522.7,321.1 523.3,321.1 523.7,321.5 522.8,321.6 521.9,322.0 520.9,322.5 519.7,322.7 518.5,323.2 517.6,323.7 516.7,324.3 515.9,324.9 515.4,325.5 515.1,325.8 514.9,326.7 514.7,327.3 514.9,328.3 515.5,329.1 516.4,329.9 517.7,331.3 520.2,332.2 521.6,333.3 523.1,334.2 524.5" style="fill:none;stroke:#bebebe;stroke-width:2"/>
<polyline points="337.9 493.1,342.6 499.1,343.9 501.8,345.2 505.1,345.3 505.9,345.8 508.2,346.3 510.7,346.6 513.0,346.8 515.2,347.2 517.0,347.5 518.4,347.6 519.3,348.0 518.8,349.0 517.0,349.8 515.9,350.5 514.9,351.5 514.0,352.7 513.2,353.8 512.7,355.1 512.4,356.1 512.2,356.9 512.3,358.0 513.5,358.6 514.0,359.1 515.8,359.3 517.7,359.2 519.9,359.0 522.3,358.3 524.5,357.7 526.3,357.0 527.7,356.4 528.9,355.7 529.6,355.4 530.1,354.5 529.6,353.6 528.0" style="fill:none;stroke:#bebebe;stroke-width:2"/>
<polyline points="237.9 577.1,233.9 579.7,233.3 581.1,233.3 583.1,233.0 583.6,232.6 584.9,232.1 586.5,231.3 588.4,230.6 590.3,229.5 594.2,229.3 595.6,229.2 598.7,229.8 599.2,230.6 599.9,231.9 600.3,233.4 600.0,234.8 599.1,236.4 597.5,238.2 595.6,239.5 593.4,241.1 590.3,242.0 587.5,243.1 584.0,243.0 583.3,242.8 582.5,242.5 582.1,242.0 581.7,241.8 582.1,241.6 582.7,241.5 585.3,241.4 587.6,241.7 590.3,242.0 593.3,242.8 596.6,243.7 600.5,244.8 604.3,245.6 608.4,246.5 612.8,246.9 617.2,247.3 621.4,247.5 625.6,247.4 629.4,246.8 632.8,246.2 635.4,245.6 637.6,245.3 639.0,244.8 639.9,244.5 640.5,243.8 639.2,243.1 637.4,242.7 635.0,242.2 632.0,241.9 629.0,241.7 625.9,241.5 623.0,242.0 619.9,242.8 616.7,244.3 613.2,245.8 609.8,247.9 606.1,250.1 602.9,254.5 597.0,256.4 594.9,258.4 592.6,259.8 590.9,261.0 589.9,261.7 589.2,262.3 588.7,263.1 588.2,263.6 588.1,264.2 588.5,264.8 589.2,265.7 591.3,266.2 593.4,266.9 595.4,267.2 597.4,267.4 599.5,267.9 600.9,268.1 602.1,268.3 602.9,268.7 603.4,269.1 603.7,269.7 603.9,270.5 603.5" style="fill:none;stroke:#bebebe;stroke-width:2"/>
<polyline points="291.9 585.7,289.9 591.1,289.9 593.7,289.6 596.5,289.5 598.3,289.4 600.0,289.4 601.6,289.6 603.0,290.0 604.2,290.7 605.2,292.5 605.8,294.2 606.2,296.1 605.9,297.9 605.0,299.9 603.5,301.8 601.6,303.5 599.4,304.8 597.4,305.6 595.1,306.1 592.9,306.5 590.8,306.2 589.0,305.3 587.7,303.7 586.8,302.1 585.9,300.3 585.4,298.8 585.1,297.3 585.1,296.1 585.7,295.1 586.2,294.5 586.7,294.1 587.3,293.8 588.0,294.2 588.6,294.9 589.2,296.0 589.9,297.5 590.6,299.4 590.9,301.3 591.2,303.2 591.4,307.1 590.6,308.5 589.8,310.5 588.5,311.9 587.0,313.3 585.3,315.0 583.0,316.0 581.1,316.9 580.0,317.4 579.0,317.8 578.4,318.1 577.9,318.2 578.5,318.4 579.2,318.4 580.4,318.5 582.2,318.5 584.2,318.8 586.2,320.0 590.7,320.6 592.1,321.3 593.6,322.0 594.5,322.7 595.1,323.1 595.6,323.7 595.8,324.2 596.0,324.6 595.9,325.1 595.3,325.6 593.0,326.2 591.1,327.2 587.2,327.3 585.8,327.5 584.4,328.1 583.7,328.5 585.0,329.0 586.5,329.9 588.4,330.9 590.6,332.0 593.0,333.5 595.1,334.8 597.5,336.4 599.5,337.6 601.2,338.9 602.5,340.0 603.4,340.6 603.9,341.3 604.3,342.0 604.3,342.7 603.5,343.4 602.3,344.0 600.3,344.7 598.1,345.4 595.5,346.1 593.2,347.1 589.5,347.3 588.8,347.5 587.7,347.6 587.0,348.0 586.3,348.2 585.9" style="fill:none;stroke:#bebebe;stroke-width:2"/>
<polyline points="360.6 615.0,363.9 614.4,365.2 613.7,368.6 611.7,368.6 611.8,369.4 611.2,370.3 610.4,371.1 609.4,371.9 608.0,372.3 606.7,372.6 605.1,372.8 603.7,373.0 602.0,372.8 600.2,371.6 597.8,370.5 595.9,369.3 594.2,368.1 592.6,366.8 591.1,365.8 589.9,364.9 588.6,364.4 587.6,363.7 587.0,363.3 586.3,363.1 585.9,362.9 585.3,363.1 584.8,363.7 584.1,364.5 583.5,365.5 582.9,366.6 582.2,367.8 581.8,369.3 581.6,370.7 581.4" style="fill:none;stroke:#bebebe;stroke-width:2"/>
</svg>