<svg version="1.1" xmlns="http://www.w3.org/2000/svg" viewBox="523.9 259.4 1204.0 535.7">
<rect x="523.9" y="259.4" width="1204.0" height="535.7" fill="#202124" />
<polyline points="552.5 559.1,552.5 559.1,726.5 559.9,900.4 560.8,1074.3 561.6,1248.2 562.5,1422.2 563.3,1639.6 564.4" style="fill:none;stroke:#ffffff;stroke-width:2"/>
<polyline points="596.5 300.5,596.5 300.5,596.2 377.6,595.9 454.7,595.6 531.8,595.2 608.9,594.9 685.9,594.5 782.3" style="fill:none;stroke:#ffffff;stroke-width:2"/>
<polyline points="591.8 295.9,591.8 297.2,591.2 298.5,591.2 299.9,591.2 300.2,590.9 301.4,590.5 302.8,590.0 304.4,589.5 305.9,588.9 307.6,588.3 309.1,587.6 310.6,587.0 312.0,586.3 313.4,585.0 316.1,584.5 317.0,584.0 318.0,583.5 318.9,583.2 319.4,582.9 319.8,582.8 318.6,583.3 317.3,583.7 315.5,584.3 313.7,585.1 311.6,585.8 309.5,586.6 307.8,587.0 306.1,587.6 304.3,588.1 302.8,588.5 301.0,589.0 299.4,589.3 297.9,589.5 296.7,589.6 296.0,590.0 295.1,590.4 295.0,591.0 294.8,591.5 294.7,592.1 294.7,592.8 294.6,593.1 294.9,593.6 295.0,594.2 295.0,594.8 295.4,595.4 295.8,596.1 296.6,596.7 297.3,597.6 298.3,598.4 299.6,599.4 300.9,600.6 302.5,602.0 304.8,603.7 307.1,604.6 308.4,605.5 309.9,606.3 311.3,607.1 312.4,607.8 313.4,608.3 314.3,608.9 315.1,609.2 315.8,609.4 316.3,609.5 316.6" style="fill:none;stroke:#ffffff;stroke-width:2"/>
<polyline points="607.8 273.9,611.2 275.9,611.8 277.2,612.3 277.5,612.9 278.7,613.7 280.1,614.8 282.6,615.9 284.7,616.8 286.5,617.6 288.5,618.7 290.1,619.6 291.7,620.4 292.9,621.1 293.9,621.9 294.8,622.6 295.7,623.3 296.2,623.9 296.5,624.3 296.7,624.9 296.6,625.2 296.3,626.0 295.3,626.6 294.0,627.6 292.5,628.7 290.5,629.8 288.3,631.0 286.3,632.3 283.9,633.3 281.8,634.5 279.7,635.4 277.9,637.1 275.2,637.4 274.5,637.8 273.8,638.0 273.4,638.5 273.1,638.7 272.6,638.8 272.1" style="fill:none;stroke:#ffffff;stroke-width:2"/>
<polyline points="1633.6 553.1,1632.2 552.4,1634.2 552.4,1635.6 553.1,1636.2 553.3,1637.5 553.7,1640.7 554.5,1641.9 554.9,1645.4 556.0,1646.3 556.6,1647.8 557.2,1648.8 557.9,1649.5 558.3,1650.3 559.0,1650.4 559.5,1650.6 560.1,1650.1 561.2,1649.4 562.7,1648.2 564.6,1645.9 568.1,1643.9 570.7,1641.8 573.5,1640.1 575.7,1638.8 577.8,1636.7 581.3,1636.3 582.3,1635.8 583.6,1635.5 584.3,1635.7 584.9,1636.2 584.0" style="fill:none;stroke:#ffffff;stroke-width:2"/>
<polyline points="1682.9 559.1,1683.6 563.1,1683.6 565.1,1683.3 570.7,1683.2 572.5,1683.1 574.9,1683.0 577.4,1683.0 580.2,1682.9 585.6,1683.2 587.9,1683.9 590.5,1684.5 592.5,1685.4 594.4,1686.7 595.5,1689.6 597.1,1691.1 597.4,1692.7 597.5,1694.5 597.0,1696.3 596.0,1697.9 594.6,1699.2 593.1" style="fill:none;stroke:#ffffff;stroke-width:2"/>
<polyline points="1680.2 580.4,1683.6 579.7,1685.6 579.7,1687.6 579.1,1688.1 578.9,1689.7 578.7,1691.3 578.6,1693.1 578.5" style="fill:none;stroke:#ffffff;stroke-width:2"/>
<polyline points="603.8 556.4,602.5 556.4,602.5 555.1,601.8 553.1,601.9 552.8,601.9 551.9,601.9 550.9,601.9 547.0,602.1 543.7,602.3 540.7,602.7 539.4,602.8 537.8,603.3 535.1,603.5 533.8,603.9 532.4,604.1 530.9,604.2 529.6,604.6 527.9,604.8 526.2,605.2 524.3,605.4 522.4,605.8 520.5,606.0 518.8,606.5 517.0,606.7 515.4,607.1 513.3,607.4 511.9,607.8 510.7,608.0 509.4,608.5 508.4,609.5 506.2,610.1 505.3,610.7 504.0,611.6 502.4,612.4 501.0,613.2 499.9,613.9 499.2,614.6 498.4,615.3 498.0,615.7 497.7,616.0 497.5,616.4 497.4,616.9 497.3,617.5 497.8,618.1 498.3,618.7 499.1,619.1 500.1,619.6 501.2,620.2 502.7,620.8 504.6,621.4 506.7,622.0 509.0,622.7 511.8,623.1 514.4,623.6 517.3,624.5 523.5,625.2 530.1,625.4 533.1,625.8 536.7,626.0 540.2,626.2 543.3,626.3 546.3,626.4 549.2,626.4 554.4,626.7 556.4,626.9 558.8,627.0 561.0,627.3 563.5,627.5 566.0,627.6 568.5,628.0 571.1,628.1 573.5,628.3 576.0,628.3 578.8,628.7 581.5,628.8 584.2,628.9 586.9,629.3 589.3,629.5 591.6,629.9 593.8,630.4 595.6,630.9 597.3,631.5 598.9,632.4 600.4,633.1 601.5,634.1 602.5,635.0 603.4,636.0 604.2,637.2 604.7,638.1 605.1,639.2 605.0,640.4 604.5,641.4 603.4,642.5 602.0,643.4 600.4,644.6 598.4,645.5 596.5,646.0 594.5,646.7 592.8,647.1 591.0,647.3 589.1,647.5 586.9,647.6 584.2,648.0 581.4,648.1 578.4,648.3 573.5,648.3 569.4,648.4 565.2,648.4 557.7,648.5 551.6,648.5 545.9,648.5 540.4,648.5 533.1,648.8 530.1,648.9 526.3,649.3 522.8,649.7 519.6,650.3 516.8,650.8 514.3,651.4 512.0,652.1 510.1,652.7 508.3,653.3 506.1,654.0 504.4,654.7 502.5,655.3 500.8,656.0 499.5,656.6 498.2,657.0 496.8,657.6 495.8,658.2 494.8,658.8 494.3,659.1 493.6,659.6 492.9,660.2 492.6,660.5 492.3,661.0 492.1,661.5 492.0,662.1 491.9,662.7 491.9,663.4 492.1,664.0 492.8,664.7 493.4,665.3 494.3,666.0 495.3,666.7 497.0,668.0 501.1,668.3 503.5,668.9 506.6,670.1 512.8,670.3 515.6,670.9 518.8,671.5 521.7,671.8 524.3,672.3 526.7,672.9 529.0,673.5 532.0,673.8 533.6,674.6 539.0,675.5 544.8,675.8 547.9,676.3 551.2,676.6 554.5,677.1 557.3,677.3 560.1,677.5 562.5,677.9 564.9,678.1 567.4,678.2 569.6,678.3 571.8,678.4 574.2,678.4 579.5,678.5 580.7,678.7 582.5,679.2 584.4,679.6 586.1,681.1 589.8,682.0 591.4,684.4 595.8,685.4 597.6,686.5 599.8,687.4 601.9,688.3 603.7,688.8 605.4,689.4 606.6,689.8 607.4,690.3 608.0,690.6 608.3,691.0 608.3,691.6 607.8,692.1 606.4,692.8 604.7,693.7 602.3,694.4 599.9,695.2 597.2,695.9 594.2,696.3 591.4,696.9 587.0,697.2 583.0,697.7 578.9,697.9 575.2,698.1 571.6,698.2 567.8,698.3 563.9,698.4 555.8,698.4 548.0,698.5 540.7,698.5 534.9,698.8 532.6,698.9 529.6,699.3 526.8,699.7 524.3,700.0 521.7,700.4 519.4,700.9 517.1,701.5 515.0,702.4 512.6,703.4 510.4,704.2 508.3,705.3 506.2,706.5 504.7,707.4 503.2,708.3 502.3,709.0 501.4,709.8 500.8,710.5 500.5,710.9 500.0,711.5 499.7,712.1 499.5,712.7 499.4,713.4 499.0,714.3 498.5,715.3 498.3,716.2 497.8,717.0 497.6,717.8 497.4,718.2 497.0,718.8 496.9,719.1 496.7,719.6 496.6,720.2 497.7,720.8 498.4,721.4 499.4,722.0 500.5,722.7 502.0,723.3 503.6,724.0 505.6,724.4 507.9,724.9 510.5,725.5 513.1,725.8 516.0,726.0 519.6,726.2 522.5,726.6 525.0,726.7 527.4,726.9 530.2,727.0 532.9,727.0 535.9,727.1 542.2,727.4 548.4,727.8 552.1,728.0 555.8,728.6 561.5,728.7 563.7,728.9 566.4,729.2 569.0,729.4 571.7,729.5 574.3,729.9 577.0,730.1 580.5,730.5 583.2,730.7 586.1,730.9 588.5,730.9 590.6,731.0 592.4,731.1 594.0,731.4 595.6,731.5 596.8,731.9 597.8,732.1 599.0,732.5 599.7,733.0 600.7,733.5 601.5,734.1 602.3,734.7 603.3,735.4 604.2,735.7 605.0,736.3 605.4,736.5 606.0,736.7 606.4,737.2 606.6,737.6 606.7,738.5 606.6,739.2 606.2,739.9 605.8,740.9 605.0,741.9 604.3,742.8 603.3,744.2 601.4,745.2 599.9,746.1 598.4,746.7 597.0,747.3 595.6,747.7 594.2,748.0 592.8,748.1 591.8,748.5 590.5,748.7 589.3,748.9 588.0,749.2 585.6,749.4 583.5,749.5 581.4,749.9 579.4,750.1 577.4,750.2 575.3,750.3 573.6,750.6 572.3,750.8 571.2,750.9 570.2,751.0 569.6,751.0 568.6,751.1 567.9,751.4 567.1,751.5 565.5,751.9 563.9,752.1 562.4,752.2 561.0,752.3 559.6,752.6 558.5,752.8 557.5,752.9 556.7,753.0 555.6,753.0 554.7,753.1 553.5,753.1 553.3,753.4 553.0,753.8 553.1,754.3 553.1,754.6 553.3,755.0 553.5,755.6 553.6,756.1 553.9,757.0 554.1,758.0 554.5,758.9 554.7,760.0 555.1,761.4 555.3,762.7 555.7,764.4 555.9,765.8 556.1,767.5 556.2,769.3 556.3,770.9 556.6,773.5 556.7,775.7 557.1,777.6 557.3,779.3 557.5,781.2 557.8,782.8 558.0,785.4 558.2,786.6 558.3,787.7 558.3,789.5 558.4,790.2 558.4,790.4 558.7,791.0 558.8,791.5 558.9,792.1 559.0,792.4 559.0,792.9 559.0,793.5 559.0,794.1 559.3,794.7 559.5,795.6 559.6,796.7 559.6,797.5 559.7,798.6 559.7,800.6 559.7,805.4 559.7,806.5 560.0,808.5 560.1,810.4 560.2,812.1 560.3,813.6 560.6,815.4 560.8,816.9 560.9,819.3 560.9,823.1 561.0,824.5 561.0,828.5 561.1,832.7 561.1,836.9 561.1,841.7 561.1,846.9 561.1,852.1 561.1,857.3 561.1,861.6 561.1,866.4 561.1,869.2 561.4,869.2 561.5,869.7 561.6,870.2 561.6,870.8 561.7,871.7 561.7,872.7 562.0,873.6 562.1,874.6 562.2,875.8 562.3,877.0 562.6,878.0 562.7,879.1 562.9,880.3 562.9,881.8 563.0,885.5 563.0,890.7 563.1,895.9 563.1,901.4 563.1,905.4 563.1,909.5 563.1,914.2 563.1,919.3 563.1,920.9 562.8,922.9 562.7,925.9 562.5,927.0 562.5,928.2 562.2,929.2 562.0,930.1 561.9,930.9 561.9,931.7 561.8,932.4 561.8,933.1 561.8,933.9 561.5,934.0 561.1,934.1 560.6,934.2 560.0,934.3 559.2,934.3 558.1,934.4 556.7,934.4 553.4,934.4 547.9,934.4 543.6,934.4 539.2,934.4 534.4,934.4 529.0,935.3 521.8,935.6 519.9,936.2 516.6,937.0 513.4,937.8 510.5,938.8 507.6,940.7 501.9,941.7 499.7,942.9 497.3,943.9 495.4,944.8 493.9,945.3 493.0,946.0 492.4,946.3 491.9,946.9 491.7,947.2 491.5,947.6 491.4,948.2 491.3,949.0 491.5,949.8 492.1,950.8 493.0,951.8 493.7,953.0 494.8,955.1 496.4,955.9 497.0,957.1 498.0,958.0 499.1,959.1 500.3,960.1 501.6,962.1 504.8,962.7 506.1,963.6 508.0,964.4 510.1,965.1 512.7,965.5 515.5,965.8 518.8,966.0 522.0,966.1 525.6,966.2 529.0,966.0 532.4,965.7 535.7,965.5 539.1,965.3 542.5,965.3 545.8,964.9 553.5,964.6 560.7,964.3 563.8,963.8 567.7,963.3 571.3,963.0 574.5,962.8 577.5,962.4 580.2,962.2 582.6,962.0 584.6,961.9 586.7,962.2 588.5,962.8 590.1,963.4 591.3,964.3 592.7,965.3 593.7,966.2 594.4,967.5 595.1,968.8 595.8,969.8 596.2,971.0 596.5,972.0 596.7,972.8 596.8,973.9 596.9,974.8 596.9,975.6 597.0,976.4 597.0,977.4 597.0,979.3 596.8,980.3 596.6,981.3 596.3,982.4 595.8,983.3 595.3,984.5 594.2,985.4 592.8,986.2 590.9,987.0 588.5,987.7 585.7,988.5 582.5,988.9 579.1,989.2 575.2,989.4 571.0,989.5 566.7,989.3 562.0,988.7 557.3,988.1 552.7,987.2 548.0,986.5 543.6,985.1 537.6,984.5 533.1,984.0 530.2,983.7 526.6,983.5 522.6,983.4 519.0,983.3 515.5,983.2 509.5,983.4 507.5,983.8 505.2,984.0 503.6,984.1 502.3,984.5 501.2,984.7 500.5,984.8 500.0,985.2 499.4,985.6 499.1,986.2 498.3,986.7 497.7,987.6 497.0,988.7 496.0,990.1 495.2,991.4 494.5,992.7 493.7,994.0 493.3,995.1 493.0,996.0 492.8,996.9 492.7,997.9 492.6,998.8 492.8,999.6 493.5,1000.6 494.3,1001.5 495.4,1002.3 497.0,1003.0 499.0,1003.8 501.5,1004.5 504.6,1005.2 507.9,1005.6 511.8,1006.1 515.9,1006.4 520.2,1006.6 524.6,1006.8 528.8,1006.9 533.3,1006.9 537.8,1007.0 542.3,1007.3 546.9,1007.4 551.5,1007.5 556.2,1007.6 560.5,1007.6 564.8,1007.7 569.0,1008.0 572.8,1008.1 576.2,1008.5 579.3,1009.2 582.3,1010.8 587.3,1011.8 589.2,1013.3 591.9,1014.6 593.6,1015.7 595.0,1016.7 595.9,1017.5 596.5,1018.6 596.9,1019.4 597.2,1020.3 597.4,1021.0 597.5,1021.8 597.3,1022.5 597.2,1023.2 596.6,1023.8 596.0,1024.2 595.4,1024.8 594.8,1025.4 594.2,1026.0 593.5,1026.6 592.9,1027.9 591.3,1028.2 590.0,1028.8 588.2,1029.4 585.5,1029.7 582.4,1029.9 578.7,1030.1 575.0,1030.2 571.2,1030.0 567.0,1029.6 563.0,1028.9 558.9,1028.2 554.9,1027.6 550.9,1026.9 547.2,1025.6 540.3,1025.3 537.6,1025.0 532.8,1024.8 529.2,1024.7 525.6,1024.9 522.1,1025.2 518.9,1025.9 515.9,1027.2 511.1,1027.8 509.6,1028.2 508.0,1028.8 506.5,1029.1 505.3,1029.6 504.0,1030.1 503.0,1030.7 501.8,1031.3 501.2,1031.7 500.4,1032.2 499.7,1032.8 499.3,1033.6 498.7,1034.7 498.4,1035.5 498.2,1036.6 497.8,1037.7 497.6,1038.7 497.1,1039.8 496.9,1040.7 496.7,1041.5 496.6,1042.0 496.6,1042.9 497.1,1043.1 498.1,1043.6 499.5,1044.1 501.6,1044.4 503.9,1044.9 506.5,1045.5 509.7,1045.8 512.8,1046.0 516.3,1046.4 520.0,1046.6 524.1,1046.8 528.3,1046.9 533.0,1047.2 540.1,1047.5 548.7,1047.8 552.8,1048.3 557.7,1048.5 562.8,1049.0 567.7,1049.5 572.2,1050.1 576.6,1050.7 580.5,1051.3 584.3,1051.9 587.9,1052.9 592.0,1053.9 595.4,1054.8 598.3,1055.9 600.9,1057.6 604.6,1058.2 605.3,1058.7 606.5,1059.3 607.1,1059.7 607.5,1060.2 607.8,1060.5 608.0,1060.9 608.1,1061.5 608.2,1062.1 608.3,1062.7 608.0,1063.3 607.4,1063.9 606.5,1064.9 605.2,1065.6 603.7,1066.7 600.6,1067.2 599.0,1067.6 597.1,1068.1 594.9,1068.4 592.8,1068.6 590.5,1068.8 588.0,1068.9 584.9,1068.9 581.6,1069.0 574.0,1069.0 565.7,1068.8 557.2,1068.3 548.1,1067.7 541.5,1067.5 538.8,1067.4 535.5,1067.3 532.5,1067.2 529.1,1067.4 522.1,1067.8 519.2,1068.8 512.7,1069.6 510.5,1070.3 507.8,1071.1 506.0,1072.5 502.7,1073.1 501.4,1073.8 500.1,1074.5 498.8,1075.4 497.5,1076.5 496.4,1077.4 495.2,1078.2 494.2,1079.3 493.4,1080.1 492.6,1080.9 492.1,1081.4 491.5,1082.0 490.9,1083.0 489.6,1083.4 489.3,1083.7 488.7,1084.0 488.4,1084.4 487.9,1084.6 487.7,1085.0 487.5,1085.5 488.2,1086.1 489.3,1086.4 491.0,1086.9 493.0,1087.7 497.9,1087.9 500.4,1088.2 507.1,1088.2 509.9,1088.0 519.3,1087.9 523.3,1087.6 527.8,1087.4 532.1,1087.3 536.3,1087.2 540.4,1087.2 544.5,1087.1 551.9,1087.1 558.8,1087.1 565.5,1087.1 569.5,1087.1 573.9,1087.1 578.1,1087.1 582.3,1087.3 586.4,1087.7 590.5,1088.2 594.2,1088.8 597.6,1089.6 600.4,1090.4 603.0,1091.7 605.4,1092.3 606.8,1093.3 608.1,1093.9 608.8,1094.6 609.3,1095.2 609.4,1095.9 609.0,1096.5 607.9,1097.2 606.3,1097.6 604.1,1098.1 601.2,1098.4 598.0,1098.6 594.5,1099.1 590.8,1099.3 587.1,1099.4 583.2,1099.8 579.3,1100.3 575.4,1100.5 572.0,1101.0 568.8,1101.2 565.5,1101.4 562.5,1101.5 559.1,1101.6 555.4,1101.6 551.1,1101.6 546.8,1101.7 542.3,1101.7 537.8,1101.7 533.5,1102.0 529.6,1102.4 525.8,1102.9 522.2,1103.4 518.7,1104.0 515.3,1104.9 511.8,1105.9 508.5,1108.6 501.1,1110.0 497.8,1112.2 493.9,1115.0 489.2,1116.5 486.6,1118.4 484.2,1121.6 481.0,1122.5 480.2,1123.4 479.3,1123.9 478.8,1124.6 478.5,1124.9 478.8,1125.5 479.4,1125.8 480.9,1126.3 484.1,1126.5 485.7,1126.7 488.5,1126.8 491.7,1126.9 495.7,1126.9 499.8,1127.0 504.4,1127.0 509.3,1127.0 514.3,1127.0 519.4,1127.0 524.6,1127.0 529.8,1127.0 537.3,1127.3 543.3,1128.0 548.9,1128.6 553.9,1129.5 558.6,1130.9 563.3,1132.1 567.5,1133.7 571.6,1135.4 575.5,1137.2 579.1,1140.9 586.3,1142.3 588.5,1143.7 590.8,1145.2 592.5,1146.0 593.6,1146.6 594.3,1147.2 594.2,1147.3 592.9,1147.5 588.2,1147.0 583.4,1146.3 579.3,1145.9 575.7,1145.3 572.4,1144.7 569.6,1144.4 567.1,1143.9 564.7,1143.6 562.5,1143.4 560.0,1143.3 557.2,1143.2 554.0,1143.1 548.2,1143.1 543.1,1143.1 537.8,1143.4 530.2,1144.0 524.3,1144.6 518.6,1145.3 513.6,1146.2 509.2,1147.7 502.3,1148.6 500.1,1149.4 497.6,1151.0 493.4,1151.6 492.0,1152.7 490.2,1153.8 488.9,1154.7 487.8,1155.8 486.9,1157.0 486.0,1157.9 485.5,1159.1 485.1,1160.0 484.9,1160.5 484.8,1161.2 484.7,1161.9 484.6,1162.5 485.1,1163.2 485.9,1163.9 487.1,1165.6 490.9,1167.7 495.7,1168.5 498.6,1169.4 502.2,1170.2 506.2,1171.0 511.0,1171.4 515.8,1172.0 523.7,1172.3 530.6,1172.6 537.2,1172.7 543.6,1172.8 549.9,1172.9 555.5,1172.9 561.1,1173.2 566.0,1173.7 570.9,1174.2 575.2,1175.0 579.5,1177.1 585.0,1179.3 589.4,1181.6 593.8,1184.3 597.8,1187.3 601.6,1190.3 604.6,1193.5 607.4,1196.4 609.3,1199.0 610.8,1201.1 611.8,1202.9 612.4,1204.9 612.0,1206.3 611.1,1207.2 609.0,1207.8 606.5,1208.2 603.5,1208.2 600.2,1207.7 596.3,1206.9 592.5,1205.7 588.3,1204.2 584.0,1202.6 579.6,1200.2 573.7,1198.1 568.8,1196.3 564.1,1194.7 559.4,1193.1 554.5,1192.0 549.4,1190.9 544.2,1190.3 539.3,1189.9 534.1,1189.9 529.2,1190.6 524.7,1192.1 519.2,1193.4 515.0,1194.7 511.8,1195.7 509.3,1196.7 507.4,1197.2 505.9,1197.6 505.0,1198.1 504.4,1198.4 503.9,1198.9 503.7,1199.7 503.5,1200.1 503.4,1200.7 503.3,1201.3 503.2,1201.9 503.5,1202.6 503.5,1203.2 503.9,1203.9 504.6,1204.5 505.6,1205.5 506.6,1206.5 508.9,1207.7 511.1,1208.9 513.8,1209.9 516.4,1211.0 519.4,1211.9 522.4,1213.1 525.5,1214.0 528.7,1214.8 532.0,1215.3 535.3,1215.9 538.6,1216.3 541.9,1216.8 545.5,1217.1 548.6,1217.3 551.6,1217.4 555.1,1217.6 559.5,1217.6 560.5,1217.7 565.0,1217.7 565.4,1217.7 566.3,1218.0 567.7,1218.4 567.8,1218.8 568.0,1219.4 568.1,1220.5 568.2,1222.0 568.0,1224.1 567.6,1226.4 567.2,1232.3 566.1,1235.3 565.5,1241.1 564.6,1246.0 564.1,1250.9 563.5,1256.0 562.9,1260.9 562.5,1265.4 562.0,1270.1 561.7" style="fill:none;stroke:#00ff00;stroke-width:2"/>
<polyline points="1270.1 561.7,1282.3 560.4,1286.3 560.4,1291.3 560.1,1295.2 560.0,1301.1 559.9,1303.2 559.8,1307.8 559.8,1310.8 560.0,1311.7 560.2,1312.9 560.2,1313.6 560.3,1314.4 560.6,1314.8 561.0,1315.1 561.3,1315.5 561.4,1315.8 561.8,1316.3 562.0,1316.8 562.1,1317.3 562.2,1317.9 562.3,1319.1 562.3,1320.6 562.4,1323.7 562.4,1327.7 562.4,1332.7 562.4,1337.1 562.4,1341.3 562.4,1345.6 562.4,1348.0 561.8,1348.0 560.8,1348.1 557.7,1347.9 554.8,1347.8 551.8,1347.5 548.6,1347.3 545.4,1346.9 542.2,1346.7 538.9,1346.6 535.9,1346.5 533.0,1346.7 530.2,1347.1 527.7,1347.8 524.2,1348.5 521.5,1349.4 519.3,1350.5 517.3,1351.4 515.9,1352.4 515.0,1353.6 514.3,1354.6 513.9,1355.7 513.7,1356.6 513.5,1357.7 513.9,1358.9 515.7,1360.1 517.7,1361.4 520.5,1362.4 523.7,1363.3 527.7,1363.9 532.1,1364.2 537.1,1364.5 542.4,1364.6 548.0,1364.8 553.4,1364.8 558.5,1364.9 565.5,1364.9 570.9,1364.9 575.9,1365.5 580.6,1366.3 585.0,1367.3 589.1,1368.1 592.9,1369.2 596.2,1370.3 599.1,1371.5 601.4,1372.5 603.4,1373.4 604.9,1374.2 605.8,1374.7 606.4,1375.0 606.9,1375.6 607.3,1376.1 606.6,1376.7 605.5,1377.3 603.5,1377.9 600.8,1378.5 597.4,1378.9 593.4,1379.4 588.6,1380.0 583.4,1380.3 575.7,1380.5 569.7,1380.7 564.0,1380.8 558.7,1380.8 553.6,1380.6 548.6,1380.2 543.8,1380.0 539.0,1379.6 534.2,1379.4 529.5,1379.3 524.8,1380.0 519.3,1380.6 515.4,1381.5 512.6,1382.2 510.5,1382.7 509.1,1383.3 508.2,1383.6 507.6,1384.1 507.2,1384.7 507.0,1385.3 507.6,1386.7 510.1,1387.7 512.9,1388.6 515.9,1389.5 519.3,1390.0 522.8,1390.6 526.8,1391.6 535.3,1392.0 539.4,1392.6 544.4,1393.2 549.5,1393.9 554.6,1394.8 561.8,1395.5 567.3,1396.6 572.4,1397.7 577.2,1398.9 581.4,1400.1 585.0,1401.4 588.6,1402.7 591.8,1404.0 594.9,1405.0 597.5,1406.2 599.7,1407.7 601.6,1409.1 602.7,1410.2 603.5,1411.5 604.0,1412.7 604.4,1413.7 604.0,1414.6 603.4,1415.5 602.2,1416.2 600.8,1416.7 598.9,1417.3 596.8,1417.6 592.5,1417.8 588.4,1418.0 583.7,1418.1 579.2,1418.2 574.3,1417.9 569.3,1417.8 564.1,1417.5 558.9,1417.0 554.0,1416.5 548.8,1416.2 543.9,1415.8 538.8,1415.5 534.2,1415.3 528.0,1415.5 522.2,1415.8 518.0,1416.2 514.4,1416.8 511.4,1417.0 509.0,1417.5 507.2,1417.8 505.8,1417.9 504.9,1418.3 504.3,1418.5 503.9,1419.0 503.6,1419.5 503.5,1420.0 503.3,1420.6 503.3,1421.2 503.5,1422.1 504.1,1422.6 505.0,1423.2 506.0,1423.9 507.4,1424.5 509.0,1424.9 511.3,1425.4 515.6,1426.0 519.7,1426.3 524.4,1426.8 529.2,1427.3 534.2,1427.9 539.4,1428.3 544.3,1428.8 549.1,1429.6 553.6,1430.3 557.9,1431.3 562.5,1433.0 569.3,1434.4 574.8,1435.8 580.4,1437.2 585.6,1438.5 590.4,1439.9 594.6,1441.2 598.3,1442.6 601.1,1444.2 603.4,1445.6 605.4,1447.1 606.6,1448.7 607.4,1450.0 607.4,1451.0 607.0,1451.9 605.7,1452.5 603.9,1452.9 601.3,1453.1 598.3,1453.3 594.6,1453.4 590.6,1453.5 586.4,1453.5 582.4,1453.0 576.9,1452.5 572.5,1452.2 568.5,1451.7 564.4,1451.5 560.6,1451.3 556.7,1451.2 552.5,1451.1 548.1,1451.1 543.4,1451.0 538.4,1451.0 533.4,1451.3 528.2,1451.7 523.0,1452.1 518.3,1452.7 513.8,1453.3 509.8,1453.9 506.5,1454.2 503.7,1454.8 501.7,1455.0 500.1,1455.5 498.8,1455.8 498.0,1455.9 497.5,1456.3 496.9,1456.8 496.5,1457.4 496.3,1457.9 495.8,1458.5 495.6,1458.9 495.4,1459.4 495.6,1460.0 496.2,1460.6 497.1,1460.9 498.6,1461.1 500.5,1461.3 504.7,1461.4 508.7,1461.5 512.9,1461.5 517.3,1461.6 521.5,1461.6 526.0,1461.6 530.5,1461.9 534.7,1462.3 539.2,1462.8 543.4,1463.3 547.6,1463.9 551.5,1464.8 555.7,1465.8 559.8,1466.7 564.4,1467.5 569.0,1468.3 573.8,1469.0 578.6,1469.7 583.3,1470.4 587.7,1471.3 591.7,1472.1 595.5,1472.9 598.6,1473.6 601.4,1474.3 603.6,1475.3 605.2,1476.1 606.3,1477.6 607.8,1478.2 608.1,1478.7 608.1,1479.3 607.7,1479.9 606.9,1480.5 605.7,1480.9 603.9,1481.4 602.2,1481.7 600.3,1481.9 598.4,1482.3 595.4,1482.5 592.6,1482.9 590.2,1483.1 587.3,1483.9 584.3,1484.8 580.9,1485.5 577.6,1486.6 574.0,1487.1 570.9,1487.8 567.3,1488.2 563.9,1488.1 557.9,1487.6 552.6,1487.1 547.0,1486.3 541.5,1485.9 536.4,1485.6 531.1,1485.4 526.1,1485.2 521.5,1485.7 517.1,1486.4 513.1,1487.4 509.3,1488.7 504.8,1490.3 501.2,1493.1 495.0,1494.3 493.0,1496.4 489.4,1497.1 488.7,1497.8 487.9,1498.1 487.7,1498.7 488.3,1499.3 490.8,1499.6 493.4,1499.8 496.2,1500.3 499.2,1500.5 502.3,1500.9 505.5,1501.1 509.0,1501.6 512.4,1502.4 520.1,1503.0 531.3,1503.2 536.9,1503.3 543.5,1503.7 549.8,1504.2 556.0,1504.7 562.4,1505.3 568.6,1505.6 574.8,1506.4 580.6,1506.8 586.2,1507.6 591.2,1508.3 595.9,1509.0 600.1,1510.0 604.5,1511.4 608.2,1512.4 610.7,1513.3 612.4,1513.8 613.5,1514.5 614.2,1514.8 613.9,1515.1 612.7,1515.3 608.6,1515.4 604.1,1515.2 598.8,1514.5 590.0,1513.7 582.6,1512.7 575.7,1511.6 569.3,1510.1 563.3,1508.7 557.5,1507.1 551.8,1505.9 546.6,1504.6 541.2,1503.8 535.9,1503.3 530.6,1503.0 525.0,1503.3 519.8,1504.2 514.8,1505.2 509.9,1506.6 505.6,1507.9 501.9,1509.3 498.8,1510.3 496.7,1511.2 495.0,1512.1 493.9,1512.6 493.2,1513.2 492.7,1514.1 492.4,1514.9 493.0,1515.6 494.1,1516.6 495.8,1517.4 498.0,1519.3 504.4,1520.3 507.9,1521.5 512.3,1522.5 516.9,1523.3 521.5,1524.1 526.5,1525.2 533.2,1526.4 541.0,1527.0 544.2,1527.7 548.2,1528.4 551.5,1529.3 554.4,1530.1 557.6,1531.2 560.5,1532.0 563.3,1533.1 565.8,1534.0 568.7,1534.8 571.2,1535.6 573.0,1536.0 574.4,1536.6 575.5,1536.9 576.5,1537.1 577.2,1537.3 577.6,1537.7 577.3,1538.1 577.2,1538.7 576.9,1539.3 576.7,1539.9 576.6,1540.5 576.5,1541.4 576.5,1542.7 576.5,1546.1 576.4,1551.5 576.4,1552.6 576.1,1554.7 576.0,1558.3 575.6,1559.9 575.1,1562.0 574.9,1564.0 574.5,1566.0 574.2,1568.6 573.8,1570.8 573.6,1573.0 573.4,1575.1 573.3,1576.9 573.2,1578.9 573.2,1580.5 572.9,1582.4 572.7,1584.0 572.6,1585.5 572.5,1587.2 572.5,1588.8 572.2,1590.8 572.0,1591.9 571.9,1593.3 571.6,1594.6 571.4,1595.9 571.3,1597.2 571.2,1598.3 571.2,1599.2 571.1,1600.3 571.1,1603.4 571.1,1604.7 570.8,1606.2 570.7,1607.6 570.6,1609.1 570.5,1610.4 570.5,1611.8 570.5,1615.7 570.4,1615.8 570.4,1616.4 571.0,1615.7 571.5" style="fill:none;stroke:#00ff00;stroke-width:2"/>
<polyline points="598.5 556.4,596.5 556.4,594.1 557.0,594.0 557.5,593.9 558.1,593.9 558.7,593.9 559.5,594.1 560.0,594.8 560.4,595.4 560.6,596.3 560.8,597.4 560.9,598.2 560.9,599.3 561.0,600.5 560.5,601.1 560.2,602.2 559.5,602.7 558.9,603.1 558.2,603.6 557.3,603.9 556.5,604.1 556.0,604.2 555.4,604.3 555.1,604.4 554.6,603.9 554.0,603.4 553.4,602.8 553.1,602.2 552.9,601.6 552.7,600.7 552.6,599.9 552.5,599.2 552.5,598.5 552.8,597.8 552.9,597.4 553.2,596.8 553.7,596.3 554.4,597.0 554.5,597.8 554.2" style="fill:none;stroke:#ff0000;stroke-width:2"/>
<polyline points="624.5 516.4,625.2 517.8,625.2 519.1,625.5 523.5,625.6 524.3,625.9 525.0,626.4 525.8,626.6 526.2,627.1 526.5,627.6 526.7,628.2 526.8,628.8 526.6,629.1 526.0,629.6 525.2,629.9 524.4,630.1 523.4,630.2 522.3,630.3 521.4,630.1 520.6,629.7 519.8,629.6 519.4,629.1 519.1,628.7 518.6,628.1 518.3,627.5 518.1,626.9 518.0,626.3 517.9,625.6 517.9,625.0 518.1,624.3 518.8,623.7 519.6,623.0 520.7,622.6 521.8,622.4 523.0,622.2 524.8,622.4 526.3" style="fill:none;stroke:#ff0000;stroke-width:2"/>
<polyline points="632.5 593.7,631.2 593.1,629.2 593.7,629.3 594.1,629.2 594.7,629.2 595.3,629.5 595.9,630.2 596.9,630.5 597.4,631.0 597.7,631.5 597.9,631.9 598.1,632.3 598.2,632.9 598.0,633.2 597.6,633.4 596.9,633.6 595.7,633.4 594.8,633.3 593.9,632.7 593.1,632.1 592.4,631.5 591.7,630.6 591.3,629.9 591.0,629.2 590.8,628.4 590.7,628.0 590.6,627.7 591.1,627.6 591.6,627.7 592.1" style="fill:none;stroke:#ff0000;stroke-width:2"/>
<polyline points="648.5 538.4,647.2 538.4,643.8 540.4,643.9 540.9,643.6 542.0,643.2 543.1,643.0 544.3,642.8 545.6,642.7 546.6,643.2 547.4,643.7 548.3,644.2 548.7,645.1 549.1,645.8 549.3,646.5 548.9,647.2 548.2,647.7 547.6,647.9 546.9,648.1 546.2,648.2 545.6,648.0 545.2,647.7 544.7,647.3 544.4" style="fill:none;stroke:#ff0000;stroke-width:2"/>
<polyline points="675.2 536.4,673.8 535.8,672.5 538.4,672.5 538.7,672.5 539.6,672.5 540.6,672.8 542.6,673.2 542.8,673.7 543.1,674.2 543.3,674.5 542.9,674.7 542.2,675.2 541.0,675.4 539.5,675.5 538.2,675.6 537.1,675.4 536.2,675.1 535.3,674.9 534.8,674.7 534.5,674.7 535.1,674.6 536.1" style="fill:none;stroke:#ff0000;stroke-width:2"/>
<polyline points="679.8 595.1,677.2 593.1,676.5 594.4,677.2 595.7,677.6 595.5,678.5 595.6,679.2 595.6,679.9 595.7,680.9 595.7,681.4 595.4,682.0 594.7,682.4 594.1,682.7 593.5,682.5 592.6,682.2 592.1,681.8 591.7,681.1 591.5,680.7 591.4,680.1 591.3,679.8 591.5,679.6 591.8,679.4 592.6,679.3 593.2,679.8 594.2,680.6 594.7" style="fill:none;stroke:#ff0000;stroke-width:2"/>
<polyline points="705.8 513.1,704.5 514.4,703.8 515.8,703.8 517.1,704.4 516.0,704.6 515.2,704.8 514.2,704.9 512.8,705.0 510.5,705.1 510.0,704.8 508.7,704.7 508.5,704.4 508.3,704.2 508.9,704.1 509.5,704.0 510.3,703.9 511.4,703.9 512.5" style="fill:none;stroke:#ff0000;stroke-width:2"/>
<polyline points="726.5 585.7,727.8 586.4,728.5 587.7,729.9 589.1,730.6 589.3,731.0 589.5,731.5 589.6,731.8 589.3,732.0 589.0,732.2 588.2,732.3 587.3,732.3 586.2,732.4 585.1,731.6 584.1,731.0 583.3,730.0 582.8,729.2 582.4,728.5 582.2,727.8 582.0,727.4 582.2,727.1 582.8,726.9 584.0,726.7 585.1,726.7 586.3,726.6 587.0,726.6 588.3,726.8 589.2,727.5 590.1,728.4 590.6" style="fill:none;stroke:#ff0000;stroke-width:2"/>
<polyline points="941.1 512.4,939.8 511.8,938.4 511.8,937.0 512.3,936.8 512.8,936.7 513.4,936.6 514.0,936.5 514.7,936.5 515.3,936.5 515.7,937.0 515.9,937.5 516.1,938.1 516.2,938.4 516.3,938.9 516.3,939.5 516.1,940.1 515.4,940.4 514.5,940.6 513.5,940.8 512.7,940.9 511.9,941.0 511.1,941.0 510.7,940.7 510.1,940.4 509.8,939.6 509.5,939.2 509.4,938.7 509.3,937.8 509.5,937.4 509.9,936.8 510.3,936.4 511.1,936.2 512.1,936.1 513.2,936.0 514.1" style="fill:none;stroke:#ff0000;stroke-width:2"/>
<polyline points="963.7 572.4,962.4 572.4,960.4 573.7,960.3 574.1,960.1 574.7,960.0 575.3,959.9 576.0,959.8 576.3,960.4 576.6,960.9 576.7,961.2 576.3,960.8 576.7,960.7 577.3,960.6 578.8,961.4 580.1,961.7 580.8,962.8 581.4" style="fill:none;stroke:#ff0000;stroke-width:2"/>
<polyline points="984.4 521.1,983.7 523.8,982.4 523.8,983.1 525.1,983.6 524.9" style="fill:none;stroke:#ff0000;stroke-width:2"/>
<polyline points="1025.7 539.1,1024.4 539.1,1024.4 540.4,1024.4 545.0,1025.0 544.6,1025.5 544.8,1026.1 544.0,1026.4 543.5,1026.6 543.1,1026.8 544.0" style="fill:none;stroke:#ff0000;stroke-width:2"/>
<polyline points="1064.4 587.7,1064.4 589.2,1063.6 588.5" style="fill:none;stroke:#ff0000;stroke-width:2"/>
<polyline points="1064.4 585.1,1064.4 586.4,1065.7 587.7,1066.1 587.7,1066.7 587.7,1067.0 587.7,1067.8 588.0,1067.9 588.4,1068.4 588.6,1068.6 587.9,1068.7 587.4,1068.8 586.8,1068.9 586.2,1069.0 585.5,1069.0 585.2,1069.3 585.7,1069.7 586.8,1070.5 587.6" style="fill:none;stroke:#ff0000;stroke-width:2"/>
<polyline points="1109.7 508.4,1109.7 509.9,1109.0 509.2" style="fill:none;stroke:#ff0000;stroke-width:2"/>
<polyline points="1171.0 515.8,1166.4 519.1,1165.7 520.4,1165.1 522.1,1165.1 522.7,1165.1 523.6,1165.3 524.4,1166.0 525.1,1166.9 525.8,1168.2 526.2,1169.5 526.5,1171.3 526.1,1172.6 525.5,1173.7 524.6,1174.3 523.5,1174.8 522.7,1175.1 521.6,1174.7 520.4,1174.1 519.5,1172.9 518.9,1171.7 518.5,1170.5 518.3,1169.0 518.1,1168.1 518.0,1167.5 518.2,1167.4 518.5,1167.8 519.3" style="fill:none;stroke:#ff0000;stroke-width:2"/>
<polyline points="1219.0 539.1,1217.7 539.1,1216.3 539.7,1215.2 540.9,1214.9 541.4,1214.4 542.3,1214.2 543.3,1214.0 544.7,1213.9 545.8,1213.8 547.0,1213.8 548.2,1214.0 550.1,1214.4 550.5,1215.2 550.9,1215.8 551.2,1216.5 551.4,1217.2 550.9,1217.8 549.9,1218.5 548.9,1219.2 546.6,1219.5 545.2,1219.8 544.0,1219.7 543.0,1219.4 542.4,1218.7 541.9,1217.8 541.7,1217.1 542.0,1216.3 542.4,1215.9 543.5,1215.6 544.5" style="fill:none;stroke:#ff0000;stroke-width:2"/>
<polyline points="1354.3 511.8,1353.0 513.1,1352.3 515.1,1351.8 517.6,1351.7 518.7,1351.7 519.5,1352.2 520.6,1353.0 521.5,1354.0 522.3,1355.1 522.8,1356.3 523.1,1357.5 523.3,1358.8 523.5,1359.8 523.3,1360.7 522.7,1361.2 521.8,1361.6 521.1,1361.8 520.4,1361.7 519.4,1361.4 518.6,1360.7 517.8,1359.8 517.1,1358.5 516.4,1357.2 516.0,1356.2 515.7,1355.3 515.5,1354.5 515.4,1354.0 515.3,1353.7 515.5" style="fill:none;stroke:#ff0000;stroke-width:2"/>
<polyline points="1381.6 586.4,1381.6 588.4,1381.9 592.0,1382.0 592.4,1382.4 592.6,1382.9 592.7,1383.4 592.8,1384.3 592.4,1385.0 591.6,1386.0 590.4,1386.5 589.2,1386.9 587.9,1387.1 586.7,1387.3 585.6,1386.9 584.7,1386.1 584.2,1385.2 583.8,1384.1 583.6,1383.0 583.7,1382.1 584.2,1381.2 585.1,1380.7 586.3,1380.3 587.6,1380.7 588.8" style="fill:none;stroke:#ff0000;stroke-width:2"/>
<polyline points="1446.3 538.4,1445.0 538.4,1445.0 539.7,1444.3 541.1,1444.4 541.4,1444.3 542.0,1444.3 542.9,1444.6 544.4,1445.0 544.7,1445.5 545.1,1446.0 545.3,1446.9 545.2,1447.9 544.9,1449.0 543.9,1449.9 542.9,1450.8 541.7,1451.5 540.5,1452.0 539.6,1452.3 538.7,1452.2 538.2,1451.7 537.5,1450.9 537.2,1449.9 536.9,1448.8 536.7,1448.0 536.9,1447.1 537.5,1446.6 538.4,1446.3 539.7,1446.6 540.9,1447.3 541.9" style="fill:none;stroke:#ff0000;stroke-width:2"/>
<polyline points="1506.9 540.4,1506.3 545.1,1506.3 547.1,1506.6 550.0,1507.0 550.3,1507.7 550.6,1508.1 550.5,1508.7 549.9,1509.0 548.8,1509.2 547.4,1509.3 545.8,1509.4 544.4,1508.9 543.0,1508.2 541.8,1506.9 541.2,1505.7 540.7,1503.9 540.7,1502.7 541.4,1501.9 542.6,1501.4 544.0,1501.3 545.1" style="fill:none;stroke:#ff0000;stroke-width:2"/>
<polyline points="738.5 420.5,737.1 419.8,736.5 421.1,736.5 422.5,736.5 422.8,736.5 423.7,736.5 428.5,736.2 430.2,736.1 432.5,735.9 436.3,735.9 437.7,735.8 442.6" style="fill:none;stroke:#ffff00;stroke-width:2"/>
<polyline points="736.5 460.5,736.5 466.5,736.8 471.0,736.9 472.0,737.0 473.1,737.0 474.3,737.1 475.6" style="fill:none;stroke:#ffff00;stroke-width:2"/>
<polyline points="738.5 511.1,738.5 516.4,738.5 517.8,738.5 519.1" style="fill:none;stroke:#ffff00;stroke-width:2"/>
<polyline points="738.5 541.7,738.5 543.2,737.7 542.5" style="fill:none;stroke:#ffff00;stroke-width:2"/>
<polyline points="736.5 559.7,735.8 565.7,735.8 567.7,735.5 570.2,735.4 571.6,735.3 573.1,735.3 574.8,735.2 576.3,734.9 578.1,734.8 579.6" style="fill:none;stroke:#ffff00;stroke-width:2"/>
<polyline points="731.8 602.4,731.8 609.1,731.8 610.4" style="fill:none;stroke:#ffff00;stroke-width:2"/>
<polyline points="730.5 638.4,730.5 643.7,730.2 647.6,730.1 648.6,730.0 650.0,729.6 651.3" style="fill:none;stroke:#ffff00;stroke-width:2"/>
<polyline points="727.8 671.0,726.5 678.4,726.5 680.4,726.2 682.0,726.1 682.9,726.0 683.9,725.9 684.8,725.9 685.9,725.8 686.9" style="fill:none;stroke:#ffff00;stroke-width:2"/>
<polyline points="943.8 436.5,943.8 438.5,943.5 442.4,943.1 443.7,942.6 445.2,941.1 450.5,940.8 451.9,940.4 454.9" style="fill:none;stroke:#ffff00;stroke-width:2"/>
<polyline points="941.1 472.4,941.1 477.1,941.1 478.4,941.1 481.1,941.1 481.5" style="fill:none;stroke:#ffff00;stroke-width:2"/>
<polyline points="942.4 494.4,941.8 501.1,941.1 502.4,941.1 503.8,941.1 504.1,941.1 505.0,941.1 506.0" style="fill:none;stroke:#ffff00;stroke-width:2"/>
<polyline points="945.1 533.1,945.1 534.6,944.3 533.8" style="fill:none;stroke:#ffff00;stroke-width:2"/>
<polyline points="947.8 547.7,943.1 553.1,943.1 554.4,943.1 556.4" style="fill:none;stroke:#ffff00;stroke-width:2"/>
<polyline points="935.8 614.4,935.8 621.7,935.8 623.7,935.8 625.0,935.8 625.4,935.8 626.6" style="fill:none;stroke:#ffff00;stroke-width:2"/>
<polyline points="934.4 647.7,934.4 653.0,933.8 656.4,933.8 657.7,933.5 658.3,933.1 659.6,932.9 661.1" style="fill:none;stroke:#ffff00;stroke-width:2"/>
<polyline points="929.8 679.0,927.8 685.0,927.8 686.3,927.8 687.7" style="fill:none;stroke:#ffff00;stroke-width:2"/>
<polyline points="929.1 703.0,927.8 709.0,927.8 710.3,927.8 711.7,927.8 712.0,928.0 712.6,928.4 713.2" style="fill:none;stroke:#ffff00;stroke-width:2"/>
<polyline points="1222.3 446.5,1221.7 450.5,1221.7 452.5,1221.4 454.4,1221.3 455.4,1221.2 456.5,1220.9 457.7,1220.7 459.2,1220.6 460.6,1220.5 462.6" style="fill:none;stroke:#ffff00;stroke-width:2"/>
<polyline points="1221.0 477.1,1219.7 483.1,1219.7 484.4,1219.0 485.8,1219.1 486.1,1219.1 487.0,1219.1 488.0" style="fill:none;stroke:#ffff00;stroke-width:2"/>
<polyline points="1218.3 505.8,1216.3 512.4,1216.3 513.8" style="fill:none;stroke:#ffff00;stroke-width:2"/>
<polyline points="1215.7 533.8,1214.4 540.4,1213.7 541.7,1213.7 543.1,1213.7 543.7,1213.7 544.7,1213.7 546.1" style="fill:none;stroke:#ffff00;stroke-width:2"/>
<polyline points="1221.7 581.1,1221.7 584.4,1221.0 587.7,1221.1 588.3,1220.8 589.9,1220.7 591.6,1220.3 593.3,1220.1 594.9,1219.9 596.9" style="fill:none;stroke:#ffff00;stroke-width:2"/>
<polyline points="1223.7 626.4,1223.0 632.4,1223.0 635.0,1222.7 639.8,1222.6 641.7,1222.2 643.6" style="fill:none;stroke:#ffff00;stroke-width:2"/>
<polyline points="1219.0 707.0,1219.0 713.7,1219.0 720.4,1219.0 723.7,1219.0 723.9,1218.7 725.4" style="fill:none;stroke:#ffff00;stroke-width:2"/>
<polyline points="1226.3 666.4,1225.7 672.4,1225.0 673.7,1225.0 675.0,1225.0 675.4,1225.0 676.5,1225.0 678.9" style="fill:none;stroke:#ffff00;stroke-width:2"/>
<polyline points="1357.6 440.5,1357.0 446.5,1357.0 448.5,1356.7 453.6,1356.5 457.9,1356.2 461.4,1355.7 464.4" style="fill:none;stroke:#ffff00;stroke-width:2"/>
<polyline points="1357.0 484.4,1355.6 490.4,1355.6 492.4,1355.0 494.4,1355.1 494.9,1354.8 496.3,1354.6 497.5,1354.5 499.1,1354.4 501.4" style="fill:none;stroke:#ffff00;stroke-width:2"/>
<polyline points="1356.3 530.4,1356.3 536.4,1355.6 539.1,1355.6 540.4,1355.7 540.7" style="fill:none;stroke:#ffff00;stroke-width:2"/>
<polyline points="1356.3 565.1,1356.3 571.7,1356.3 580.4,1356.3 585.1" style="fill:none;stroke:#ffff00;stroke-width:2"/>
<polyline points="1353.0 607.7,1352.3 613.7,1352.3 615.0,1351.6 617.0,1351.5 617.6" style="fill:none;stroke:#ffff00;stroke-width:2"/>
<polyline points="1351.6 655.0,1351.0 661.0,1350.3 663.0,1349.6 664.4,1349.8 664.7,1349.4 665.6,1349.3 666.3" style="fill:none;stroke:#ffff00;stroke-width:2"/>
<polyline points="1349.0 685.0,1347.6 691.7,1347.6 694.3,1347.6 698.8,1347.6 699.3,1347.6 701.0,1347.6 701.8" style="fill:none;stroke:#ffff00;stroke-width:2"/>
<polyline points="1341.7 743.7,1341.7 745.2,1340.9 744.4" style="fill:none;stroke:#ffff00;stroke-width:2"/>
<polyline points="753.8 451.1,752.5 451.1,754.5 450.5,755.8 450.5,756.1 450.5,757.0 450.5,761.5 450.2,762.9 450.1,765.8 450.0,771.4 449.9,773.7 449.9,777.2 450.1,780.5 450.5,784.2 451.3,787.6 451.6,791.0 452.2,794.4 452.8,797.8 453.4,800.9 453.7,805.2 454.0,808.7 454.1,815.0 453.6,817.4 453.2,820.2 452.7,822.9 452.1,825.6 451.8,828.6 451.6,831.7 451.4,836.3 451.3,843.4 451.2,849.6 451.2,852.3 450.9,855.2 450.5,857.5 450.3,859.7 450.1,861.6 450.0,864.2 449.9,866.9 449.9,869.4 449.6,871.4 449.4,873.4 449.3,875.5 449.3,877.5 448.9,879.5 448.8,881.5 448.4,883.3 448.2,885.1 447.8,888.2 447.3,890.9 446.7,897.0 445.5,903.1 444.6,905.7 444.1,908.6 443.8,911.4 443.3,913.6 443.0,915.5 442.6,917.0 442.3,918.2 442.1,919.2 442.0,919.8 441.9,920.5 441.6,920.9 441.4,920.1 441.1" style="fill:none;stroke:#0000ff;stroke-width:2"/>
<polyline points="899.1 429.1,900.4 428.5,902.4 428.5,905.8 428.7,907.8 428.9,909.7 429.2,911.6 429.7,913.3 429.9,914.9 430.4,916.7 430.6,918.2 430.8,919.5 431.2,920.8 431.4,921.8 431.5,922.7 431.9,923.3 432.1,923.7 432.2,923.9 432.6,924.4 433.0,924.9 433.8,925.2 435.1,925.4 436.6,925.5 438.3,925.6 441.4,924.8 445.3,923.9 448.5,922.9 451.3,922.0 453.8,920.9 456.2,920.1 457.9,919.2 459.2,918.8 460.3,918.4 461.0,917.9 461.5" style="fill:none;stroke:#0000ff;stroke-width:2"/>
<polyline points="787.8 425.8,786.5 425.8,785.1 426.5,783.1 427.1,782.6 427.9,781.8 428.6,780.8 429.5,779.7 430.3,776.9 432.5,775.8 433.3,774.3 434.2,772.9 435.3,771.9 436.1,770.6 436.7,769.6 437.3,768.8 438.0,767.9 438.4,767.2 438.9,766.7 439.2,766.1 439.4,765.8 439.8,765.3 440.0,765.0 440.4,764.6 440.7,764.3 441.1,764.1 441.6,763.8 442.2,763.6 442.5,763.4 443.0,763.9 444.1,764.6 445.5,765.8 447.1,767.3 448.8,769.0 450.6,770.7 452.5,772.6 454.4,774.5 456.6,776.1 458.7,779.5 463.2,781.1 465.5,782.5 468.0,783.9 470.3,785.0 471.9,785.7 473.3,786.2 474.1,787.0 475.3,787.2 475.6,787.4 475.9" style="fill:none;stroke:#0000ff;stroke-width:2"/>
<polyline points="1239.0 465.8,1236.3 465.8,1237.7 465.8,1239.9 466.1,1241.4 466.2,1244.7 466.6,1248.2 466.7,1252.2 466.9,1256.3 466.9,1260.7 467.0,1265.1 467.0,1269.7 467.1,1274.2 467.1,1278.8 467.1,1283.5 467.1,1288.1 467.4,1294.1 467.8,1298.8 468.0,1303.1 468.2,1307.1 468.3,1313.5 468.4,1317.6 468.4,1318.9 468.1,1320.3 467.7,1321.5 467.5,1322.5 467.4,1323.4 467.3,1324.2 467.0,1324.7 466.8,1325.3 466.7,1325.6 466.6,1326.1 466.8,1327.0 467.8" style="fill:none;stroke:#0000ff;stroke-width:2"/>
<polyline points="1326.3 453.8,1333.1 454.1,1335.1 454.8,1341.1 457.5,1343.8 458.7,1346.6 460.1,1348.8 461.4,1351.0 462.5,1352.6 463.4,1354.2 464.2,1355.1 464.7,1356.1 465.6,1356.3 465.8,1356.0 466.3,1354.5 467.7,1353.0 468.6,1351.3 469.8,1347.6 472.2,1346.3 473.1,1344.6 474.3,1343.3 475.3,1342.0 476.2,1340.4 477.0,1337.8 477.7" style="fill:none;stroke:#0000ff;stroke-width:2"/>
<polyline points="1259.7 447.1,1259.7 448.6,1258.9 447.9" style="fill:none;stroke:#0000ff;stroke-width:2"/>
<polyline points="1254.3 455.8,1253.0 455.8,1251.7 456.5,1249.7 457.1,1249.2 457.9,1248.4 458.5,1247.4 459.2,1246.5 459.9,1245.8 460.6,1244.7 461.3,1243.9 461.9,1243.4 462.3,1242.5 462.8,1242.0 463.1,1241.4 463.6,1241.1 464.2,1240.5 464.5,1240.3 464.7,1239.8 464.8,1239.5 465.2,1239.4 465.7,1239.5 466.5,1239.8 467.5,1240.6 468.8,1241.5 470.4,1242.5 472.4,1244.0 474.3,1245.3 476.0,1246.9 477.9,1248.4 479.8,1249.5 481.4,1250.5 483.0,1251.4 484.2,1252.2 485.2,1253.0 486.1,1253.4 486.9,1254.0 487.7,1254.3 488.2,1254.6 488.8,1254.7 489.1" style="fill:none;stroke:#0000ff;stroke-width:2"/>
<polyline points="957.1 667.0,958.4 666.4,961.7 667.7,963.9 668.0,966.1 668.4,968.4 668.6,970.8 668.7,973.6 668.8,976.6 668.9,983.8 668.7,991.9 668.5,995.8 668.5,1002.1 668.4,1007.4 668.4,1012.2 668.4,1017.1 668.7,1021.9 668.8,1026.6 669.1,1031.3 669.3,1035.7 669.7,1040.3 669.9,1044.9 670.1,1049.5 670.2,1056.4 669.7,1062.3 669.2,1068.1 668.4,1073.7 667.4,1079.5 666.3,1085.0 665.4,1090.6 664.5,1095.7 663.8,1100.7 663.3,1105.3 662.7,1109.8 662.4,1115.4 662.2,1119.9 662.0,1124.1 661.9,1131.7 661.8,1134.7 662.0,1138.2 662.1,1141.3 662.5,1144.3 662.7,1146.9 662.8,1149.3 663.1,1152.4 663.3,1154.7 663.7,1156.7 663.9,1158.5 664.1,1160.1 664.2,1161.6 664.2,1163.1 664.3,1165.5 664.3,1166.3 664.3,1168.5 664.6,1170.8 664.8,1171.9 664.9,1176.4 665.0,1178.2 665.0,1183.3 665.0,1187.5 665.0,1189.9 665.3,1191.9 665.4,1195.9 665.6,1196.0 665.6,1196.9 665.6,1198.5 665.7,1198.7 665.7,1199.1 666.0" style="fill:none;stroke:#0000ff;stroke-width:2"/>
<polyline points="1187.0 647.0,1189.0 647.7,1190.4 647.7,1193.0 648.4,1193.4 648.5,1196.8 649.9,1198.6 650.5,1200.4 651.5,1202.3 652.5,1204.3 653.4,1205.9 654.5,1207.8 655.7,1209.4 656.9,1210.9 657.9,1212.1 659.0,1213.1 660.0,1214.0 661.1,1214.6 662.0,1214.4 663.4,1213.8 665.0,1213.0 667.0,1211.7 669.2,1210.2 671.3,1208.9 673.3,1207.2 675.4,1205.7 677.1,1204.0 678.7,1202.5 679.7,1201.3 680.1" style="fill:none;stroke:#0000ff;stroke-width:2"/>
<polyline points="989.7 644.4,988.4 645.0,985.7 647.0,985.4 647.1,984.8 647.9,983.6 649.1,979.5 653.0,978.0 654.3,975.9 656.3,972.0 659.9,970.3 661.2,968.4 662.6,966.5 663.9,965.1 665.0,963.6 665.9,962.3 666.8,961.2 667.3,960.5 667.9,960.0 668.3,959.7 668.5,959.5 669.0,959.6 669.8,960.2 670.4,960.8 671.4,961.7 672.5,962.4 673.7,963.1 674.9,964.1 676.1,964.9 677.1,965.7 678.0,966.7 678.9,967.3 679.6,967.9 680.1,968.6 680.4,969.0 680.9,969.2 681.1,969.4 681.9,969.8 682.5,970.3 683.2,971.1 683.6" style="fill:none;stroke:#0000ff;stroke-width:2"/>
<polyline points="831.1 363.8,831.1 361.8,829.1 364.5,827.8 367.8,827.2 368.7,823.7 373.8,821.5 377.0,819.2 380.4,816.8 383.8,814.2 386.9,811.7 389.8,809.6 392.4,807.5 394.5,806.3 396.1,805.5 397.1,804.3 398.8,804.6 398.9,804.8 399.3,805.2 399.4,805.6 399.6,806.2 399.6,807.1 399.7,808.1 400.0,810.0 400.4,811.9 401.0,814.0 401.5,816.1 401.8,818.4 402.3,820.9 402.6,823.4 403.1,825.9 403.3,828.5 403.5,831.1 403.6,833.5 403.7,836.3 403.7,840.5 403.8,842.2 403.5,842.3 403.1,842.6 402.4,842.8 401.1,842.6 399.7,842.6 398.0,842.2 396.2,841.5 393.5,840.6 391.0,839.9 388.7,838.4 384.6,837.8 383.3,835.8 379.0,835.3 378.4,834.8 377.2,834.4 376.5,834.2 376.1,834.1 375.5,834.0 375.2,833.6 374.9,833.5 375.4" style="fill:none;stroke:#a020f0;stroke-width:2"/>
<polyline points="867.8 365.2,867.8 367.2,867.8 373.8,867.5 374.2,867.1 376.2,866.6 378.2,866.3 380.5,866.1 382.6,866.0 384.7,865.9 386.8,865.9 388.8,865.8 392.2,866.4 393.5,867.2 395.0,868.1 396.2,869.5 397.5,871.1 398.6,872.8 399.5,874.9 400.0,876.9 400.4,878.9 400.6,880.6 400.8,882.2 400.9,883.7 401.0,885.2 400.8,886.3 400.4" style="fill:none;stroke:#a020f0;stroke-width:2"/>
<polyline points="862.4 381.2,863.1 379.8,865.1 379.2,867.9 378.3,869.7 378.2,871.9 377.8,874.9 377.6,877.6 377.4" style="fill:none;stroke:#a020f0;stroke-width:2"/>
<polyline points="909.8 407.8,909.8 405.1,908.4 404.5,907.1 404.5,906.5 404.8,905.7 405.2,905.0 405.7,904.3 406.2,903.7 407.1,903.0 408.1,902.6 408.9,902.3 409.7,902.1 410.7,902.0 411.6,901.9 412.4,902.4 413.1,903.2 413.8,904.4 414.5,905.6 415.0,908.0 415.2,909.8 415.4,911.4 415.6,913.0 415.6,914.4 415.4,915.9 415.1,917.0 414.3,918.2 413.4,918.9 412.3,920.5 409.4,920.8 407.5,921.1 406.0,921.3 404.5,920.9 403.3,920.2 402.3,919.0 401.7,917.8 401.3,916.6 401.0,915.1 400.9,913.9 400.7,912.7 401.2,911.4 402.0,910.1 403.2" style="fill:none;stroke:#a020f0;stroke-width:2"/>
<polyline points="1033.7 687.0,1033.1 688.3,1032.4 690.3,1030.4 692.3,1030.2 692.8,1029.2 694.5,1027.9 696.4,1026.4 698.6,1024.7 700.9,1023.2 703.1,1021.7 704.9,1020.6 706.6,1019.6 707.9,1018.7 709.0,1018.2 709.6,1018.0 710.8,1019.1 711.3,1020.3 711.9,1021.8 712.5,1023.5 713.2,1025.3 713.8,1026.9 714.8,1029.5 716.1,1031.7 717.4,1033.8 718.7,1035.7 719.7,1037.3 720.6,1038.6 721.2,1039.7 721.9,1040.7 722.2,1041.2 722.5,1041.6 722.7,1041.9 722.2,1042.0 720.9,1042.2 719.2,1042.2 717.2,1042.0 714.3,1041.6 711.2,1041.5 707.7,1041.0 704.3,1040.6 701.3,1040.0 698.9,1039.4 696.8,1038.5 694.7,1037.8 693.5,1037.3 692.4,1037.0 691.7,1036.8 691.3,1036.7 691.0" style="fill:none;stroke:#a020f0;stroke-width:2"/>
<polyline points="1057.7 684.3,1059.7 685.7,1059.7 687.0,1060.4 689.7,1060.3 690.1,1060.3 692.1,1060.4 694.1,1060.4 698.8,1060.4 703.4,1060.7 707.6,1061.1 709.1,1062.4 712.7,1063.3 713.6,1066.0 716.2,1067.1 717.0,1068.6 717.7,1069.9 718.1,1071.3 718.4,1072.4 718.6,1073.0 718.7" style="fill:none;stroke:#a020f0;stroke-width:2"/>
<polyline points="1058.4 702.3,1065.7 699.0,1068.4 697.7,1071.1 697.0,1071.7 696.9,1073.3 696.7,1074.9 696.6,1076.4 696.8" style="fill:none;stroke:#a020f0;stroke-width:2"/>
<polyline points="1095.7 720.3,1099.0 715.0,1099.7 712.3,1101.0 710.3,1101.1 710.1,1101.9 709.2,1102.5 708.4,1102.9 707.7,1103.5 707.0,1103.8 706.5,1104.4 706.1,1105.1 706.3,1106.1 706.8,1107.2 708.2,1108.3 710.0,1109.6 712.4,1110.8 715.1,1111.8 718.2,1112.4 721.7,1112.9 726.7,1113.1 730.5,1113.3 734.0,1113.5 737.9" style="fill:none;stroke:#a020f0;stroke-width:2"/>
<polyline points="1275.7 381.8,1275.7 380.5,1274.3 382.5,1273.7 385.2,1273.2 385.8,1272.1 387.9,1271.0 390.4,1269.5 392.8,1267.8 395.6,1266.1 398.3,1264.5 401.0,1263.0 403.4,1261.6 405.4,1260.2 407.2,1259.1 408.6,1258.4 409.7,1257.9 410.4,1257.6 410.9,1257.3 411.7,1258.3 411.9,1259.6 412.4,1261.1 412.9,1263.1 413.2,1265.2 413.7,1270.0 414.8,1271.9 415.3,1274.5 416.0,1276.8 416.6,1278.7 417.0,1280.5 417.3,1281.8 417.5,1283.5 417.1,1283.6 416.3,1283.6 415.7,1283.3 414.4,1283.0 413.0,1282.2 411.3,1281.5 409.6,1280.6 407.4,1279.5 405.1,1278.1 401.9,1277.0 399.3,1276.1 397.4,1275.5 396.0,1274.8 394.8,1274.5 394.0,1273.9 394.7,1273.9 396.2" style="fill:none;stroke:#a020f0;stroke-width:2"/>
<polyline points="1308.3 389.2,1309.0 391.8,1309.0 395.8,1309.0 404.7,1309.6 414.2,1310.1 415.8,1310.9 419.0,1312.8 422.5,1313.7 424.4,1314.9 426.3,1316.1 427.5,1317.7 428.5,1319.1 429.2,1320.5 429.3,1321.9 428.9" style="fill:none;stroke:#a020f0;stroke-width:2"/>
<polyline points="1303.0 412.5,1313.7 407.8,1316.3 407.1,1318.3 407.1,1319.1 407.2,1320.6 407.1,1321.9 407.1" style="fill:none;stroke:#a020f0;stroke-width:2"/>
<polyline points="1342.3 423.1,1341.7 421.1,1341.0 419.8,1339.7 419.8,1339.3 419.8,1338.4 419.8,1337.3 419.8,1336.4 420.1,1336.0 420.2,1335.4 420.3,1335.0 420.6,1334.5 420.8,1334.0 421.2,1333.6 421.4,1333.4 421.8,1333.0 422.0,1332.8 422.5,1332.6 423.2,1332.5 423.9,1332.2 424.6,1332.0 425.3,1331.9 425.9,1331.8 426.6,1331.8 427.3,1331.7 427.9,1331.7 428.6,1331.7 430.3,1331.7 431.0,1331.9 431.5,1332.3 432.1,1332.5 432.7,1333.0 433.1,1333.5 433.3,1334.0 433.8,1334.3 434.0,1334.8 434.1,1335.4 434.5,1336.2 434.7,1337.0 435.1,1337.4 435.3,1338.0 435.5,1338.6 435.6,1338.9 435.7,1339.5 435.7,1340.0 435.7,1340.6 435.2,1341.2 434.7,1341.9 434.1,1342.5 433.2,1343.2 432.5,1343.5 431.8,1344.1 431.3,1344.4 430.8,1344.6 430.5,1344.7 430.0,1345.1 429.7,1345.3 429.2,1345.4 428.7,1345.5 428.1,1345.8 427.5,1346.0 426.9,1346.1 426.5,1346.2 426.0,1346.2 425.5,1346.2 424.9,1346.3 424.5,1346.3 424.0,1346.3 423.4,1346.0 422.0,1345.9 421.6,1345.8 421.2,1345.5 421.0,1345.3 420.5,1344.9 420.3,1344.5 420.1,1343.9 420.0,1343.3 419.9,1343.0 419.9,1342.2 419.9,1341.5 420.1" style="fill:none;stroke:#a020f0;stroke-width:2"/>
</svg>