<svg version="1.1" xmlns="http://www.w3.org/2000/svg" viewBox="477.5 267.9 1106.4 451.3">
<rect x="477.5" y="267.9" width="1106.4" height="451.3" fill="#202124" />
<polyline points="503.9 518.4,503.9 518.4,503.9 518.4" style="fill:none;stroke:#ff0000;stroke-width:2"/>
<polyline points="546.5 542.4,546.5 542.4,698.4 542.4,850.2 542.4,1002.1 542.4,1153.9 542.4,1305.8 542.4,1495.6 542.4" style="fill:none;stroke:#ffffff;stroke-width:2"/>
<polyline points="599.2 309.2,599.2 309.2,599.0 372.9,598.8 436.7,598.5 500.5,598.3 564.2,598.1 628.0,597.8 707.7" style="fill:none;stroke:#ffffff;stroke-width:2"/>
<polyline points="598.5 315.9,596.5 315.9,595.8 317.2,594.7 319.1,593.9 320.2,593.2 321.5,592.2 323.1,590.8 325.1,589.8 326.8,588.6 328.1,587.9 329.2,587.2 329.8,586.7 330.6,586.4 331.0,586.2 331.3,586.4 330.6,586.7 329.5,587.4 328.2,588.0 326.6,589.0 324.9,590.0 322.8,591.2 320.8,592.1 318.8,593.0 316.8,593.7 315.0,594.2 313.7,594.8 312.6,595.1 311.6,595.4 310.8,595.5 310.3,596.0 309.7,596.4 309.6,596.9 309.7,597.8 310.0,598.5 310.7,599.5 311.7,601.5 313.3,603.0 314.7,604.5 316.3,605.9 317.8,607.0 319.5,608.3 321.1,609.3 322.8,610.2 324.4,611.0 325.6,611.8 326.6,612.5 327.5,612.9 328.3,613.2 328.8,613.4 329.2,613.9 329.4,614.3 329.5,614.6 328.8" style="fill:none;stroke:#ffffff;stroke-width:2"/>
<polyline points="629.8 288.5,632.5 292.5,635.2 297.2,635.5 297.6,636.4 299.0,637.4 300.5,639.5 304.0,640.4 305.4,641.4 307.0,642.3 308.2,643.3 309.3,643.9 310.2,644.6 311.0,645.3 311.8,646.2 312.8,646.5 313.1,646.7 313.4,647.1 313.0,647.6 312.3,648.2 311.1,648.8 309.6,649.7 307.7,650.4 305.9,652.6 300.9,653.3 298.5,655.1 293.9,656.2 290.7,658.2 285.5,658.5 284.3,659.3 283.0,659.7 282.2,659.9 281.3,660.1 280.9,660.5 280.5,661.0 280.0,661.8 279.5,662.5 278.6" style="fill:none;stroke:#ffffff;stroke-width:2"/>
<polyline points="1490.3 525.1,1488.3 525.1,1490.3 526.4,1492.3 527.1,1493.1 527.2,1494.5 527.7,1496.4 528.2,1500.6 529.1,1502.3 529.5,1504.5 530.1,1506.3 530.7,1507.7 531.3,1508.8 531.7,1509.8 532.2,1510.7 532.5,1511.2 533.0,1511.5 533.5,1511.8 534.1,1511.7 535.2,1511.1 537.0,1510.3 539.0,1509.3 541.2,1507.9 543.6,1506.6 546.3,1505.0 548.7,1503.6 551.3,1501.6 554.7,1500.2 557.4,1498.8 559.6,1498.0 561.5,1497.1 562.7,1496.6 563.8,1496.3 564.4,1496.1 564.8,1496.5 565.1,1497.5 565.3" style="fill:none;stroke:#ffffff;stroke-width:2"/>
<polyline points="1547.6 539.1,1545.6 543.7,1544.9 545.7,1544.9 548.4,1544.7 548.8,1544.5 550.5,1544.4 552.4,1544.4 554.3,1544.3 556.6,1544.9 560.7,1545.7 562.4,1546.9 564.6,1549.2 566.7,1551.3 567.9,1553.6 568.7,1555.7 569.3,1557.5 569.1" style="fill:none;stroke:#ffffff;stroke-width:2"/>
<polyline points="615.2 546.4,615.8 544.4,617.8 540.4,618.2 540.5,618.8 539.9,619.4 539.6,619.8 539.5,620.3 539.1,621.1 538.9,621.9 538.4,622.6 538.2,623.3 537.8,623.9 537.6,624.6 537.4,625.3 537.0,626.0 536.8,626.6 536.7,627.3 536.6,628.0 536.5,628.6 536.2,629.6 536.1,630.4 536.0,631.1 535.9,631.9 535.6,632.9 535.4,633.7 535.3,634.4 535.0,635.2 534.8,635.9 534.7,636.6 534.6,637.3 534.2,638.2 534.1,639.0 534.0,639.8 533.9,640.5 533.9,641.2 533.8,641.9 533.8,642.6 533.8,644.0 533.8,644.8 533.8,645.7 534.0,646.7 534.2,647.6 534.5,648.4 534.7,649.1 535.1,649.9 535.6,650.6 536.1,651.3 536.4,651.9 536.9,652.6 537.8,653.6 538.5,654.4 538.9,655.4 539.7,656.3 540.2,657.1 540.8,657.8 541.1,658.5 541.6,659.5 541.8,660.3 542.3,661.1 542.6,661.8 543.0,662.5 543.3,663.0 543.4,664.1 543.5,664.9 543.9,665.7 544.0,666.5 544.2,667.2 544.3,667.9 544.3,668.6 544.3,669.3 544.4,670.0 544.4,670.9 544.4,671.7 544.7,672.5 544.8,673.5 544.9,674.3 545.0,675.4 545.0,676.5 545.0,679.2 545.1,680.1 545.1,683.5 544.8,684.5 544.4,686.0 544.2,687.3 543.8,690.5 542.7,691.4 542.5,692.8 541.9,693.8 541.4,694.8 540.8,695.6 540.5,696.4 539.9,697.4 539.7,698.3 539.2,699.1 538.7,700.1 538.1,700.9 537.5,702.0 536.9,702.9 536.2,704.0 535.6,705.1 534.9,706.1 534.0,707.2 532.9,708.4 532.0,709.6 530.9,710.9 529.8,712.2 528.8,714.9 527.1,715.7 526.8,716.4 526.4,716.9 526.2,717.7 526.0,718.2 525.9,719.4 525.8,719.9 525.8,722.4 526.1,722.9 526.2,724.0 526.5,724.9 526.7,725.7 527.1,726.4 527.6,727.2 527.9,727.9 528.3,728.6 528.6,729.0 529.0,729.5 529.3,730.1 529.7,731.0 530.2,731.5 530.8,732.1 531.1,732.7 531.6,733.4 532.1,734.0 532.7,734.7 533.3,735.3 534.0,735.7 534.6,736.2 535.0,736.8 535.5,737.1 536.1,737.6 536.7,738.2 537.3,738.8 537.7,739.4 538.2,739.7 538.8,740.3 539.1,740.5 539.6,740.7 539.9,741.2 540.0,741.4 540.4,741.8 540.6,742.0 541.1,742.7 541.6,743.1 541.8,743.6 542.3,744.2 542.6,744.5 543.0,745.3 543.5,745.9 544.1,746.9 544.7,747.7 545.3,749.0 546.0,750.2 546.3,751.5 546.9,752.8 547.1,754.1 547.6,755.2 547.9,756.4 548.1,757.6 548.5,759.2 548.7,760.6 548.8,762.0 548.9,763.4 549.0,764.7 549.0,766.1 549.0,769.0 549.1,770.0 548.8,771.4 548.7,772.5 548.3,773.4 547.8,774.2 547.6,775.0 547.1,775.5 546.6,776.1 546.3,776.4 545.9,776.9 545.6,777.2 545.2,777.7 544.9,777.9 544.5,778.4 544.0,778.9 543.7,779.5 543.2,780.1 542.7,781.0 542.1,782.0 541.5,782.9 540.9,783.7 540.5,784.4 540.0,785.2 539.7,785.6 539.5,786.2 539.1,786.5 538.9,787.0 538.7,787.5 538.6,788.1 538.3,788.7 537.8,789.3 537.6,790.0 537.4,790.6 537.3,791.3 537.2,791.7 537.2,792.2 537.2,792.8 536.8,793.4 536.7,794.0 536.6,795.2 536.3,796.4 536.1,797.3 535.7,798.5 535.5,799.4 535.4,800.5 535.0,801.4 534.8,802.3 534.7,803.3 534.6,804.2 534.5,805.3 534.5,806.7 534.8,807.8 534.9,809.0 535.2,810.0 535.7,810.8 535.9,811.9 536.4,812.8 536.9,813.9 537.7,815.1 538.4,816.3 539.4,817.6 540.5,818.8 541.4,820.1 542.5,822.9 544.8,824.0 545.4,825.4 546.3,826.4 547.0,827.7 547.5,828.9 548.1,830.2 548.4,831.5 548.6,832.8 549.1,834.1 549.3,835.2 549.4,836.4 549.5,837.3 549.6,838.2 549.7,839.3 549.7,841.6 549.7,842.1 549.7,844.3 549.5,844.9 549.3,845.4 549.0,846.0 548.5,846.7 548.0,847.3 547.7,848.0 547.2,848.3 546.7,848.9 546.1,850.1 544.9,850.6 544.3,853.5 541.1,854.3 540.5,855.3 539.5,857.0 538.1,857.3 537.6,858.0 537.2,858.4 536.7,858.9 536.4,859.5 536.2,860.1 535.7,860.4 535.5,860.9 535.4,861.5 535.3,861.8 534.9,862.3 534.8,862.8 534.4,863.4 534.2,864.0 534.0,864.4 533.9,864.9 533.9,865.5 533.8,866.1 533.8,866.7 533.8,867.3 533.8,868.6 533.8,870.0 534.0,870.5 534.2,871.2 534.5,871.9 534.7,872.3 534.8,872.8 535.2,873.1 535.4,873.6 535.5,874.2 535.9,874.5 536.0,875.0 536.2,875.2 536.5,875.7 536.7,876.8 536.8,877.9 537.2,879.0 537.7,880.3 537.9,881.5 538.4,882.8 538.6,883.8 539.0,885.0 539.3,886.3 539.7,887.5 539.9,888.8 540.1,890.1 540.5,893.2 541.2,894.6 541.6,896.2 541.9,898.0 542.1,899.6 542.5,901.1 542.7,903.1 542.8,904.7 542.9,906.6 543.2,908.2 543.4,910.5 543.6,911.2 543.6,912.7 544.0,912.9 544.1,913.5 544.2,914.1 544.3,914.7 544.3,915.3 544.4,916.0 544.4,916.6 544.4,917.5 544.1,918.3 543.7,919.4 543.2,920.2 542.7,921.0 542.1,922.0 541.5,922.6 540.9,923.3 540.2,923.9 539.9,924.6 539.3,925.0 539.0,925.5 538.5,926.1 538.0,926.7 537.4,928.0 536.5,928.2 536.0,928.8 535.7,929.1 535.2,929.6 535.0,929.9 534.5,930.1 534.0,930.2 533.4,930.3 532.8,930.6 532.2,930.8 531.3,931.1 530.5,931.6 529.5,931.9 528.4,932.3 527.5,932.9 526.3,933.2 525.4,933.6 524.6,934.2 523.5,934.7 522.7,935.4 521.9,935.7 521.1,935.9 520.7,936.1 520.1,936.5 519.5,936.7 518.9,937.1 518.2,937.3 517.6,937.5 516.9,937.6 516.3,937.9 515.9,938.1 515.3,938.2 514.8,938.3 514.4,938.3 513.9,938.6 513.7,938.8 513.2,939.2 512.7,939.3 512.1,939.5 511.5,939.6 510.9,939.9 510.2,940.4 509.6,940.6 508.9,941.0 508.3,941.3 507.6,941.7 506.9,941.9 506.3,942.4 505.3,942.6 504.5,943.0 503.8,943.3 503.1,943.4 502.4,943.8 501.4,944.3 500.3,944.8 499.1,945.1 498.2,945.6 497.1,946.2 496.1,946.7 495.0,947.1 494.1,947.6 493.0,948.1 492.4,948.4 491.7,948.7 491.0,949.1 490.6,949.3 490.0,949.4 489.7,949.8 489.2,950.3 488.7,950.6 488.1,951.0 487.2,951.5 486.5,952.1 485.5,952.7 484.4,953.3 483.5,954.0 482.3,954.6 481.5,955.5 480.6,956.0 480.1,958.4 478.1,958.9 477.7,959.7 477.0,960.4 476.3,961.4 475.6,962.5 475.0,964.0 474.0,965.3 473.5,966.4 473.2,967.6 472.6,968.6 472.4,969.8 472.2,970.7 472.0,971.5 472.0,972.6 471.9,973.7 471.9,975.0 471.8,977.5 471.8,979.1 472.1,980.2 472.2,981.5 472.6,982.5 473.0,983.4 473.5,984.2 474.4,985.3 475.4,986.2 476.5,987.0 478.0,988.0 479.3,988.8 481.0,989.9 483.0,990.8 485.0,991.6 486.9,992.4 488.9,993.1 490.9,993.8 493.2,994.5 495.6,995.2 497.8,995.9 500.5,996.3 502.8,996.8 505.3,997.1 508.2,997.6 510.6,997.9 513.2,998.3 515.5,998.6 517.8,998.7 519.9,999.1 522.0,999.3 524.1,999.5 526.1,999.8 528.1,1000.0 530.4,1000.1 532.6,1000.5 534.7,1000.7 537.0,1001.1 539.2,1001.3 541.6,1001.7 544.0,1002.2 546.6,1002.8 549.2,1003.4 551.8,1004.0 554.7,1005.3 560.9,1005.8 563.9,1006.8 569.2,1007.6 573.6,1008.4 577.9,1009.1 581.9,1010.1 585.6,1010.9 589.2,1012.0 592.5,1013.1 595.8,1014.3 598.9,1015.5 601.8,1016.8 604.6,1018.1 607.4,1019.1 610.2,1020.3 612.9,1022.1 617.0,1023.3 620.0,1024.7 623.0,1026.0 625.9,1027.1 628.4,1028.3 630.8,1029.3 632.7,1030.4 634.5,1031.3 635.8,1032.2 637.2,1033.0 638.3,1034.0 639.5,1034.6 640.5,1035.2 641.4,1035.9 641.9,1036.6 642.3,1036.9 642.5,1037.8 642.7,1038.5 642.8,1038.9 642.9,1039.4 642.9,1040.0 643.0,1040.6 643.0,1041.8 643.0,1042.4 642.5,1043.4 641.7,1044.5 641.0,1045.7 640.0,1046.9 638.9,1048.4 637.5,1050.7 635.0,1052.7 632.6,1054.8 630.1,1056.5 627.6,1058.1 625.2,1059.6 622.8,1060.8 620.5,1061.8 618.3,1062.7 615.9,1063.3 613.7,1063.9 611.3,1064.3 607.4,1064.8 604.0,1065.1 600.2,1065.6 596.4,1065.9 592.6,1066.3 588.9,1066.6 585.1,1067.0 581.3,1067.5 577.6,1068.1 574.1,1068.7 570.6,1069.6 564.1,1070.1 561.6,1070.4 558.2,1070.9 554.9,1071.2 551.3,1071.6 547.6,1071.9 543.8,1072.3 539.9,1072.6 536.0,1073.0 531.8,1073.2 527.7,1074.0 521.1,1074.6 513.5,1075.2 507.3,1075.6 501.6,1075.9 496.2,1076.3 490.8,1076.6 485.6,1077.0 480.4,1077.5 475.1,1078.1 469.8,1078.7 464.5,1079.3 459.2,1079.9 454.2,1080.6 449.3,1081.2 444.4,1081.9 439.9,1082.5 435.0,1083.5 430.3,1084.3 425.6,1085.3 420.6,1086.1 416.0,1087.2 411.7,1088.1 407.7,1089.7 400.3,1090.0 397.7,1090.6 394.3,1091.0 391.3,1091.5 388.4,1092.7 382.1,1093.5 379.4,1094.6 375.9,1096.0 372.5,1097.6 369.1,1099.1 366.4,1100.5 363.8,1102.2 361.4,1104.2 358.6,1105.9 356.8,1107.2 355.0,1108.6 353.7,1109.7 352.9,1110.6 352.0,1111.8 351.2,1113.0 350.5,1114.2 349.8,1115.5 349.4,1116.8 348.8,1118.9 348.5,1120.6 348.3,1122.2 348.1,1123.9 348.0,1125.5 348.0,1127.0 348.2,1128.4 348.6,1129.9 349.0,1131.0 349.6,1132.2 350.4,1133.5 351.5,1135.3 353.1,1136.9 354.8,1138.4 356.4,1139.8 358.1,1141.2 359.7,1142.9 361.4,1144.3 363.3,1145.8 365.4,1146.9 367.8,1148.2 370.2,1149.2 372.7,1150.1 375.3,1150.6 378.2,1151.2 380.9,1151.6 383.9,1151.9 387.0,1152.0 390.5,1152.1 394.1,1152.2 397.6,1152.3 404.8,1152.3 411.7,1152.3 416.2,1152.3 420.3,1152.4 427.8,1152.4 435.0,1152.4 442.8,1152.6 451.8,1153.0 455.9,1153.5 461.0,1154.4 465.8,1155.1 470.6,1156.1 475.3,1156.9 480.3,1157.6 485.4,1158.4 490.3,1159.4 495.4,1160.2 500.9,1161.0 505.9,1161.7 511.5,1162.7 516.8,1163.5 522.2,1164.3 527.8,1165.0 533.3,1166.0 538.5,1167.1 545.7,1168.3 551.8,1169.3 557.5,1170.1 563.1,1170.9 568.6,1171.4 574.0,1172.0 579.7,1172.6 587.2,1173.2 592.9,1174.2 597.9,1175.5 603.4,1176.5 607.4,1177.7 611.0,1178.9 614.3,1180.4 617.4,1181.8 620.4,1183.2 623.2,1184.9 626.0,1186.6 628.5,1188.5 630.8,1190.3 633.1,1193.1 635.5,1195.1 637.4,1198.6 640.8,1199.9 642.0,1203.0 645.1,1204.2 646.5,1205.7 648.4,1207.1 650.3,1210.0 654.1,1210.8 655.0,1212.5 657.2,1213.0 657.6,1213.5 658.4,1213.7 658.8,1214.2 659.1,1215.0 659.3,1215.7 658.9,1216.7 658.2,1217.8 656.7,1219.3 654.8,1220.6 652.1,1222.2 649.0,1224.0 645.9,1226.4 641.6,1227.9 637.9,1229.5 634.5,1230.7 631.4,1232.4 625.9,1232.7 623.6,1233.3 620.7,1233.6 617.7,1234.2 614.3,1234.4 610.4,1234.9 606.6,1235.4 602.4,1236.0 598.3,1236.6 594.3,1237.0 590.8,1237.5 587.6,1237.8 584.8,1238.1 580.8,1237.9 579.3,1237.8 577.3,1237.5 575.3,1237.3 573.0,1236.9 570.6,1236.8 568.1,1236.6 565.3,1236.5 562.3,1236.7 559.2,1236.8 556.3,1237.2 553.5,1237.3 550.4,1237.4 547.6,1237.5 544.5,1237.6 538.4,1237.4 532.6,1236.9 526.1,1236.7 522.9,1236.6 518.5,1236.5 514.4,1236.5 510.4,1236.4 506.3,1236.4 502.3,1236.4 494.9,1236.1 491.7,1236.0 487.9,1235.5 479.1,1235.4 475.2,1235.3 470.6,1235.2 465.9,1235.1 461.3,1235.4 457.0,1235.7 452.7,1236.2 448.6,1237.0 444.7,1238.0 440.8,1239.1 437.1,1240.3 433.3,1241.2 429.9,1243.2 423.8,1245.1 418.4,1246.1 416.0,1249.0 410.2,1250.2 407.9,1252.0 405.2,1253.8 402.8,1255.4 400.8,1257.5 398.8,1259.5 396.8,1261.5 395.0,1263.2 393.4,1266.3 390.7,1267.2 389.9,1268.6 388.9,1269.9 388.1,1271.3 387.3,1272.9 386.2,1276.0 384.0,1279.0 382.0,1281.9 380.3,1284.7 378.7,1287.4 377.2,1291.5 375.3,1292.6 375.0,1293.9 374.6,1295.0 374.3,1296.5 374.7,1297.6 375.4,1298.5 376.3,1299.4 377.6,1300.5 379.2,1301.4 380.9,1302.5 383.0,1303.3 384.9,1304.4 387.2,1305.3 389.6,1306.4 392.1,1307.3 394.9,1309.3 401.3,1310.3 403.6,1311.2 406.3,1312.1 409.0,1313.2 411.7,1314.0 414.4,1314.8 417.3,1315.6 420.7,1316.3 424.2,1317.1 428.2,1318.0 434.4,1319.1 439.9,1320.0 445.1,1321.1 450.1,1322.0 454.7,1322.8 459.2,1323.6 463.2,1324.3 467.2,1325.0 471.5,1325.7 476.0,1326.1 481.0,1326.4 486.4,1326.6 491.7,1326.7 497.6,1326.8 503.1,1326.9 508.9,1326.9 514.5,1326.9 519.9,1327.0 525.7,1327.0 531.5,1327.0 537.1,1327.0 542.9,1327.3 548.4,1327.4 554.2,1327.5 559.8,1327.8 565.5,1328.0 571.4,1328.4 577.0,1328.6 582.5,1328.7 588.0,1329.1 592.8,1329.5 597.4,1330.1 601.8,1330.7 605.8,1331.5 609.6,1332.3 613.2,1333.3 616.4,1334.4 619.2,1335.3 622.0,1337.3 625.4,1338.8 628.0,1340.6 630.5,1342.1 632.6,1343.9 634.4,1345.5 636.0,1347.0 637.3,1348.4 638.4,1349.8 639.3,1350.9 639.9,1352.4 640.3,1353.8 640.5,1355.5 640.7,1357.2 640.8,1359.1 640.6,1360.7 640.0,1362.5 639.1,1364.4 637.8,1366.0 636.3,1369.4 632.3,1370.6 630.2,1372.2 627.0,1374.0 622.5,1374.9 618.7,1375.9 615.3,1376.5 611.8,1376.9 608.2,1377.1 604.7,1377.3 601.2,1377.1 597.8,1376.8 594.4,1376.4 591.3,1375.9 588.1,1375.3 583.7,1375.0 580.2,1374.8 577.0,1374.3 573.9,1374.1 571.0,1374.0 568.4,1373.8 565.8,1373.8 563.1,1373.7 557.8,1374.0 555.8,1374.6 552.0,1375.2 548.9,1375.9 545.8,1376.8 542.9,1377.6 540.1,1378.6 537.4,1379.7 534.9,1380.6 532.6,1381.7 530.4,1382.9 528.5,1383.9 526.8,1385.0 525.0,1385.9 523.7,1386.8 522.3,1387.6 521.2,1388.0 520.5,1388.6 519.7,1388.9 519.3,1389.5 518.7,1390.3 518.4,1391.3 517.9,1392.4 517.4,1393.6 516.5,1395.1 515.8,1396.7 515.1,1398.5 514.4,1400.1 513.7,1401.6 513.3,1402.8 512.7,1403.8 512.4,1404.4 512.2,1404.8 512.0,1405.4 512.0,1405.7 512.2,1406.7 513.3,1407.2 514.1,1408.5 516.7,1409.0 517.8,1409.5 519.6,1410.0 521.3,1410.3 522.9,1410.5 524.7,1410.7 526.5,1410.8 528.1,1410.8 529.9,1410.9 531.8,1410.9 534.6,1411.2 538.4,1411.3 539.7,1411.4 541.4,1411.8 543.0,1412.2 544.2,1412.5 545.5,1412.9 546.8,1413.4 548.1,1414.0 549.7,1414.3 551.1,1414.8 552.5,1415.4 553.6,1415.9 554.3,1416.6 555.1,1417.2 555.5,1417.5 555.8,1418.1 556.0,1418.6 556.1,1419.2 556.2,1419.9 556.3,1420.8 556.3,1422.6 555.8,1423.3 555.3,1424.4 554.5,1425.6 553.4,1426.8 552.3,1427.8 550.9,1429.0 549.8,1429.6 548.8,1430.3 548.0,1430.8 547.5,1431.0 546.8,1431.2 546.2,1431.6 545.6,1431.9 544.9,1432.3 544.5,1432.5 544.0,1432.9 543.1,1433.4 542.4,1433.7 541.7,1434.2 541.3,1434.4 540.7,1434.6 540.1,1435.0 539.8,1435.5 539.5,1436.0 539.1,1436.6 538.9,1437.2 538.7,1437.8 538.6" style="fill:none;stroke:#00ff00;stroke-width:2"/>
<polyline points="1437.8 538.6,1439.6 538.4,1440.3 539.7,1441.4 541.7,1441.7 542.2,1442.2 542.7,1442.7 543.4,1443.3 544.3,1443.9 545.0,1444.5 545.8,1445.2 546.2,1445.8 546.8,1446.5 547.4,1447.1 548.0,1447.8 548.3,1448.7 548.9,1449.5 549.1,1450.0 549.3,1450.9 549.5,1451.6 549.6,1452.3 549.6,1453.3 549.7,1454.4 549.4,1455.6 549.3,1456.8 549.0,1458.1 548.5,1459.6 548.0,1461.0 547.4,1462.4 547.1,1463.5 546.6,1464.5 546.0,1465.7 545.4,1466.6 544.8,1467.4 544.5,1467.9 544.0,1468.5 543.7,1468.9 543.5,1469.4 543.3,1469.7 543.0,1470.2 542.8,1470.7 542.7,1471.3 542.6,1471.9 542.5,1472.5 542.5,1473.2 542.5,1474.1 542.4,1476.4 542.7,1476.8 543.1,1477.3 543.6,1477.9 544.1,1478.5 545.0,1480.2 547.3,1480.8 547.9,1481.6 548.6,1482.0 549.2,1482.6 549.6,1482.9 549.9,1483.4 550.1,1484.0 550.2,1484.6 550.3,1485.2 550.3,1486.1 550.1,1487.2 549.7,1488.0 549.5,1489.1 549.1,1490.0 548.9,1491.1 548.4,1492.5 547.9,1493.9 547.7,1494.9 547.5,1495.9 547.3,1496.7 547.3,1497.2 547.2,1497.9 547.2,1498.2 547.1,1498.7 547.1" style="fill:none;stroke:#00ff00;stroke-width:2"/>
<polyline points="939.8 495.8,937.8 494.4,937.1 495.8,937.1 497.1,936.8 497.4,936.7 498.6,936.6 500.3,936.5 502.1,936.2 504.2,936.1 506.2,936.0 508.2,935.6 510.2,935.5 511.9,935.3 513.8,935.3 515.4,935.1 518.3,935.1 518.7,935.1 519.6,935.4 520.1,935.5 520.7,935.9 521.3,936.0 522.0,936.5 522.3,936.7 522.9,937.1 523.2,937.6 523.4,938.1 523.5,938.7 523.6,939.6 523.6,940.7 523.7,942.1 523.7,945.0 523.5,948.0 523.3,949.4 523.2,953.5 523.1,953.8 523.1,955.6 522.8,955.7 522.4,956.0 521.6,956.1 520.4,956.2 518.9,956.6 516.7,956.7 514.7,956.8 513.0,956.9 511.4,957.0 509.6,957.0 506.5,957.0 505.3,957.1 501.1,956.8 497.3,956.4 497.1,955.9 496.3,955.4 495.9,954.5 495.7,954.0 495.5,953.4 495.4,952.8 495.0,952.2 494.8,951.6 494.7,950.9 494.6,950.2 494.5,949.6 494.5,948.9 494.5,948.0 494.5,946.6 494.2,945.6 494.1,944.5 494.0,943.2 493.9,941.4 493.8,940.7 493.8,939.9 494.1,939.1 494.2,938.4 494.3,938.0 494.3,937.7 494.1" style="fill:none;stroke:#ff0000;stroke-width:2"/>
<polyline points="997.7 563.7,999.7 563.1,1001.1 562.4,1003.1 561.7,1004.9 560.8,1006.2 560.2,1007.7 559.8,1009.4 559.3,1011.0 559.0,1012.2 558.8,1013.2 558.7,1014.1 558.6,1014.9 558.5,1015.4 558.5,1016.2 558.4,1016.7 558.7,1017.1 559.1,1017.3 559.6,1017.4 560.1,1017.5 560.7,1017.6 561.6,1017.6 562.6,1017.7 563.8,1017.7 565.0,1017.7 568.2,1017.7 573.4,1017.7 578.1,1017.7 582.2,1017.5 586.0,1017.1 586.1,1016.6 587.0,1016.3 587.4,1015.8 587.8,1015.3 588.0,1014.7 588.1,1014.1 588.2,1013.5 588.3,1012.9 588.3,1012.2 588.3,1011.6 588.1,1010.9 588.0,1010.2 587.9,1009.6 587.8,1008.9 587.5,1008.3 587.4,1007.6 587.3,1006.9 586.9,1006.3 586.8,1005.6 586.6,1004.9 586.3,1004.5 586.1,1004.0 586.0,1003.4 585.9,1003.1 585.6,1002.6 585.1,1001.8 584.2,1001.6 583.6,1001.2 582.9,1000.6 582.0,1000.1 581.2,999.5 580.4,999.1 579.4,998.6 578.3,998.3 577.4,998.1 576.3,997.7 575.1,997.5 573.9,997.4 572.9,997.0 572.0,996.8 571.2,996.7 570.5,996.6 570.0,996.5 569.4,996.5 569.1,996.7 568.6,997.1 568.0" style="fill:none;stroke:#ff0000;stroke-width:2"/>
<polyline points="1052.4 617.0,1051.7 618.4,1051.7 619.7,1051.7 627.3,1052.0 627.9,1052.4 630.4,1052.6 632.0,1052.8 633.3,1053.2 634.9,1053.9 635.0,1054.6 635.5,1055.2 635.8,1055.9 636.0,1056.8 636.1,1057.6 636.2,1058.4 636.3,1059.4 636.3,1061.3 636.3,1062.0 636.3,1066.3 636.4,1067.6 635.8,1067.7 635.0,1067.9 633.7,1068.1 632.3,1068.2 630.6,1068.3 628.5,1068.3 626.6,1068.3 621.7,1068.4 617.7,1068.1 614.0,1067.7 613.9,1067.2 613.3,1066.7 613.0,1066.1 612.8,1065.5 612.7,1064.8 612.6,1063.9 612.5,1063.1 612.7,1062.4 612.8,1061.4 612.9,1060.6 613.0,1059.8 613.0,1059.1 613.0,1058.1 613.0,1053.9 613.3,1053.4 613.4,1052.6 613.5,1052.1 613.6,1051.7 613.4" style="fill:none;stroke:#ff0000;stroke-width:2"/>
<polyline points="1077.7 421.8,1077.7 423.8,1077.1 425.1,1076.0 427.7,1075.5 429.9,1075.3 431.6,1075.0 433.4,1074.8 435.5,1074.4 437.8,1074.2 439.9,1074.0 442.0,1073.9 444.8,1074.1 445.6,1074.2 446.6,1074.5 447.2,1075.0 447.6,1075.5 447.9,1076.3 448.4,1077.3 448.6,1078.2 448.8,1079.2 448.9,1080.4 449.0,1081.3 449.3,1082.2 449.5,1083.0 449.6,1083.7 449.6,1084.4 449.7,1085.1 449.7,1085.8 449.7,1086.5 449.5,1087.2 449.4,1087.9 449.0,1088.8 448.6,1089.9 447.9,1090.2 447.4,1090.5 446.5,1090.7 445.5,1090.8 444.1,1090.9 442.8,1090.9 441.5,1091.0 439.2,1091.3 438.4,1091.4 437.5,1091.5 436.7,1091.6 435.9,1091.6 435.1,1091.9 434.4,1092.1 434.0,1092.2 433.4,1092.2 432.8,1092.3 432.5,1092.3 432.0,1092.3 431.4,1092.4 430.8,1092.1 429.6,1091.7 429.0,1091.5 428.3,1090.8 427.7,1090.2 426.7,1089.5 425.9,1088.6 425.2,1087.0 424.4,1085.3 423.7,1083.8 423.3,1082.3 422.8,1081.2 422.5,1080.2 422.2,1079.3 422.1,1078.8 422.0,1078.4 421.9" style="fill:none;stroke:#ff0000;stroke-width:2"/>
<polyline points="1158.4 464.5,1157.0 463.8,1153.1 462.1,1152.4 462.0,1151.7 461.9,1151.0 461.9,1150.3 461.9,1149.3 462.1,1149.1 462.8,1148.8 463.4,1148.4 464.3,1148.2 465.3,1148.0 466.5,1147.6 467.7,1147.4 468.9,1147.3 470.8,1147.2 472.3,1147.2 473.5,1147.1 474.5,1147.1 475.4,1147.1 477.0,1147.3 478.0,1147.4 478.3,1147.8 478.6,1148.3 478.8,1148.8 478.9,1149.4 479.2,1150.0 479.4,1150.9 479.8,1151.9 480.3,1153.1 480.8,1154.5 481.7,1155.6 482.4,1156.9 483.2,1158.1 483.9,1159.1 484.5,1160.0 485.2,1160.9 485.9,1161.6 486.3,1162.1 486.8,1162.7 487.4,1163.0 487.8,1163.5 488.0,1164.1 488.1,1164.4 488.2,1164.9 488.0,1165.4 487.9,1165.7 487.6,1166.2 487.2,1166.8 486.7,1167.1 486.1,1167.6 485.2,1168.1 483.9,1168.4 482.4,1168.9 480.4,1169.1 478.5,1169.3 476.3,1169.5 474.5,1169.5 472.8,1169.6 471.3,1169.3 470.1,1168.7 469.0,1168.1 468.1,1166.9 467.3,1166.3 466.8,1165.9 466.5,1165.6 466.2" style="fill:none;stroke:#ff0000;stroke-width:2"/>
<polyline points="1203.7 628.4,1203.7 629.7,1203.0 631.0,1203.0 633.0,1202.7 633.5,1202.6 634.9,1202.3 636.4,1202.1 637.8,1201.7 639.2,1201.5 640.3,1201.3 641.5,1201.2 642.2,1201.1 643.3,1201.4 643.6,1201.7 644.1,1202.4 644.9,1202.8 645.1,1203.4 645.6,1203.7 645.8,1204.2 646.0,1204.7 646.1,1205.3 646.2,1205.9 646.3,1207.1 646.3,1208.6 646.3,1212.3 646.1,1212.3 645.7,1212.8 645.2,1213.1 643.5,1213.3 642.2,1213.4 640.8,1213.5 639.5,1213.6 638.1,1213.6 635.8,1213.4 634.5,1213.3 633.0,1213.2 631.6,1213.1 630.2,1212.8 628.0,1212.6 627.7,1212.0 627.2,1211.1 626.9,1210.1 626.7,1209.3 626.6,1208.5 626.5,1207.7 626.5,1207.3 626.4,1206.7 626.4,1206.4 626.1" style="fill:none;stroke:#ff0000;stroke-width:2"/>
<polyline points="1249.0 397.8,1247.0 397.8,1246.3 399.1,1246.3 400.5,1246.1 401.1,1245.7 402.4,1245.5 404.2,1245.0 406.3,1244.8 408.5,1244.7 411.8,1244.5 416.1,1244.5 417.5,1244.7 421.4,1244.8 421.8,1244.9 422.5,1245.2 422.9,1245.6 423.2,1246.1 423.4,1246.7 423.5,1247.6 423.6,1248.3 423.7,1249.3 423.7,1250.4 423.8,1251.9 423.5,1253.2 423.4,1254.6 423.3,1255.9 423.0,1257.3 422.8,1258.6 422.7,1259.7 422.6,1260.6 422.6,1261.7 422.2,1262.1 422.1,1262.7 421.2,1263.3 420.5,1263.6 419.5,1263.9 418.4,1264.0 417.2,1264.1 415.7,1264.2 414.3,1264.3 412.0,1264.0 411.2,1263.3 409.9,1262.7 408.7,1261.8 407.4,1261.1 406.1,1260.1 404.8,1258.9 403.8,1258.0 402.6,1256.9 401.6,1255.7 401.0,1254.8 400.3,1253.6 400.0,1252.7 399.4,1251.6 399.1,1250.4 398.9,1249.5 398.8,1248.0 398.4,1247.3 398.2,1246.4 398.0" style="fill:none;stroke:#ff0000;stroke-width:2"/>
<polyline points="1321.7 461.1,1320.3 460.5,1319.7 461.8,1319.1 463.7,1319.0 464.8,1319.0 465.9,1319.0 470.2,1319.3 473.4,1319.4 473.8,1319.5 474.8,1319.5 475.3,1319.9 476.0,1320.0 476.6,1320.4 477.0,1320.6 477.5,1321.0 478.1,1321.5 478.4,1321.8 478.9,1322.2 479.2,1322.5 479.7,1322.9 479.9,1323.4 480.4,1323.7 480.9,1324.2 481.5,1324.7 481.8,1325.0 482.0,1325.5 482.1,1326.1 482.2,1326.6 482.0,1327.3 481.7,1328.2 480.9,1329.2 480.0,1330.1 479.2,1331.4 477.9,1334.3 474.9,1334.4 474.6,1334.9 473.8,1335.1 473.4,1335.3 472.8,1335.4 472.5,1335.5 471.9,1335.5 471.1,1335.6 470.4,1335.6 469.7,1335.3 469.0,1334.9 468.3,1334.5 467.7,1333.9 467.0,1333.1 466.3,1332.0 465.6,1330.9 465.0,1329.7 464.3,1328.2 463.6,1326.8 463.0,1325.7 462.6,1324.8 462.3,1324.2 462.1,1323.8 462.0" style="fill:none;stroke:#ff0000;stroke-width:2"/>
<polyline points="1366.3 638.4,1366.3 635.7,1367.0 633.7,1367.0 631.7,1367.0 631.2,1367.0 630.4,1366.7 626.7,1366.6 626.6,1366.5 626.0,1366.1 625.7,1365.7 626.6,1365.2 627.5,1364.6 628.8,1364.3 631.5,1363.8 633.4,1363.5 635.2,1363.4 636.5,1363.2 637.6,1363.1 638.6,1363.0 640.0,1363.0 640.2,1363.3 640.5,1363.7 641.0,1364.2 641.2,1365.0 641.4,1366.0 641.5,1367.1 641.8,1368.5 642.0,1370.4 642.4,1372.0 642.9,1373.6 643.1,1374.7 643.3,1375.5 643.5,1376.0 643.8,1376.3 644.0,1376.0 643.6,1375.9 642.8,1375.8 641.6,1375.7 640.2,1376.3 638.3,1376.8 636.1,1377.3 633.8,1377.9 631.6,1378.5 629.5,1379.2 627.7,1379.5 626.3,1379.8 625.2,1380.0 624.5,1379.6 623.4,1379.1 623.2,1378.3 622.6,1377.6 622.3,1376.6 621.8,1374.4 621.0,1373.6 620.6,1372.4 620.3,1370.9 619.8,1369.8 619.6,1368.8 619.4,1367.9 619.3,1367.1 619.2,1366.6 619.2,1366.3 618.8,1366.4 618.4" style="fill:none;stroke:#ff0000;stroke-width:2"/>
<polyline points="1443.0 535.1,1443.0 537.8,1442.3 539.1,1442.3 540.4,1442.0 540.7,1441.9 541.7,1441.5 543.0,1441.1 545.6,1440.5 548.0,1440.0 550.3,1439.6 552.2,1439.1 553.9,1438.9 555.2,1438.7 556.3,1438.5 557.0,1438.7 557.8,1439.1 557.9,1439.5 558.1,1440.3 558.2,1441.0 558.3,1442.0 558.3,1442.8 558.3,1443.6 558.4,1445.0 558.4,1445.6 558.4,1449.9 558.4,1451.3 558.1,1451.7 557.2,1452.4 555.9,1452.8 554.3,1453.4 552.4,1453.7 550.5,1453.9 548.2,1454.3 546.2,1454.5 543.5,1454.7 541.3,1454.8 538.0,1454.6 537.0,1454.5 535.9,1454.1 534.9,1454.0 534.3,1453.9 533.9,1453.5 533.6,1453.0 533.4,1452.5 533.3,1451.4 533.2,1449.7 533.4,1449.1 533.5,1448.6 533.6" style="fill:none;stroke:#ff0000;stroke-width:2"/>
<polyline points="1488.3 541.1,1486.9 545.1,1486.3 546.4,1486.3 547.7,1485.7 548.4,1485.2 549.7,1484.6 551.5,1484.0 553.5,1483.1 555.8,1482.1 558.2,1481.2 560.4,1480.4 562.6,1479.6 564.1,1479.2 565.4,1478.9 566.1,1479.1 567.2,1479.6 567.2,1480.1 567.4,1480.6 567.5,1481.8 567.6,1482.4 567.6,1483.3 567.7,1484.4 567.4,1485.6 567.0,1486.8 566.5,1488.1 566.0,1489.1 565.4,1490.2 564.8,1491.2 564.2,1492.0 563.3,1492.8 562.5,1493.6 561.2,1495.3 557.6,1495.4 556.5,1495.7 555.0,1495.9 553.6,1496.0 551.9,1496.1 550.5,1496.2 548.7,1496.2 545.7,1496.0 544.5,1495.9 543.6,1495.8 543.0,1495.4 542.3,1495.0 541.9,1494.5 541.6,1493.6 541.2,1492.6 540.6,1491.8 540.4,1491.0 540.2,1490.3 539.7,1489.8 539.5,1489.5 539.1" style="fill:none;stroke:#ff0000;stroke-width:2"/>
<polyline points="869.8 529.1,869.1 531.1,869.1 533.1,868.4 537.1,868.5 537.3,868.5 539.1,868.5 541.0,868.5 545.9,868.7 548.7,868.8 548.9,869.2 549.5" style="fill:none;stroke:#ff0000;stroke-width:2"/>
<polyline points="869.1 525.8,875.0 526.0,876.1 526.2,877.2 526.5,878.1 526.7,878.9 526.8,880.0 527.2,880.8 527.4,881.4 527.8,882.0 528.0,882.4 528.1,882.9 528.5,883.2 528.7,883.7 528.8,883.9 529.2,884.4 529.4,884.9 530.1,885.7 530.9,886.2 531.4,886.5 532.0,887.0 532.7,887.2 533.3,887.4 533.9,887.8 534.6,888.0 535.3,888.2 535.9,888.2 536.6,888.3 537.0,888.4 537.5,888.4 538.1,888.4 538.7,888.4 539.3,888.4 540.6,888.1 541.4,887.7 542.5,887.3 543.7,886.7 544.9,886.1 546.2,885.2 547.8,884.5 549.2,882.7 552.8,882.6 553.2,882.3 553.9,881.8 554.3,881.6 554.5,881.2 554.7,880.6 554.8,879.8 555.2,878.8 555.4,877.4 555.5,875.8 555.6,874.4 555.6,872.7 555.7,868.9 555.7,866.9 555.5,866.8 555.1" style="fill:none;stroke:#ff0000;stroke-width:2"/>
<polyline points="802.5 526.4,803.1 527.8,803.1 529.8,803.8 531.8,803.7 532.3,803.7 533.9,803.8 535.8,803.8 540.1,803.8 544.9,804.1 548.5,804.5 549.2,805.0 550.1,805.5 550.6" style="fill:none;stroke:#ff0000;stroke-width:2"/>
<polyline points="807.1 527.1,816.6 527.1,823.1 528.4,822.9 528.8,823.3 529.4,823.4 530.0,823.6 530.6,823.6 531.3,823.7 531.9,823.7 532.3,823.7 532.8,823.8 533.4,823.8 534.0,824.1 535.2,824.2 535.8,824.3 536.8,824.3 537.9,824.7 539.3,824.8 540.9,824.9 543.0,825.0 544.9,825.0 546.9,825.1 549.2,825.1 553.4,825.1 557.9,824.8 561.0,824.2 561.0,823.5 561.6,822.6 561.8,821.6 562.0,819.6 561.9,818.0 561.8,816.5 561.5,814.8 561.4,813.3 561.0,811.8 560.8,809.6 560.6,809.2 560.5,808.7 560.5,808.4 560.2" style="fill:none;stroke:#ff0000;stroke-width:2"/>
<polyline points="733.1 527.1,734.5 529.1,735.1 530.4,735.1 531.8,735.1 532.1,735.1 534.1,735.4 539.8,735.5 541.4,735.9 543.5,736.1 545.2,736.5 547.1,736.7 548.7,737.1 550.3,737.3 552.0,737.5 553.6,737.6 555.3,737.7 556.9,737.7 558.1" style="fill:none;stroke:#ff0000;stroke-width:2"/>
<polyline points="739.1 521.8,742.5 523.1,743.8 523.8,745.8 524.6,746.8 525.0,747.9 525.3,749.4 525.4,750.7 525.8,752.1 526.0,753.4 526.4,754.5 526.6,755.4 526.8,756.3 527.2,756.8 527.4,757.1 527.5,757.3 528.1,757.5 528.7,757.6 529.9,757.7 531.3,757.7 532.7,757.7 535.1,757.5 539.3,757.3 543.3,757.3 545.0,757.2 550.3,757.2 551.5,757.1 556.3,756.6 559.0,756.1 559.4,754.9 560.0,753.8 560.3,752.3 560.6,750.7 560.7,748.6 560.9,746.9 560.9,744.5 561.0,743.3 560.8,743.2 560.4" style="fill:none;stroke:#ff0000;stroke-width:2"/>
<polyline points="667.8 525.1,667.2 528.4,667.2 530.4,666.9 534.0,666.8 536.3,666.4 539.1,665.9 542.3,665.7 545.4,665.5 548.7,665.3 553.2,665.3 554.4,665.8 556.7" style="fill:none;stroke:#ff0000;stroke-width:2"/>
<polyline points="668.5 530.4,672.5 529.8,672.8 529.9,674.0 529.8,675.4 529.8,679.8 529.8,683.7 530.0,684.5 530.4,685.7 531.5,686.7 532.3,687.3 533.3,687.7 534.2,687.9 535.0,688.1 535.7,688.5 536.4,688.7 537.2,688.9 537.8,689.0 538.8,689.0 539.9,689.1 540.8,689.4 542.4,689.5 543.8,689.6 545.2,689.7 546.6,689.7 548.0,689.8 549.3,689.5 552.8,689.1 553.5,688.6 554.8,687.8 556.4,686.8 557.8,686.3 558.9,685.6 559.9,685.0 560.8,684.6 561.3,684.1 562.0,683.2 562.3,682.5 562.9,681.5 563.1,680.4 563.3,678.4 563.5,676.5 563.6,674.6 563.6,672.6 563.4,670.7 563.0,669.0 562.5,665.5 561.7,664.2 561.3,662.9 561.0,661.8 560.5,661.2 560.3" style="fill:none;stroke:#ff0000;stroke-width:2"/>
<polyline points="653.2 574.4,653.2 573.1,652.5 575.1,651.8 576.4,651.9 576.7,651.9 577.6,651.9 578.7,651.8 582.3,652.1 586.6,652.2 587.5,652.6 588.8,653.1 590.1,653.6 591.1,654.2 592.0,654.8 592.9,655.4 593.6,656.0 594.4,656.7 594.8,657.3 595.4,658.0 595.7,658.7 596.2,659.6 596.5,660.4 597.0,661.4 597.2,662.3 597.4,663.3 597.5,664.5 597.6,665.7 597.6,667.8 597.7,668.6 597.7,672.7 597.7,676.7 597.7,677.9 597.4,679.9 597.3,681.5 597.0,683.3 596.8,684.9 596.4,686.7 596.2,688.3 596.0,689.8 595.6,691.2 595.5,693.5 595.0,695.2 594.8,696.8 594.4,698.1 594.2,699.4 593.8,700.5 593.5,701.7 593.4,703.0 593.3,704.2 593.2,706.4 593.1,707.5 593.1,708.8 592.8,710.1 592.7,712.4 592.2,713.2 592.1,714.4 591.7,715.4 591.5,716.5 591.1,717.4 590.8,718.3 590.4,719.3 590.2,720.2 590.0,720.7 589.9,721.4 589.6,722.0 589.4,722.7 589.3,723.3 589.2,723.7 589.2,724.2 589.1,724.8 589.1,725.4 589.4,725.8 589.8,726.3 590.8,726.8 591.9,727.2 593.0,727.7 594.5,727.9 596.2,728.4 598.0,728.9 599.8,729.2 601.7,729.7 603.6,730.2 605.6,730.8 607.8,731.4 609.7,731.8 611.0,732.3 611.9,732.6 612.8,732.8 613.3,732.9 613.7,733.0 613.1,733.0 612.6,733.1 611.5,733.4 610.3,734.3 607.5,734.8 606.4,736.3 603.0,737.3 601.6,738.2 600.2,739.0 599.1,739.8 598.2,740.2 597.3,740.8 596.8,741.4 596.2,742.0 595.8,742.7 595.3,743.3 594.7,744.3 594.1,745.0 593.5,745.8 593.1,746.8 592.6,747.6 592.3,748.7 591.8,749.5 591.6,750.3 591.4,751.4 591.3,752.2 590.9,753.0 590.8,753.8 590.6,754.8 590.6,755.6 590.5,756.7 590.2,757.5 590.0,758.6 589.9,759.8 589.9,761.0 589.5,762.3 589.4,763.5 589.3,765.1 589.2,766.5 589.2,768.2 589.1,771.9 589.1,776.8 589.1,780.2 589.3,783.7 589.8,785.7 590.3,787.9 590.8,792.5 592.0,794.3 592.5,798.6 593.6,800.4 594.0,802.6 594.4,804.4 594.6,806.4 594.8,808.0 594.9,809.6 594.9,811.1 595.0,812.5 595.0,814.2 595.0,817.1 594.5,818.3 594.0,819.5 593.1,820.8 592.1,821.9 590.7,822.8 589.1,824.7 586.3,825.1 584.8,825.9 583.5,826.5 582.1,826.9 581.1,827.2 580.4,827.5 579.4,827.6 579.1" style="fill:none;stroke:#ffff00;stroke-width:2"/>
<polyline points="730.5 483.8,729.8 482.4,729.8 481.1,731.1 479.8,731.2 479.4,731.7 478.5,732.2 477.8,732.8 477.1,733.1 476.4,733.6 476.0,733.9 475.4,734.4 475.1,734.9 474.6,735.2 474.1,735.7 473.7,736.5 473.3,737.2 472.7,737.9 472.1,738.6 471.8,739.5 471.3,740.3 470.7,741.1 470.4,741.8 469.9,742.5 469.7,743.5 469.2,744.3 469.0,745.1 468.8,745.8 468.7,746.5 468.6,747.5 468.6,748.3 468.5,749.1 468.2,750.1 468.1,750.9 468.0,752.0 467.9,753.7 467.9,757.9 467.8,758.6 467.8,763.0 467.8,767.6 467.8,772.7 467.8,776.9 468.1,778.2 468.2,780.0 468.3,781.6 468.6,783.1 468.8,784.5 468.9,785.7 469.2,786.6 469.4,787.8 469.8,789.0 470.0,790.0 470.2,791.1 470.3,792.1 470.3,793.2 470.4,794.4 470.7,795.6 470.8,796.9 470.9,798.2 471.0,799.5 471.0,801.4 471.1,804.1 471.4,806.7 471.6,807.5 471.6,810.2 471.7,811.0 471.4,812.3 471.1,813.5 470.6,814.6 470.0,815.7 469.2,817.0 467.9,817.9 466.7,819.4 465.1,820.4 463.7,821.1 462.6,822.3 460.3,822.7 459.3,823.1 458.3,823.6 457.1,823.9 455.9,824.3 454.7,824.9 453.4,825.2 452.7,825.6 452.5,825.9 453.1,826.1 453.6,826.5 454.1,826.7 454.7,826.8 455.4,827.2 456.0,827.4 456.9,827.8 457.7,828.3 458.7,828.6 459.6,829.0 460.6,829.3 461.5,829.7 462.3,830.2 463.1,830.5 463.8,831.0 464.5,831.5 465.2,832.4 466.2,833.4 467.3,834.2 468.4,835.3 469.4,835.9 470.2,836.6 470.7,837.5 471.4,838.3 472.0,839.1 472.6,840.1 473.3,840.9 473.9,842.0 474.3,843.7 475.2,846.8 476.3,849.7 477.4,850.9 477.6,852.5 477.9,853.9 478.4,855.3 478.6,856.7 478.8,858.0 478.9,859.4 479.0,860.7 479.0,862.1 479.0,864.7 478.8,866.1 478.7,867.7 478.3,869.4 478.2,871.2 477.7,873.1 477.3,874.8 477.0,876.3 476.5,878.3 476.3,879.7 475.8,881.5 475.6,883.8 475.3,884.5 475.3,886.9 475.2,887.2 475.2,889.1 475.4,889.4 475.5,890.0 475.9,890.4 476.3,890.6 476.9,891.1 477.4,891.6 478.1,892.1 479.0,892.7 480.0,893.3 481.1,894.0 482.1,894.6 483.2,895.3 484.4,895.7 485.3,896.2 486.2,896.8 487.0,897.1 487.7,897.3 488.5,897.7 488.9,898.0 489.5,898.4 490.1,898.6 490.7,898.8 491.3,898.9 492.0,899.0 492.6,899.0 493.3" style="fill:none;stroke:#ffff00;stroke-width:2"/>
<polyline points="800.5 632.4,799.1 632.4,799.1 633.7,799.4 636.6,799.5 637.3,799.9 637.6,800.4 638.1,800.9 638.7,801.7 639.0,802.5 639.5,803.5 640.1,804.6 640.7,805.7 641.0,807.5 641.8,809.0 642.2,810.5 642.8,811.9 643.1,813.3 643.3,814.7 643.7,816.0 643.9,817.1 644.1,818.3 644.2,819.3 644.2,820.2 644.3,821.3 644.3,823.2 644.3,824.0 644.3,828.4 644.4,832.9 644.1,833.6 644.0,835.5 643.6,837.0 643.4,838.2 643.0,839.5 642.8,840.5 642.4,841.4 642.2,842.3 641.7,843.0 641.5,844.1 641.1,844.9 640.8,845.4 640.4,847.7 638.7,847.9 638.3,848.6 637.5,849.3 636.9,849.7 636.2,850.2 635.8,850.8 635.3,852.0 634.4,852.6 634.2,853.0 633.8,853.5 633.5,854.1 633.4,854.4 633.0,854.9 632.8,855.5 632.6,856.1 632.3,856.7 632.1,857.3 632.0,857.7 631.6,858.2 631.4,858.8 631.3,859.1 631.2,859.6 631.2,860.2 631.1,860.7 631.1,861.4 631.1,862.2 631.3,862.7 631.5,863.6 631.5,864.1 631.9,864.7 632.0,865.3 632.1,866.0 632.2,866.3 632.6,866.9 633.0,867.2 633.5,867.7 634.1,868.2 634.7,868.5 635.3,869.0 635.6,869.2 636.2,869.7 636.7,869.9 637.0,870.1 637.5,870.5 638.1,870.7 638.7,870.8 639.3,871.2 639.9,871.4 640.3,871.5 640.8,871.9 641.4,872.1 642.0,872.2 642.3,872.6 642.8,872.7 643.4,872.9 644.0,872.9 644.6,873.0 645.2,873.3 645.9,873.5 646.5,873.6 647.2,873.6 647.6,874.0 647.8,874.4 647.7,874.9 647.5,875.5 647.0,876.1 646.3,876.7 645.3,877.9 643.7,878.8 642.5,879.9 641.5,880.8 640.4,881.6 639.7,882.4 639.0,882.8 638.3,883.4 637.9,884.0 637.6,884.4 637.4,884.9 637.3,885.5 637.2,886.1 637.2,886.4 637.1,886.9 637.1,887.5 637.1,888.1 637.1,889.6 637.0,894.0 637.0,894.9 637.3,896.4 637.7,897.6 637.9,898.9 638.4,899.9 638.6,900.8 639.0,901.6 639.2,902.4 639.7,903.1 639.9,903.8 640.1,904.8 640.4,905.6 640.6,906.4 640.8,907.4 641.1,908.5 641.3,909.4 641.7,910.5 642.2,911.7 642.5,912.9 642.9,913.9 643.2,915.1 643.6,916.0 643.9,916.9 644.0,917.7 644.1,918.4 644.2,918.8 644.3,919.4 644.3,920.0 644.6,920.9 644.7,921.7 644.8,922.4 644.9,923.1 644.9,923.8 645.0,924.5 645.0,925.2 645.0,927.1 645.0,931.6 645.0,934.7 644.8,935.1 644.6,936.1 644.3,936.9 644.1,937.4 644.0,938.0 643.6,938.7 643.4,939.0 643.3,939.3 642.9,939.7 642.7,939.9 642.3,940.4 642.1,940.6 641.4,941.0 640.5,941.8 638.6,942.5 636.9,943.2 635.3,943.6 633.8,944.2 632.6,944.5 631.3,944.7 630.3,944.8 629.1,944.9 628.2,945.0 627.0,945.0 626.1,945.0 624.7,944.5 622.5" style="fill:none;stroke:#ffff00;stroke-width:2"/>
<polyline points="871.1 434.5,870.4 433.1,871.1 430.5,871.8 429.1,871.9 428.8,872.4 428.2,872.6 427.6,873.1 426.9,873.6 426.3,873.9 425.6,874.6 425.0,875.3 424.3,875.9 423.6,876.6 423.3,877.0 423.0,877.5 422.8,878.1 422.4,878.7 422.2,879.1 422.1,879.6 421.7,880.1 421.5,881.3 421.1,882.1 420.9,883.2 420.8,884.1 420.4,884.9 420.2,886.0 419.8,887.1 419.6,888.0 419.4,889.2 419.3,890.4 419.3,891.6 419.2,893.4 419.2,898.3 419.2,901.5 419.4,902.2 419.5,903.3 419.6,904.1 420.0,905.5 420.1,906.5 420.5,907.4 420.7,908.3 421.1,909.0 421.4,910.0 421.8,910.9 422.0,911.7 422.4,912.7 422.9,913.5 423.5,914.6 424.1,915.8 425.0,917.0 425.7,917.9 426.5,919.1 426.9,920.3 427.2,921.6 427.4,922.6 427.5,923.7 427.6,924.9 427.7,926.2 427.7,927.5 427.7,929.1 427.8,933.7 427.5,934.4 427.1,935.6 426.6,936.6 426.1,937.5 425.5,938.3 424.6,939.0 423.9,940.3 422.3,941.6 420.4,942.3 419.3,943.1 418.0,943.8 416.8,944.2 415.7,944.5 414.8,945.0 414.0,945.2 413.5,945.4 413.2,945.8 412.9,946.3 412.8,946.8 412.7,947.1 412.9,947.6 413.0,947.9 413.3,948.3 413.7,948.6 414.0,949.3 414.9,949.4 415.4,949.8 416.1,950.0 416.7,950.4 417.1,950.9 417.6,951.5 418.2,954.2 420.6,955.3 421.3,956.4 421.9,957.3 422.6,958.5 423.0,959.4 423.5,960.5 423.8,961.4 424.1,962.5 424.5,963.7 424.7,964.9 424.8,966.2 424.9,968.6 425.0,974.0 425.1,975.6 425.1,977.8 424.8,980.0 424.7,982.0 424.4,983.8 424.2,985.7 423.8,987.7 423.6,990.2 423.1,992.1 422.9,994.1 422.8,995.9 422.7,997.5 422.6,999.0 422.6,1001.5 422.5,1002.3 422.5,1006.8 422.5,1009.5 422.8,1010.2 422.9,1011.3 423.0,1012.4 423.3,1013.3 423.5,1014.5 423.9,1015.9 424.1,1017.0 424.5,1018.0 424.7,1018.8 424.8,1019.6 424.9,1020.4 425.0,1020.8 425.3,1021.4 425.5,1022.0 425.6,1022.4 425.9,1022.9 426.4,1023.4 426.6,1024.0 427.1,1024.4 427.6,1024.9 427.9,1025.4 428.4,1025.7 428.9,1026.2 429.5,1026.5 429.8,1027.0 430.3,1027.2 430.8,1027.7 431.7,1027.9 432.5,1028.1 434.0,1028.3 436.3,1028.3 437.1,1028.4 438.9" style="fill:none;stroke:#a020f0;stroke-width:2"/>
<polyline points="922.4 682.4,922.4 684.3,922.7 687.9,922.8 688.9,923.2 689.6,923.7 690.6,924.2 691.8,925.0 693.2,925.8 694.3,926.5 695.5,927.5 696.5,928.3 697.1,929.0 697.8,930.0 698.2,930.9 698.5,931.9 698.6,933.1 698.8,934.0 698.8,935.7 698.9,937.7 698.9,942.1 699.0,946.2 699.0,950.2 698.7,951.3 698.6,952.7 698.2,953.7 698.1,955.0 697.9,955.9 697.6,956.8 697.4,957.9 697.3,958.8 696.9,959.9 696.7,960.8 696.6,961.9 696.2,962.8 696.1,963.9 695.9,964.8 695.8,965.9 695.5,967.0 695.4,968.0 695.2,969.1 695.2,970.3 695.1,972.1 695.1,972.8 695.0,977.4 695.0,980.2 694.7,980.9 694.6,981.9 694.5,982.8 694.5,983.6 694.4,984.4 694.4,985.1 694.4,986.1 694.4,990.3 694.4,990.5 694.6,991.5 694.7,992.0 694.8,992.6 694.9,993.0 695.2,993.2 695.6,993.4 696.1,993.5 696.7,993.6 697.3,993.6 697.6,993.7 698.2,993.7 698.7,993.7 699.3,994.0 700.5,994.1 701.6,994.5 702.9,994.7 704.1,995.1 705.1,995.3 706.0,995.4 706.8,995.8 707.3,996.0 707.7,996.1 708.2,996.5 708.4,997.0 708.3,997.5 707.8,998.9 706.1,999.9 704.8,1001.1 703.4,1002.8 701.4,1003.5 701.0,1004.0 700.3,1004.4 699.9,1004.9 699.6,1005.4 699.4,1006.0 699.3,1006.7 698.9,1007.3 698.7,1007.9 698.6,1008.6 698.5,1009.2 698.5,1009.9 698.1,1010.6 698.0,1011.2 697.9,1011.9 697.8,1013.1 697.8,1014.6 697.7,1018.2 697.7,1022.8 697.7,1027.6 697.7,1028.5 698.0,1030.2 698.1,1032.0 698.4,1033.5 698.6,1035.0 698.8,1036.2 698.8,1037.5 698.9,1038.8 698.9,1040.1 699.0,1043.8 699.0,1049.3 698.7,1050.5 698.6,1052.2 698.5,1054.4 698.1,1055.4 698.0,1056.5 697.9,1057.7 697.5,1058.6 697.4,1059.5 697.0,1061.1 695.9,1062.5 695.1,1063.9 694.1,1065.3 693.3,1066.4 692.5,1067.3 691.7,1068.2 691.0,1069.0 690.0,1069.7 689.2,1071.1 687.7,1071.4 686.2,1072.0 685.1,1072.4 683.9,1072.6 682.9,1073.0 682.0,1073.2 681.2,1073.4 680.4,1073.5 679.7,1073.6 679.0" style="fill:none;stroke:#a020f0;stroke-width:2"/>
<polyline points="1013.7 358.5,1013.1 357.2,1013.1 355.2,1013.4 352.6,1013.8 350.7,1014.0 349.9,1014.4 349.2,1014.6 348.5,1014.8 347.5,1015.2 346.7,1015.3 345.9,1015.8 344.9,1016.0 344.1,1016.4 343.3,1016.9 342.5,1017.4 341.5,1017.8 340.7,1018.2 339.9,1018.5 339.2,1019.0 338.7,1019.2 338.4,1019.4 338.0,1019.8 337.7,1020.3 337.5,1020.8 337.4,1021.4 337.3,1022.0 337.3,1022.6 337.2,1023.3 337.2,1023.9 337.2,1024.9 337.2,1028.5 337.5,1029.5 337.9,1031.1 338.4,1032.5 338.6,1033.6 339.1,1034.6 339.3,1035.7 339.8,1036.7 340.0,1037.5 340.5,1038.3 340.7,1039.1 340.9,1039.8 341.2,1040.5 341.4,1041.2 341.6,1042.1 341.7,1042.9 342.0,1043.7 342.2,1044.4 342.6,1045.1 342.8,1045.8 342.9,1046.5 343.0,1047.2 343.3,1047.9 343.5,1048.5 343.6,1049.2 343.7,1049.9 343.7,1050.8 343.8,1051.9 343.8,1054.5 343.8,1055.1 343.8,1059.0 343.6,1060.1 343.4,1061.4 343.1,1062.4 342.9,1063.4 342.5,1064.5 342.0,1065.4 341.7,1066.2 341.0,1067.0 340.3,1067.7 339.7,1068.4 338.7,1069.1 337.7,1070.1 336.0,1070.6 335.1,1071.3 333.9,1071.9 332.9,1072.3 331.8,1072.8 330.9,1073.4 329.8,1073.7 328.9,1074.2 327.8,1074.8 326.6,1075.1 325.3,1075.6 324.4,1075.8 322.9,1076.1 320.9,1076.2 320.5,1076.3 320.1,1076.3 320.6,1076.3 321.1,1076.3 321.6,1076.4 322.5,1076.7 324.5,1076.8 325.0,1077.2 325.8,1077.3 326.5,1077.7 327.0,1078.2 327.5,1078.8 328.1,1079.4 328.8,1080.0 329.4,1081.2 330.4,1082.5 331.2,1083.1 331.6,1083.8 331.9,1084.8 332.1,1085.9 332.2,1086.7 332.3,1087.8 332.4,1089.0 332.4,1090.2 332.5,1093.5 332.5,1096.2 332.2,1097.5 332.1,1099.0 332.0,1100.5 331.7,1101.6 331.5,1102.8 331.4,1104.1 331.3,1105.1 331.3,1106.3 331.0,1107.6 330.8,1109.7 330.4,1111.3 329.9,1112.3 329.7,1113.6 329.5,1114.8 329.1,1116.1 328.9,1117.7 328.8,1119.1 328.7,1120.5 328.4,1121.9 328.2,1123.6 328.1,1125.9 327.7,1127.7 327.6,1129.6 327.4,1131.6 327.1,1133.3 326.9,1134.8 326.5,1136.6 326.3,1138.2 325.9,1139.7 325.6,1140.8 325.5,1142.1 325.4,1143.1 325.3,1144.3 325.3,1145.5 325.2,1147.8 325.2,1151.2 325.2,1154.0 325.5,1154.5 325.6,1155.4 325.7,1156.2 326.0,1157.0 326.2,1157.7 326.3,1158.4 326.4,1159.1 326.4,1159.8 326.7,1160.2 326.9,1160.8 327.0,1161.3 327.3,1161.7 327.5,1162.2 327.6,1162.5 328.0,1162.9 328.4,1163.2 328.9,1163.6 329.5,1164.1 330.1,1164.4 330.7,1164.9 331.7,1165.2 332.4,1165.6 333.5,1165.9 334.3,1166.0 335.1,1166.1 335.8,1166.2 336.5,1166.5 337.3,1166.7 337.9,1167.1 338.6,1167.3 339.3,1167.7 339.7,1167.9 340.0" style="fill:none;stroke:#a020f0;stroke-width:2"/>
<polyline points="1323.0 663.7,1321.7 663.7,1321.0 665.0,1321.0 666.4,1321.0 667.0,1321.0 668.0,1321.3 670.8,1321.7 671.8,1321.9 673.0,1322.3 673.9,1322.8 674.8,1323.4 675.6,1324.0 676.0,1324.6 676.7,1325.2 677.0,1326.1 677.5,1327.2 677.8,1328.0 678.0,1329.1 678.1,1330.3 678.2,1331.5 678.2,1332.8 678.3,1335.0 678.3,1336.0 678.3,1340.8 678.3,1345.2 678.3,1350.0 678.4,1353.2 677.8,1354.8 677.6,1356.5 677.1,1357.8 676.6,1359.2 676.3,1360.6 676.1,1361.6 676.0,1362.6 675.6,1363.7 675.4,1364.6 675.3,1365.5 675.2,1366.8 675.1,1367.8 674.8,1368.9 674.7,1370.7 674.2,1371.4 674.1,1372.2 673.9,1373.0 673.9,1373.7 673.8,1374.4 673.8,1375.1 673.7,1376.0 673.7,1378.7 673.7,1381.6 674.0,1381.9 674.1,1384.2 674.7,1384.7 675.0,1385.3 675.2,1385.9 675.4,1386.5 675.8,1386.9 676.0,1387.4 676.4,1388.0 676.9,1388.3 677.4,1389.4 679.3,1389.6 680.0,1389.8 681.1,1390.0 682.0,1390.4 683.1,1390.6 684.0,1390.7 685.1,1390.8 686.3,1390.9 687.5,1390.9 688.8,1390.9 691.4,1390.9 691.6,1391.2 691.3,1391.6 690.4,1392.1 689.4,1393.0 687.1,1393.4 686.3,1394.0 685.4,1394.3 684.5,1394.8 684.0,1395.1 683.4,1395.5 683.1,1396.1 682.5,1396.6 682.0,1397.2 681.7,1398.1 681.2,1398.9 680.9,1399.6 680.7,1400.4 680.3,1401.3 680.1,1402.1 680.0,1402.9 679.9,1403.9 679.5,1404.8 679.4,1406.1 679.3,1407.4 679.2,1408.9 679.1,1412.1 679.1,1413.6 679.1,1415.3 678.8,1416.8 678.6,1418.6 678.5,1420.1 678.5,1421.6 678.4,1424.1 678.1,1424.9 678.0,1425.9 677.9,1427.0 677.8,1427.9 677.8,1428.8 677.7,1430.1 677.4,1431.1 677.0,1433.2 676.0,1434.2 675.2,1436.7 672.7,1437.8 671.6,1439.2 670.1,1442.3 666.7,1442.9 666.0,1443.9 664.6,1444.5 663.6,1445.1 662.1,1445.5 660.8,1445.8 659.4,1445.9 657.8,1446.1 656.4" style="fill:none;stroke:#a020f0;stroke-width:2"/>
<polyline points="1430.3 481.1,1431.0 479.1,1431.0 477.1,1431.6 475.1,1431.8 474.9,1432.3 473.9,1432.8 473.2,1433.6 471.9,1434.3 470.9,1435.0 470.3,1435.4 469.9,1435.7 469.7,1436.2 469.5,1437.0 469.4,1437.7 469.6,1438.4 469.6,1439.1 470.0,1440.0 470.1,1440.8 470.5,1441.9 471.0,1443.0 471.2,1444.2 471.7,1445.4 472.2,1446.7 472.8,1448.8 473.7,1450.8 474.1,1452.2 474.7,1454.5 475.4,1456.3 476.0,1457.9 476.4,1459.2 476.9,1460.6 477.2,1461.6 477.4,1462.8 477.8,1463.8 478.0,1464.7 478.1,1465.8 478.2,1466.9 478.3,1467.9 478.4,1469.0 478.4,1470.2 478.4,1474.4 478.4,1478.9 478.4,1480.7 477.9,1483.5 476.8,1485.6 475.4,1487.5 474.1,1489.2 472.5,1490.8 471.1,1492.0 469.4,1493.0 467.9,1493.9 466.4,1494.8 465.0,1495.3 463.3,1495.9 461.8,1496.5 459.5,1497.1 457.8,1497.8 456.4,1498.2 455.5,1498.7 455.3,1498.7 455.8,1498.8 456.3,1499.1 457.1,1499.3 457.8,1499.7 458.8,1500.1 460.2,1500.7 461.5,1501.3 462.8,1502.7 465.0,1504.0 466.6,1505.0 467.9,1506.2 469.3,1507.4 470.4,1508.7 471.4,1510.0 471.9,1511.3 472.3,1512.6 472.9,1513.6 473.2,1514.9 473.4,1516.1 473.5,1517.4 473.6,1518.4 473.7,1519.6 473.7,1520.8 473.7,1523.0 473.8,1527.1 473.8,1531.1 473.8,1536.0 473.8,1537.2 474.1,1539.4 474.5,1541.4 474.9,1543.1 475.5,1544.7 475.8,1545.9 476.3,1546.7 476.6,1547.5 477.0,1548.0 477.3,1548.3 477.7,1548.8 478.2,1549.0 478.5,1549.5 479.0,1549.7 479.5,1550.2 479.8,1550.4 480.3,1550.6 480.8,1550.7 481.7,1550.8 482.7,1550.3 483.8" style="fill:none;stroke:#ffff00;stroke-width:2"/>
<polyline points="1535.6 551.1,1537.6 550.4,1538.9 550.4,1540.9 551.1,1541.2 551.0,1542.1 551.3,1543.7 551.4,1545.1 551.5,1546.2 551.9,1547.4 552.1,1548.7 552.2,1550.0 552.3,1551.3 552.3,1552.6 552.3,1554.8 552.4,1555.9 552.7,1557.5 552.8" style="fill:none;stroke:#ffffff;stroke-width:2"/>
</svg>